<?xml version="1.0" encoding="UTF-8" standalone="no"?>
<svg
   xmlns:dc="http://purl.org/dc/elements/1.1/"
   xmlns:cc="http://creativecommons.org/ns#"
   xmlns:rdf="http://www.w3.org/1999/02/22-rdf-syntax-ns#"
   xmlns:svg="http://www.w3.org/2000/svg"
   xmlns="http://www.w3.org/2000/svg"
   xmlns:xlink="http://www.w3.org/1999/xlink"
   xmlns:sodipodi="http://sodipodi.sourceforge.net/DTD/sodipodi-0.dtd"
   xmlns:inkscape="http://www.inkscape.org/namespaces/inkscape"
   sodipodi:docname="ledclock-logo-github.svg"
   inkscape:version="1.0 (4035a4fb49, 2020-05-01)"
   id="svg8"
   version="1.1"
   viewBox="0 0 701.55426 121.9982"
   height="121.9982mm"
   width="701.55426mm">
  <defs
     id="defs2">
    <linearGradient
       inkscape:collect="always"
       id="asd">
      <stop
         style="stop-color:#ff0066;stop-opacity:1"
         offset="0"
         id="stop912" />
      <stop
         style="stop-color:#00e4ff;stop-opacity:1"
         offset="1"
         id="stop914" />
    </linearGradient>
    <radialGradient
       r="343.19238"
       fy="146.31456"
       fx="346.54419"
       cy="146.31456"
       cx="346.54419"
       gradientTransform="matrix(1.2999443,0.00723279,-0.0081399,1.4629763,-119.74572,-35.947796)"
       gradientUnits="userSpaceOnUse"
       id="radialGradient880"
       xlink:href="#asd"
       inkscape:collect="always" />
    <radialGradient
       r="343.19238"
       fy="146.31456"
       fx="346.54419"
       cy="146.31456"
       cx="346.54419"
       gradientTransform="matrix(1.2999443,0.00723279,-0.0081399,1.4629763,-119.74572,-35.947796)"
       gradientUnits="userSpaceOnUse"
       id="radialGradient922"
       xlink:href="#asd"
       inkscape:collect="always" />
    <radialGradient
       r="343.19238"
       fy="146.31456"
       fx="346.54419"
       cy="146.31456"
       cx="346.54419"
       gradientTransform="matrix(1.2999443,0.00723279,-0.0081399,1.4629763,-119.74572,-35.947796)"
       gradientUnits="userSpaceOnUse"
       id="radialGradient924"
       xlink:href="#asd"
       inkscape:collect="always" />
    <radialGradient
       r="343.19238"
       fy="146.31456"
       fx="346.54419"
       cy="146.31456"
       cx="346.54419"
       gradientTransform="matrix(1.2999443,0.00723279,-0.0081399,1.4629763,-119.74572,-35.947796)"
       gradientUnits="userSpaceOnUse"
       id="radialGradient926"
       xlink:href="#asd"
       inkscape:collect="always" />
    <radialGradient
       r="343.19238"
       fy="146.31456"
       fx="346.54419"
       cy="146.31456"
       cx="346.54419"
       gradientTransform="matrix(1.2999443,0.00723279,-0.0081399,1.4629763,-119.74572,-35.947796)"
       gradientUnits="userSpaceOnUse"
       id="radialGradient928"
       xlink:href="#asd"
       inkscape:collect="always" />
    <radialGradient
       r="343.19238"
       fy="146.31456"
       fx="346.54419"
       cy="146.31456"
       cx="346.54419"
       gradientTransform="matrix(1.2999443,0.00723279,-0.0081399,1.4629763,-119.74572,-35.947796)"
       gradientUnits="userSpaceOnUse"
       id="radialGradient930"
       xlink:href="#asd"
       inkscape:collect="always" />
    <radialGradient
       r="343.19238"
       fy="146.31456"
       fx="346.54419"
       cy="146.31456"
       cx="346.54419"
       gradientTransform="matrix(1.2999443,0.00723279,-0.0081399,1.4629763,-119.74572,-35.947796)"
       gradientUnits="userSpaceOnUse"
       id="radialGradient932"
       xlink:href="#asd"
       inkscape:collect="always" />
    <radialGradient
       r="343.19238"
       fy="146.31456"
       fx="346.54419"
       cy="146.31456"
       cx="346.54419"
       gradientTransform="matrix(1.2999443,0.00723279,-0.0081399,1.4629763,-119.74572,-35.947796)"
       gradientUnits="userSpaceOnUse"
       id="radialGradient934"
       xlink:href="#asd"
       inkscape:collect="always" />
    <radialGradient
       r="343.19238"
       fy="146.31456"
       fx="346.54419"
       cy="146.31456"
       cx="346.54419"
       gradientTransform="matrix(1.2999443,0.00723279,-0.0081399,1.4629763,-119.74572,-35.947796)"
       gradientUnits="userSpaceOnUse"
       id="radialGradient936"
       xlink:href="#asd"
       inkscape:collect="always" />
  </defs>
  <sodipodi:namedview
     inkscape:window-maximized="1"
     inkscape:window-y="-8"
     inkscape:window-x="2552"
     inkscape:window-height="1369"
     inkscape:window-width="3440"
     fit-margin-bottom="0"
     fit-margin-right="0"
     fit-margin-left="0"
     fit-margin-top="0"
     showgrid="false"
     inkscape:document-rotation="0"
     inkscape:current-layer="svg8"
     inkscape:document-units="px"
     inkscape:cy="63.274631"
     inkscape:cx="1095.7064"
     inkscape:zoom="0.50889591"
     inkscape:pageshadow="2"
     inkscape:pageopacity="0.0"
     borderopacity="1.0"
     bordercolor="#666666"
     pagecolor="#ffffff"
     id="base" />
  <metadata
     id="metadata5">
    <rdf:RDF>
      <cc:Work
         rdf:about="">
        <dc:format>image/svg+xml</dc:format>
        <dc:type
           rdf:resource="http://purl.org/dc/dcmitype/StillImage" />
        <dc:title></dc:title>
      </cc:Work>
    </rdf:RDF>
  </metadata>
  <text
     id="text12"
     y="121.9982"
     x="-8.9958391"
     style="font-style:normal;font-weight:normal;font-size:10.5833px;line-height:1.25;font-family:sans-serif;display:inline;fill:#000000;fill-opacity:0.104839;stroke:none;stroke-width:0.264583"
     xml:space="preserve"><tspan
       style="font-style:normal;font-variant:normal;font-weight:normal;font-stretch:normal;font-size:176.389px;font-family:'Fake Hope';-inkscape-font-specification:'Fake Hope';fill:#000000;fill-opacity:0.104839;stroke-width:0.264583"
       y="121.9982"
       x="-8.9958391"
       id="tspan10"
       sodipodi:role="line">LED CLOCK</tspan></text>
  <g
     transform="translate(-53.188722,-126.52185)"
     style="font-style:normal;font-weight:normal;font-size:10.5833px;line-height:1.25;font-family:sans-serif;fill:url(#radialGradient880);fill-opacity:1;stroke:none;stroke-width:0.264583"
     id="text839"
     aria-label="LED CLOCK">
    <path
       sodipodi:nodetypes="ccccsccccccccsscccscccccc"
       id="path845"
       style="font-style:normal;font-variant:normal;font-weight:normal;font-stretch:normal;font-size:176.389px;font-family:'Fake Hope';-inkscape-font-specification:'Fake Hope';fill:url(#radialGradient922);fill-opacity:1;stroke-width:0.264583"
       d="m 69.240122,193.48668 -8.466673,-8.64306 c -0.117593,-0.11759 -0.235185,-0.11759 -0.352778,0 l -3.52778,3.175 v 44.80281 c 0,0.47037 0.176389,0.52916 0.529167,0.17639 L 69.240122,222.23809 Z M 111.39709,235.99643 99.931809,224.35476 H 71.35679 71.180401 l -10.75973,11.64167 c -0.352778,0.35278 -0.293982,0.52917 0.176389,0.52917 h 50.62365 c 0.47037,0 0.52916,-0.17639 0.17638,-0.52917 z M 69.240122,142.68665 57.422058,131.04497 c -0.352778,-0.35278 -0.529167,-0.35278 -0.529167,0 v 48.33059 l 3.52778,3.175 h 0.352778 l 8.466673,-8.64306 v -0.17639 z" />
    <path
       sodipodi:nodetypes="cccccssccccsccccccccccccccssccccccsscccccss"
       id="path847"
       style="font-style:normal;font-variant:normal;font-weight:normal;font-stretch:normal;font-size:176.389px;font-family:'Fake Hope';-inkscape-font-specification:'Fake Hope';fill:url(#radialGradient924);fill-opacity:1;stroke-width:0.264583"
       d="m 197.37296,235.99643 -11.46529,-11.64167 h -28.57502 -0.17639 l -10.58334,11.64167 c -0.35277,0.35278 -0.35277,0.52917 0,0.52917 h 50.62365 c 0.47037,0 0.52916,-0.17639 0.17639,-0.52917 z m -50.62365,-51.15281 c -0.11759,-0.11759 -0.17639,-0.11759 -0.17639,0 l -3.52778,3.175 v 44.80281 c 0,0.47037 0.17639,0.52916 0.52917,0.17639 l 11.46529,-10.75973 v -28.75141 h -0.17639 z m 9.17223,-7.05556 -5.82084,5.82084 c -0.11759,0 -0.11759,0.0588 0,0.17638 l 5.82084,5.99723 h 31.57363 l 5.82084,-5.99723 v -0.17638 l -5.82084,-5.82084 z M 143.57431,133.8672 c -0.35278,-0.35278 -0.52917,-0.29399 -0.52917,0.17638 v 45.33198 l 3.52778,3.175 h 0.17639 l 8.1139,-8.64306 0.17639,-0.17639 v -28.39863 z m 2.99861,-2.99862 c -0.23518,0 -0.23518,0.11759 0,0.35278 l 10.58334,11.64167 h 0.17639 28.57502 l 11.46529,-11.64167 c 0.23519,-0.23519 0.17639,-0.35278 -0.17639,-0.35278 z" />
    <path
       sodipodi:nodetypes="csscccccccsccccccccccccccccccsccscccccccscccccccccscccc"
       id="path849"
       style="font-style:normal;font-variant:normal;font-weight:normal;font-stretch:normal;font-size:176.389px;font-family:'Fake Hope';-inkscape-font-specification:'Fake Hope';fill:url(#radialGradient926);fill-opacity:1;stroke-width:0.264583"
       d="m 242.51201,145.33248 -11.64167,-11.64167 c -0.35278,-0.35278 -0.52917,-0.29398 -0.52917,0.17639 v 45.33197 l 3.52778,3.175 h 0.35278 l 8.29028,-8.81945 z m 39.51114,-11.64167 -2.99861,-2.82223 h -44.9792 c -0.35278,0 -0.41158,0.11759 -0.17639,0.35278 l 10.75973,11.46529 h 28.75141 0.17639 l 8.46667,-8.64307 c 0.11759,-0.11759 0.11759,-0.23518 0,-0.35277 z m 5.64445,5.99722 -2.99861,-2.82222 c 0,-0.11759 -0.0588,-0.11759 -0.17639,0 l -8.64306,8.46667 v 28.22224 l 8.64306,8.81945 h 0.17639 l 2.99861,-3.175 z m 0,48.1542 -0.17639,-0.17639 -2.82222,-2.82222 c 0,-0.11759 -0.0588,-0.11759 -0.17639,0 l -8.64306,8.64306 v 28.75141 l 8.64306,8.64306 c 0.11759,0.11759 0.17639,0.11759 0.17639,0 l 2.99861,-3.52778 z m -5.64445,44.62642 -8.64306,-8.29028 h -28.75141 l -10.75973,11.64167 c -0.35278,0.35278 -0.29398,0.52917 0.17639,0.52917 h 44.9792 l 0.17639,-0.17639 2.82222,-3.35139 c 0.11759,-0.11759 0.11759,-0.23519 0,-0.35278 z m -39.51114,-38.98197 -8.29028,-8.64306 c -0.11759,-0.11759 -0.23519,-0.11759 -0.35278,0 l -3.35139,2.82222 -0.17639,0.17639 v 44.80281 c 0,0.47037 0.17639,0.52917 0.52917,0.17639 l 11.64167,-10.40695 v -0.17639 z" />
    <path
       sodipodi:nodetypes="cccccccccccccccsccccscccccccccccccccsc"
       id="path851"
       style="font-style:normal;font-variant:normal;font-weight:normal;font-stretch:normal;font-size:176.389px;font-family:'Fake Hope';-inkscape-font-specification:'Fake Hope';fill:url(#radialGradient928);fill-opacity:1;stroke-width:0.264583"
       d="m 360.00639,193.48668 -8.46667,-8.64306 c -0.11759,-0.11759 -0.23519,-0.11759 -0.35278,0 l -3.35139,2.99861 v 39.51114 l 0.17638,0.17639 3.17501,3.35139 c 0.11759,0.11759 0.23519,0.11759 0.35278,0 l 8.46667,-8.64306 z m 2.11667,30.69169 -8.64307,8.46667 c -0.11759,0.11759 -0.11759,0.23519 0,0.35278 l 3.3514,3.175 0.17638,0.17639 h 45.15559 c 0.11759,0 0.17639,-0.17639 0.17639,-0.52917 l -11.46529,-11.64167 z m -2.11667,-78.84589 -8.46667,-8.46667 c -0.11759,-0.11759 -0.23519,-0.11759 -0.35278,0 l -3.17501,2.64583 -0.17638,0.17639 v 39.68753 l 3.35139,2.99861 h 0.35278 l 8.46667,-8.81945 z m -3.175,-14.4639 H 356.655 l -3.35139,2.82223 c -0.11759,0.11759 -0.11759,0.23518 0,0.35277 l 8.81945,8.64307 h 28.7514 l 11.46529,-11.46529 c 0,-0.23519 -0.0588,-0.35278 -0.17639,-0.35278 z" />
    <path
       sodipodi:nodetypes="ccccsccccccccsscccscccccc"
       id="path853"
       style="font-style:normal;font-variant:normal;font-weight:normal;font-stretch:normal;font-size:176.389px;font-family:'Fake Hope';-inkscape-font-specification:'Fake Hope';fill:url(#radialGradient930);fill-opacity:1;stroke-width:0.264583"
       d="m 444.41126,193.48668 -8.46667,-8.64306 c -0.11759,-0.11759 -0.23519,-0.11759 -0.35278,0 l -3.52778,3.175 v 44.80281 c 0,0.47037 0.17639,0.52916 0.52917,0.17639 l 11.81806,-10.75973 z m 42.15698,42.50975 -11.46529,-11.64167 h -28.57502 -0.17639 l -10.75973,11.64167 c -0.35277,0.35278 -0.29398,0.52917 0.17639,0.52917 h 50.62365 c 0.47037,0 0.52916,-0.17639 0.17639,-0.52917 z M 444.41126,142.68665 432.5932,131.04497 c -0.35278,-0.35278 -0.52917,-0.35278 -0.52917,0 v 48.33059 l 3.52778,3.175 h 0.35278 l 8.46667,-8.64306 v -0.17639 z" />
    <path
       sodipodi:nodetypes="cccccccccsccsccccccccccccccccccccccccscccccccccccccccccccccccccccc"
       id="path855"
       style="font-style:normal;font-variant:normal;font-weight:normal;font-stretch:normal;font-size:176.389px;font-family:'Fake Hope';-inkscape-font-specification:'Fake Hope';fill:url(#radialGradient932);fill-opacity:1;stroke-width:0.264583"
       d="m 557.37466,224.35476 h -0.17639 -28.9278 l -8.64306,8.29028 c -0.11759,0.11759 -0.11759,0.23519 0,0.35278 l 3.35139,3.52778 h 39.86392 v -0.17639 l 2.82222,-3.35139 c 0.11759,-0.11759 0.11759,-0.23519 0,-0.35278 z m -30.86808,-30.86808 -8.64306,-8.64306 c -0.11759,-0.11759 -0.23519,-0.11759 -0.35278,0 l -3.52778,3.175 v 39.51114 l 0.17639,0.17639 3.35139,3.175 c 0.11759,0.11759 0.23519,0.11759 0.35278,0 l 8.46668,-8.29028 0.17638,-0.17639 z m 0,-48.1542 -0.17638,-0.17639 -8.46668,-8.11389 c -0.11759,-0.11759 -0.23519,-0.11759 -0.35278,0 l -3.35139,2.46944 -0.17639,0.17639 v 39.68753 l 3.52778,3.175 h 0.35278 l 8.64306,-8.81945 z m 36.33614,-14.28751 v -0.17639 H 522.9788 l -3.35139,2.99862 c -0.11759,0.11759 -0.11759,0.23518 0,0.35277 l 8.64306,8.64306 h 28.9278 0.17639 l 8.29028,-8.64306 c 0.11759,-0.11759 0.11759,-0.23518 0,-0.35277 z m 8.64306,8.64306 v -0.17639 l -2.99861,-2.46944 c -0.11759,-0.11759 -0.23519,-0.11759 -0.35278,0 l -8.46667,8.11389 v 0.17639 28.39863 l 8.46667,8.81945 h 0.35278 l 2.99861,-3.175 z m 0,48.33059 -2.99861,-3.175 c -0.11759,-0.11759 -0.23519,-0.11759 -0.35278,0 l -8.46667,8.64306 v 28.9278 0.17639 l 8.46667,8.29028 c 0.11759,0.11759 0.23519,0.11759 0.35278,0 l 2.99861,-3.175 v -0.17639 z" />
    <path
       sodipodi:nodetypes="cccccccccccccccsccccscccccccccccccccsc"
       id="path857"
       style="font-style:normal;font-variant:normal;font-weight:normal;font-stretch:normal;font-size:176.389px;font-family:'Fake Hope';-inkscape-font-specification:'Fake Hope';fill:url(#radialGradient934);fill-opacity:1;stroke-width:0.264583"
       d="m 614.59913,193.48668 -8.46667,-8.64306 c -0.11759,-0.11759 -0.23519,-0.11759 -0.35278,0 l -3.35139,2.99861 v 39.51114 l 0.17639,0.17639 3.175,3.35139 c 0.11759,0.11759 0.23519,0.11759 0.35278,0 l 8.46667,-8.64306 z m 2.11667,30.69169 -8.64306,8.46667 c -0.11759,0.11759 -0.11759,0.23519 0,0.35278 l 3.35139,3.175 0.17639,0.17639 h 45.15558 c 0.11759,0 0.17639,-0.17639 0.17639,-0.52917 l -11.46528,-11.64167 z m -2.11667,-78.84589 -8.46667,-8.46667 c -0.11759,-0.11759 -0.23519,-0.11759 -0.35278,0 l -3.175,2.64583 -0.17639,0.17639 v 39.68753 l 3.35139,2.99861 h 0.35278 l 8.46667,-8.81945 z m -3.175,-14.4639 h -0.17639 l -3.35139,2.82223 c -0.11759,0.11759 -0.11759,0.23518 0,0.35277 l 8.81945,8.64307 h 28.75141 l 11.46528,-11.46529 c 0,-0.23519 -0.0588,-0.35278 -0.17639,-0.35278 z" />
    <path
       sodipodi:nodetypes="ccccscccccccccccccsccscccccccccccssccccccscccsccc"
       id="path859"
       style="font-style:normal;font-variant:normal;font-weight:normal;font-stretch:normal;font-size:176.389px;font-family:'Fake Hope';-inkscape-font-specification:'Fake Hope';fill:url(#radialGradient936);fill-opacity:1;stroke-width:0.264583"
       d="m 689.65542,184.84362 c -0.11759,-0.11759 -0.23519,-0.11759 -0.35278,0 l -3.175,2.99861 -0.17639,0.17639 v 47.97781 c 0,0.47037 0.17639,0.52917 0.52917,0.17639 l 11.64167,-11.81806 v -30.86808 z m 40.92225,-7.05556 -0.17639,-0.17639 h -31.39724 l -0.17639,0.17639 -5.82084,5.64445 c -0.11759,0.11759 -0.11759,0.23518 0,0.35277 l 5.99723,5.99723 h 31.39724 l 5.82084,-5.99723 c 0.11759,-0.11759 0.11759,-0.23518 0,-0.35277 z m -44.09725,-46.91948 c -0.35278,0 -0.52917,0.0588 -0.52917,0.17639 v 48.33059 l 3.35139,2.99861 h 0.35278 l 8.46667,-8.46667 v -0.17639 -31.04446 z m 48.68336,0 h -0.17638 l -33.69031,33.51391 h -0.17638 v 9.52501 c 0,0.11759 0.11759,0.17639 0.35277,0.17639 h 6.70279 l 35.10141,-34.92502 v -8.1139 l -0.17639,-0.17639 z m 5.29167,53.97504 c -0.11759,-0.11759 -0.23518,-0.11759 -0.35277,0 l -8.64306,8.64306 v 30.86808 l 11.46528,11.81806 c 0.23519,0.23519 0.35278,0.17639 0.35278,-0.17639 v -47.97781 l -0.17639,-0.17639 z" />
  </g>
</svg>
