<?xml version="1.0" encoding="UTF-8" standalone="no"?>
<svg
   xmlns:osb="http://www.openswatchbook.org/uri/2009/osb"
   xmlns:dc="http://purl.org/dc/elements/1.1/"
   xmlns:cc="http://creativecommons.org/ns#"
   xmlns:rdf="http://www.w3.org/1999/02/22-rdf-syntax-ns#"
   xmlns:svg="http://www.w3.org/2000/svg"
   xmlns="http://www.w3.org/2000/svg"
   xml:space="preserve"
   style="enable-background:new 0 0 595.28 127.56;"
   viewBox="0 0 600 135"
   y="0px"
   x="0px"
   id="Layer_1"
   version="1.1"><metadata
   id="metadata2372"><rdf:RDF><cc:Work
       rdf:about=""><dc:format>image/svg+xml</dc:format><dc:type
         rdf:resource="http://purl.org/dc/dcmitype/StillImage" /><dc:title></dc:title></cc:Work></rdf:RDF></metadata><defs
   id="defs2370"><linearGradient
     osb:paint="solid"
     id="linearGradient3877"><stop
       id="stop3875"
       offset="0"
       style="stop-color:#808285;stop-opacity:1;" /></linearGradient><clipPath
     id="clipPath2379"
     clipPathUnits="userSpaceOnUse"><g
       style="fill:#808285;fill-opacity:1;fill-rule:nonzero;stroke:#230065;stroke-width:0;stroke-miterlimit:4;stroke-dasharray:none;stroke-opacity:0.99607843"
       id="use2381"><path
         style="fill:#808285;fill-opacity:1;fill-rule:nonzero;stroke:#230065;stroke-width:0;stroke-miterlimit:4;stroke-dasharray:none;stroke-opacity:0.99607843"
         class="st0"
         d="m 588.34,94.29 c 0,13.28 -10.77,24.04 -24.04,24.04 H 31.38 C 18.1,118.33 7.34,107.57 7.34,94.29 V 32.38 C 7.34,19.1 18.1,8.34 31.38,8.34 h 532.91 c 13.28,0 24.04,10.76 24.04,24.04 V 94.29 Z M 159.44,69.66 c 0,17.15 11.68,19.07 21.89,19.07 h 14.23 c 14.6,0 23.44,-3.2 23.44,-13.87 v -0.91 h -7.84 c -0.45,7.11 -4.47,8.39 -14.32,8.39 h -10.76 c -13.68,0 -18.79,-2.74 -18.79,-13.32 V 66.65 H 219 V 60.9 C 219,44.3 208.88,40.74 194.83,40.74 h -12.59 c -11.12,0 -22.8,1.92 -22.8,18.79 z m 51.72,-9.95 h -43.87 c 0.73,-10.58 3.65,-12.59 16.05,-12.59 h 11.49 c 12.77,0 16.33,4.74 16.33,9.49 z m 18.62,10.13 c 0,15.33 10.86,18.88 25.73,18.88 h 11.22 c 14.87,0 25.72,-3.56 25.72,-18.88 V 59.62 c 0,-15.32 -10.85,-18.88 -25.72,-18.88 h -11.22 c -14.87,0 -25.73,3.56 -25.73,18.88 z m 54.82,-0.46 c 0,10.86 -6.38,12.95 -15.51,12.95 h -15.96 c -9.12,0 -15.51,-2.09 -15.51,-12.95 v -9.31 c 0,-10.85 6.39,-12.95 15.51,-12.95 h 15.96 c 9.12,0 15.51,2.1 15.51,12.95 z m 173.79,18.61 v -31.2 c 0,-13.87 -9.85,-16.06 -24.45,-16.06 h -12.41 c -14.05,0 -19.43,3.47 -19.43,11.95 v 2.28 h 7.84 v -1.64 c 0,-3.83 1.92,-6.2 11.77,-6.2 h 11.49 c 12.04,0 17.33,1.09 17.33,9.49 v 8.76 h -0.18 c -2.74,-4.47 -6.39,-5.56 -16.6,-5.56 H 421.16 C 407.48,59.81 400,61.09 400,71.67 v 3.1 c 0,8.76 3.1,13.96 14.96,13.96 h 18.79 z m -7.84,-12.5 c 0,5.84 -5.47,6.84 -19.7,6.84 h -10.4 c -10.76,0 -12.59,-2.19 -12.59,-7.39 v -1.46 c 0,-5.84 2.83,-7.3 12.95,-7.3 h 12.04 c 12.04,0 17.7,0.82 17.7,7.2 z M 73.6,66.69 h 10.88 l 5.03,0.01 h 48.67 v 2.41 c 0,9.12 -5.47,12.23 -14.41,12.23 H 88.83 c -8.58,0 -15.51,-2.55 -15.51,-14.05 v -0.35 -0.26 z m -9.16,-0.01 c 0,0.06 0,0.14 0,0.2 0.67,14.68 6.68,21.76 23.47,21.76 h 36.85 c 16.51,0 22.35,-6.39 22.35,-24.36 V 59.4 H 89.51 L 85.39,59.39 H 73.32 v -0.01 -16.9 c 0,-11.49 6.93,-14.05 15.51,-14.05 H 112 c 22.07,0 25.81,0.91 25.81,13.23 h 8.39 v -2.37 c 0,-15.23 -12.68,-18.15 -24.54,-18.15 H 87.92 c -17.88,0 -23.53,8.03 -23.53,24.72 V 59.39 L 64.38,59.4 H 44.6 c -11.86,0 -24.54,2.92 -24.54,18.15 v 2.37 5.02 2.37 c 0,15.24 12.68,18.16 24.54,18.16 h 40.79 432.59 34.03 c 17.88,0 23.54,-8.03 23.54,-24.72 V 45.88 c 0,-16.69 -5.65,-24.72 -23.54,-24.72 l -0.16,-0.02 h -223 c -17.88,0 -23.53,8.03 -23.53,24.72 v 18.06 c 0,16.69 5.65,24.72 23.53,24.72 h 36.85 c 16.51,0 22.35,-6.39 22.35,-24.36 V 59.4 h -42.78 v 7.3 h 33.84 v 2.41 c 0,9.12 -5.47,12.23 -14.41,12.23 h -34.94 c -8.58,0 -15.5,-2.55 -15.5,-14.05 V 42.48 c 0,-11.49 6.93,-14.05 15.5,-14.05 l 142.5,0.02 v 61.24 l 24.35,0.73 h 10.95 c 14.23,0 24.18,-3.56 24.18,-19.61 V 62.6 c 0,-14.87 -5.75,-20.16 -24.63,-20.16 h -11.95 -14.88 -0.17 l -0.02,-14.01 h 71.75 l -0.75,0.02 c 8.58,0 15.51,2.55 15.51,14.04 v 41.62 c 0,11.49 -6.93,14.05 -15.51,14.05 H 518.97 86.87 54.27 c -22.08,0 -25.81,-0.91 -25.81,-13.23 v -5.02 c 0,-12.31 3.74,-13.23 25.81,-13.23 h 9.84 z m 459.45,4.04 c 0,9.03 -2.83,13.32 -15.6,13.32 h -12.77 c -11.67,0 -15.42,-4.93 -15.42,-13.41 v -8.85 c 0,-11.13 6.48,-12.95 17.06,-12.95 h 10.58 c 10.76,0 16.14,2.01 16.14,12.77 v 9.12 z"
         id="path3935" /><path
         style="opacity:1;fill:#ffffff;fill-opacity:1;fill-rule:nonzero;stroke:#230065;stroke-width:0;stroke-miterlimit:4;stroke-dasharray:none;stroke-opacity:0.99607843"
         class="st0"
         d="m 611.07375,-48.387188 c 0,13.28 -10.77,24.039999 -24.04,24.039999 H 54.113747 c -13.27999,0 -24.04,-10.76 -24.04,-24.039999 v -61.910002 c 0,-13.28 10.76001,-24.04 24.04,-24.04 H 587.02375 c 13.28,0 24.04,10.76 24.04,24.04 v 61.910002 z"
         id="path3937" /></g></clipPath><clipPath
     id="clipPath2398"
     clipPathUnits="userSpaceOnUse"><g
       id="use2400"
       style="fill:#268298;fill-opacity:1"><g
         id="g3959"
         clip-path="url(#clipPath2407)"
         style="fill:#268298;fill-opacity:1"><g
           id="g3957"
           style="fill:#268298;fill-opacity:1"><rect
             style="opacity:1;fill:#268298;fill-opacity:1;stroke:#000000;stroke-opacity:1"
             id="rect3955"
             width="350.98587"
             height="147.57361"
             x="95.224861"
             y="-97.290329" /></g></g></g></clipPath><clipPath
     id="clipPath2407"
     clipPathUnits="userSpaceOnUse"><g
       id="use2409"
       style="fill:#268298;fill-opacity:1"><rect
         style="opacity:1;fill:#268298;fill-opacity:1;stroke:#000000;stroke-opacity:1"
         id="rect3963"
         width="350.98587"
         height="147.57361"
         x="95.224861"
         y="-97.290329" /></g></clipPath></defs>
<style
   id="style2363"
   type="text/css">
	.st0{fill:#808285;}
</style>
<path
   style="opacity:1;fill:#ffffff;fill-opacity:0.9859813;fill-rule:nonzero;stroke:#5c7823;stroke-width:0;stroke-miterlimit:4;stroke-dasharray:none;stroke-opacity:0.99607843"
   class="st0"
   d="M 600,103.51782 C 600,116.79902 588.8778,127.56 575.17384,127.56 H 24.826163 C 11.111876,127.56 5.1635108e-7,116.79902 5.1635108e-7,103.51782 V 41.602186 C 5.1635108e-7,28.320979 11.111876,17.560001 24.826163,17.560001 H 575.16351 c 13.71429,0 24.82616,10.760978 24.82616,24.042185 v 61.915634 z"
   id="path2365-0" /><path
   style="fill:#808285;fill-opacity:1;fill-rule:nonzero;stroke:#230065;stroke-width:0;stroke-miterlimit:4;stroke-dasharray:none;stroke-opacity:0.99607843"
   class="st0"
   d="M 600,103.51782 C 600,116.79902 588.8778,127.56 575.17384,127.56 H 24.826162 C 11.111877,127.56 5.1635111e-7,116.79902 5.1635111e-7,103.51782 V 41.602187 C 5.1635111e-7,28.320977 11.111876,17.559997 24.826162,17.559997 H 575.16351 c 13.71429,0 24.82616,10.76098 24.82616,24.04219 V 103.51782 Z M 157.07401,78.885567 c 0,17.15156 12.06196,19.07173 22.60585,19.07173 h 14.69535 c 15.07745,0 24.20654,-3.20029 24.20654,-13.87125 v -0.91009 h -8.09638 c -0.46472,7.11065 -4.61618,8.39076 -14.7883,8.39076 h -11.11188 c -14.12736,0 -19.40447,-2.74024 -19.40447,-13.3212 v -2.37022 h 53.40103 v -5.75052 c 0,-16.60151 -10.45094,-20.16183 -24.96041,-20.16183 h -13.00172 c -11.48365,0 -23.54561,1.92017 -23.54561,18.79171 z m 53.41136,-9.9509 h -45.30465 c 0.75387,-10.58096 3.76936,-12.59114 16.57487,-12.59114 h 11.86575 c 13.18761,0 16.86403,4.74043 16.86403,9.49086 z m 19.22891,10.13092 c 0,15.33139 11.21515,18.88171 26.57143,18.88171 h 11.58692 c 15.35629,0 26.56111,-3.56032 26.56111,-18.88171 v -10.22093 c 0,-15.32139 -11.20482,-18.88171 -26.56111,-18.88171 h -11.58692 c -15.35628,0 -26.57143,3.56032 -26.57143,18.88171 z m 56.61275,-0.46004 c 0,10.86098 -6.58865,12.95117 -16.01722,12.95117 h -16.48193 c -9.41825,0 -16.01721,-2.09019 -16.01721,-12.95117 v -9.31085 c 0,-10.85098 6.59896,-12.95117 16.01721,-12.95117 h 16.48193 c 9.41824,0 16.01722,2.10019 16.01722,12.95117 z m 179.47332,18.61169 v -31.20283 c 0,-13.87126 -10.17212,-16.06146 -25.24957,-16.06146 h -12.81584 c -14.50946,0 -20.0654,3.47031 -20.0654,11.95108 v 2.28021 h 8.09638 v -1.64015 c 0,-3.83035 1.98279,-6.20056 12.15491,-6.20056 h 11.86575 c 12.43373,0 17.89673,1.0901 17.89673,9.49086 v 8.7608 h -0.18589 c -2.8296,-4.47041 -6.59897,-5.56051 -17.14286,-5.56051 h -13.00172 c -14.12736,0 -21.85198,1.28012 -21.85198,11.86108 v 3.10028 c 0,8.76079 3.20138,13.96126 15.44923,13.96126 h 19.40447 z m -8.09639,-12.50114 c 0,5.84053 -5.64888,6.84062 -20.34423,6.84062 h -10.74011 c -11.11187,0 -13.00172,-2.19019 -13.00172,-7.39067 v -1.46013 c 0,-5.84053 2.92255,-7.30066 13.3735,-7.30066 h 12.43373 c 12.43374,0 18.27883,0.82007 18.27883,7.20065 z m -389.27711,-8.8008 h 11.2358 l 5.194492,0.01 h 50.261618 v 2.41021 c 0,9.12083 -5.64888,12.23111 -14.88124,12.23111 H 84.154905 c -8.860585,0 -16.017212,-2.55023 -16.017212,-14.05127 v -0.35003 -0.26003 z m -9.459552,-0.01 c 0,0.06 0,0.14002 0,0.20002 0.69191,14.68133 6.898451,21.76198 24.237521,21.76198 h 38.055071 c 17.04992,0 23.0809,-6.39058 23.0809,-24.36221 v -4.88045 H 84.857142 l -4.254733,-0.01 H 68.137693 v -0.01 -16.90153 c 0,-11.49104 7.156627,-14.05129 16.017212,-14.05129 h 23.927705 c 22.79174,0 26.65405,0.91009 26.65405,13.23121 h 8.66437 v -2.37021 c 0,-15.23139 -13.09466,-18.15166 -25.34251,-18.15166 H 83.215146 c -18.464717,0 -24.299483,8.03073 -24.299483,24.72226 v 13.53122 l -0.01033,0.01 h -20.42685 c -12.247849,0 -25.342513,2.92027 -25.342513,18.15165 v 2.37022 5.02045 2.37022 c 0,15.241393 13.094664,18.161653 25.342513,18.161653 h 42.123923 446.736664 35.14286 c 18.46471,0 24.30981,-8.03073 24.30981,-24.722253 v -34.87316 c 0,-16.69153 -5.83477,-24.72226 -24.30981,-24.72226 l -0.16523,-0.02 H 332.0241 c -18.46471,0 -24.29948,8.03073 -24.29948,24.72226 v 18.06163 c 0,16.69152 5.83477,24.72225 24.29948,24.72225 h 38.05508 c 17.04991,0 23.08089,-6.39058 23.08089,-24.36221 v -4.88045 h -44.179 v 7.30067 h 34.94664 v 2.41021 c 0,9.12083 -5.64888,12.23111 -14.88123,12.23111 h -36.08262 c -8.86059,0 -16.00688,-2.55023 -16.00688,-14.05127 v -24.81225 c 0,-11.49104 7.15662,-14.05129 16.00688,-14.05129 l 147.16007,0.02 v 61.24556 l 25.14629,0.73007 h 11.30809 c 14.69536,0 24.97074,-3.56033 24.97074,-19.61178 v -8.21075 c 0,-14.87135 -5.93803,-20.16183 -25.43545,-20.16183 h -12.34079 -15.36661 -0.17556 l -0.0207,-14.01128 h 74.09639 l -0.77453,0.02 c 8.86059,0 16.01721,2.55024 16.01721,14.04128 v 41.62378 c 0,11.491053 -7.15662,14.051283 -16.01721,14.051283 H 528.36145 82.130808 48.464716 c -22.802065,0 -26.654044,-0.91008 -26.654044,-13.231213 v -5.02046 c 0,-12.31111 3.862306,-13.2312 26.654044,-13.2312 h 10.161789 z m 474.475042,4.04037 c 0,9.03082 -2.92255,13.32121 -16.11015,13.32121 h -13.18761 c -12.05164,0 -15.92427,-4.93045 -15.92427,-13.41122 v -8.8508 c 0,-11.13101 6.69191,-12.95118 17.6179,-12.95118 h 10.92599 c 11.11188,0 16.66781,2.01019 16.66781,12.77116 v 9.12083 z"
   id="path2365" />
</svg>
