<?xml version="1.0" encoding="utf-8"?>
<!-- Generator: Adobe Illustrator 24.2.3, SVG Export Plug-In . SVG Version: 6.00 Build 0)  -->
<svg version="1.1" id="Layer_1" xmlns="http://www.w3.org/2000/svg" xmlns:xlink="http://www.w3.org/1999/xlink" x="0px" y="0px"
	 width="288px" height="288px" viewBox="0 0 288 288" style="enable-background:new 0 0 288 288;" xml:space="preserve">
<style type="text/css">
	.st0{fill:none;stroke:#E82429;stroke-miterlimit:10;}
	.st1{fill:none;stroke:#E82429;stroke-width:0.9999;stroke-miterlimit:10;}
	.st2{fill:#231F20;}
	.st3{fill:none;stroke:#231F20;stroke-miterlimit:10;}
</style>
<g>
	<g>
		<rect x="55.888" y="99.803" class="st0" width="41.1" height="19"/>
		<polygon class="st0" points="101.188,142.003 119.688,142.003 119.688,123.003 101.188,123.003 96.988,123.003 55.888,123.003 
			55.888,142.003 96.988,142.003 		"/>
		<rect x="123.888" y="146.303" class="st0" width="41.1" height="19"/>
		<rect x="55.888" y="192.803" class="st0" width="41.1" height="19"/>
		<rect x="123.888" y="169.503" class="st0" width="41.1" height="19"/>
		<polygon class="st0" points="169.288,118.803 187.688,118.803 187.688,99.803 146.588,99.803 142.288,99.803 101.188,99.803 
			101.188,118.803 119.688,118.803 123.888,118.803 164.988,118.803 		"/>
		<polygon class="st0" points="74.388,146.303 55.888,146.303 55.888,165.303 119.688,165.303 119.688,146.303 78.588,146.303 		"/>
		<rect x="123.888" y="123.003" class="st0" width="41.1" height="19"/>
		<polygon class="st0" points="101.188,95.603 142.288,95.603 142.288,76.603 101.188,76.603 96.988,76.603 55.888,76.603 
			55.888,95.603 96.988,95.603 		"/>
		<polygon class="st0" points="96.988,216.003 55.888,216.003 55.888,235.003 142.288,235.003 142.288,216.003 101.188,216.003 		
			"/>
		<rect x="55.888" y="53.303" class="st0" width="41.1" height="19"/>
		<polygon class="st0" points="187.688,76.603 146.588,76.603 146.588,95.603 187.688,95.603 191.888,95.603 232.988,95.603 
			232.988,76.603 191.888,76.603 		"/>
		<rect x="191.988" y="192.803" class="st0" width="41.1" height="19"/>
		<polygon class="st0" points="146.588,72.303 187.688,72.303 187.688,53.303 101.188,53.303 101.188,72.303 142.288,72.303 		"/>
		<rect x="191.888" y="99.803" class="st0" width="41.1" height="19"/>
		<rect x="191.888" y="53.303" class="st0" width="41.1" height="19"/>
		<polygon class="st0" points="187.688,123.003 169.288,123.003 169.288,142.003 232.988,142.003 232.988,123.003 191.888,123.003 
					"/>
		<rect x="146.588" y="216.003" class="st0" width="86.5" height="19"/>
		<polygon class="st0" points="119.688,188.503 119.688,169.503 55.888,169.503 55.888,188.503 96.988,188.503 101.288,188.503 		
			"/>
		<rect x="169.288" y="146.303" class="st0" width="63.8" height="19"/>
		<polygon class="st0" points="119.588,192.803 101.188,192.803 101.188,211.803 187.588,211.803 187.588,192.803 123.888,192.803 
					"/>
		<rect x="169.288" y="169.503" class="st0" width="63.8" height="19"/>
	</g>
	<rect x="31.102" y="30.767" class="st1" width="226.772" height="226.772"/>
</g>
<g>
	<path class="st2" d="M62.154,59.463c0-0.184,0.006-0.321,0.018-0.414c0.012-0.092,0.05-0.197,0.114-0.317
		c0.112-0.217,0.424-0.324,0.936-0.324c0.56,0,0.892,0.148,0.996,0.444c0.04,0.136,0.06,0.344,0.06,0.624v6.672
		c0,0.191-0.006,0.332-0.018,0.42c-0.012,0.088-0.05,0.191-0.114,0.312c-0.112,0.216-0.424,0.324-0.936,0.324
		c-0.56,0-0.888-0.152-0.984-0.456c-0.048-0.128-0.072-0.332-0.072-0.612V59.463z"/>
	<path class="st2" d="M67.014,58.395h6.672c0.256,0,0.444,0.029,0.564,0.09c0.12,0.06,0.2,0.154,0.24,0.282
		c0.04,0.128,0.06,0.296,0.06,0.504s-0.02,0.374-0.06,0.498c-0.041,0.124-0.108,0.21-0.204,0.258
		c-0.144,0.072-0.348,0.107-0.612,0.107h-2.292v6.036c0,0.185-0.006,0.32-0.018,0.408c-0.012,0.088-0.048,0.19-0.108,0.306
		c-0.06,0.116-0.166,0.198-0.318,0.246s-0.352,0.072-0.6,0.072s-0.446-0.024-0.594-0.072c-0.148-0.048-0.252-0.13-0.312-0.246
		c-0.06-0.115-0.096-0.22-0.108-0.312c-0.012-0.092-0.018-0.23-0.018-0.414v-6.024h-2.304c-0.256,0-0.444-0.029-0.564-0.09
		c-0.12-0.06-0.2-0.153-0.24-0.282c-0.041-0.128-0.06-0.296-0.06-0.504s0.02-0.374,0.06-0.498c0.04-0.124,0.108-0.21,0.204-0.258
		C66.546,58.431,66.75,58.395,67.014,58.395z"/>
	<path class="st2" d="M80.646,59.463c0-0.184,0.006-0.321,0.018-0.414c0.012-0.092,0.05-0.197,0.114-0.317
		c0.112-0.217,0.424-0.324,0.936-0.324c0.56,0,0.892,0.148,0.996,0.444c0.04,0.136,0.06,0.344,0.06,0.624v6.672
		c0,0.191-0.006,0.332-0.018,0.42c-0.012,0.088-0.05,0.191-0.114,0.312c-0.112,0.216-0.424,0.324-0.936,0.324
		c-0.56,0-0.888-0.152-0.984-0.456c-0.048-0.128-0.072-0.332-0.072-0.612V59.463z"/>
	<path class="st2" d="M85.061,65.967c-0.208-0.256-0.312-0.485-0.312-0.689s0.172-0.475,0.516-0.811
		c0.2-0.191,0.412-0.288,0.636-0.288c0.224,0,0.536,0.2,0.936,0.601c0.112,0.136,0.271,0.266,0.48,0.39
		c0.208,0.124,0.4,0.187,0.576,0.187c0.744,0,1.116-0.305,1.116-0.912c0-0.185-0.102-0.338-0.306-0.462
		c-0.204-0.124-0.458-0.214-0.762-0.271c-0.304-0.056-0.632-0.146-0.984-0.27s-0.68-0.271-0.984-0.438s-0.558-0.434-0.762-0.798
		c-0.204-0.364-0.306-0.802-0.306-1.313c0-0.704,0.262-1.318,0.786-1.843c0.524-0.523,1.238-0.786,2.142-0.786
		c0.48,0,0.918,0.062,1.314,0.187c0.396,0.124,0.67,0.25,0.822,0.378l0.3,0.228c0.248,0.232,0.372,0.429,0.372,0.589
		s-0.096,0.38-0.288,0.659c-0.272,0.4-0.552,0.601-0.84,0.601c-0.168,0-0.376-0.08-0.624-0.24c-0.024-0.016-0.07-0.056-0.138-0.12
		c-0.068-0.063-0.13-0.115-0.186-0.156c-0.168-0.104-0.382-0.155-0.642-0.155c-0.26,0-0.476,0.062-0.648,0.186
		c-0.172,0.124-0.258,0.296-0.258,0.517c0,0.22,0.102,0.397,0.306,0.533c0.204,0.137,0.458,0.229,0.762,0.276
		c0.304,0.048,0.636,0.122,0.996,0.222c0.36,0.101,0.692,0.223,0.996,0.366c0.304,0.145,0.558,0.395,0.762,0.75
		c0.204,0.356,0.306,0.794,0.306,1.314c0,0.52-0.104,0.978-0.312,1.374c-0.208,0.396-0.48,0.701-0.816,0.918
		c-0.648,0.424-1.34,0.636-2.076,0.636c-0.376,0-0.732-0.046-1.068-0.138c-0.336-0.093-0.608-0.206-0.816-0.343
		c-0.424-0.256-0.72-0.504-0.888-0.743L85.061,65.967z"/>
</g>
<g>
	<path class="st2" d="M132.579,58.659c0.064-0.12,0.172-0.204,0.324-0.252c0.152-0.049,0.344-0.072,0.576-0.072
		s0.416,0.02,0.552,0.06c0.136,0.04,0.24,0.089,0.312,0.145c0.072,0.056,0.128,0.136,0.168,0.24c0.04,0.136,0.06,0.344,0.06,0.624
		v6.659c0,0.185-0.006,0.322-0.018,0.414c-0.012,0.093-0.05,0.198-0.114,0.318c-0.112,0.216-0.424,0.324-0.936,0.324
		c-0.56,0-0.888-0.148-0.984-0.444c-0.048-0.136-0.072-0.344-0.072-0.624v-2.436h-3.18v2.447c0,0.185-0.006,0.322-0.018,0.414
		c-0.012,0.093-0.05,0.198-0.114,0.318c-0.112,0.216-0.424,0.324-0.936,0.324c-0.56,0-0.888-0.148-0.984-0.444
		c-0.048-0.136-0.072-0.344-0.072-0.624v-6.66c0-0.184,0.006-0.321,0.018-0.414c0.012-0.092,0.05-0.197,0.114-0.317
		c0.112-0.217,0.424-0.324,0.936-0.324c0.56,0,0.892,0.148,0.996,0.444c0.04,0.136,0.06,0.344,0.06,0.624v2.447h3.18v-2.46
		c0-0.184,0.006-0.321,0.018-0.414C132.477,58.885,132.515,58.779,132.579,58.659z"/>
	<path class="st2" d="M141.807,58.959l3.24,6.696c0.136,0.271,0.204,0.476,0.204,0.611c0,0.288-0.232,0.548-0.696,0.78
		c-0.272,0.136-0.486,0.204-0.642,0.204c-0.156,0-0.284-0.036-0.384-0.108c-0.1-0.071-0.172-0.147-0.216-0.228
		s-0.106-0.2-0.186-0.36l-0.624-1.296h-3.324l-0.624,1.296c-0.08,0.16-0.142,0.276-0.186,0.349
		c-0.044,0.071-0.116,0.146-0.216,0.222s-0.228,0.114-0.384,0.114c-0.156,0-0.37-0.068-0.642-0.204
		c-0.464-0.225-0.696-0.48-0.696-0.769c0-0.136,0.068-0.34,0.204-0.611l3.24-6.708c0.088-0.185,0.222-0.332,0.402-0.444
		c0.18-0.112,0.37-0.168,0.57-0.168C141.279,58.335,141.598,58.543,141.807,58.959z M140.835,61.839l-0.792,1.644h1.596
		L140.835,61.839z"/>
	<path class="st2" d="M149.235,65.354h3.264c0.264,0,0.456,0.03,0.576,0.091c0.12,0.06,0.2,0.153,0.24,0.281s0.06,0.299,0.06,0.511
		s-0.02,0.382-0.06,0.51s-0.108,0.216-0.204,0.264c-0.152,0.08-0.36,0.12-0.624,0.12h-4.32c-0.56,0-0.888-0.152-0.984-0.456
		c-0.048-0.128-0.072-0.332-0.072-0.612v-6.672c0-0.184,0.006-0.321,0.018-0.414c0.012-0.092,0.05-0.197,0.114-0.317
		c0.112-0.217,0.424-0.324,0.936-0.324c0.56,0,0.892,0.148,0.996,0.444c0.04,0.136,0.06,0.344,0.06,0.624V65.354z"/>
	<path class="st2" d="M161.175,58.335c0.184,0,0.322,0.006,0.414,0.018c0.092,0.013,0.196,0.051,0.312,0.114
		c0.116,0.064,0.198,0.172,0.246,0.324s0.072,0.355,0.072,0.612c0,0.256-0.024,0.46-0.072,0.611
		c-0.048,0.152-0.132,0.258-0.252,0.318c-0.12,0.06-0.226,0.096-0.318,0.107c-0.092,0.013-0.234,0.019-0.426,0.019h-3.672v1.212
		h2.364c0.192,0,0.334,0.006,0.426,0.018c0.092,0.013,0.198,0.051,0.318,0.114c0.208,0.12,0.312,0.437,0.312,0.948
		c0,0.56-0.152,0.892-0.456,0.996c-0.128,0.04-0.332,0.06-0.612,0.06h-2.352v2.269c0,0.191-0.006,0.332-0.018,0.42
		c-0.012,0.088-0.05,0.191-0.114,0.312c-0.112,0.216-0.424,0.324-0.936,0.324c-0.56,0-0.888-0.152-0.984-0.456
		c-0.048-0.128-0.072-0.332-0.072-0.612v-6.672c0-0.408,0.076-0.686,0.228-0.834c0.152-0.147,0.44-0.222,0.864-0.222H161.175z"/>
</g>
<g>
	<path class="st2" d="M200.185,58.389h6.672c0.256,0,0.444,0.029,0.564,0.09c0.12,0.06,0.2,0.154,0.24,0.282
		c0.04,0.128,0.06,0.296,0.06,0.504s-0.02,0.374-0.06,0.498c-0.041,0.124-0.108,0.21-0.204,0.258
		c-0.144,0.072-0.348,0.107-0.612,0.107h-2.292v6.036c0,0.185-0.006,0.32-0.018,0.408c-0.012,0.088-0.048,0.19-0.108,0.306
		c-0.06,0.116-0.166,0.198-0.318,0.246s-0.352,0.072-0.6,0.072s-0.446-0.024-0.594-0.072c-0.148-0.048-0.252-0.13-0.312-0.246
		c-0.06-0.115-0.096-0.22-0.108-0.312c-0.012-0.092-0.018-0.23-0.018-0.414v-6.024h-2.304c-0.256,0-0.444-0.029-0.564-0.09
		c-0.12-0.06-0.2-0.153-0.24-0.282c-0.041-0.128-0.06-0.296-0.06-0.504s0.02-0.374,0.06-0.498c0.04-0.124,0.108-0.21,0.204-0.258
		C199.716,58.424,199.921,58.389,200.185,58.389z"/>
	<path class="st2" d="M211.704,65.073h3.696c0.184,0,0.322,0.006,0.414,0.018c0.092,0.013,0.198,0.051,0.318,0.114
		c0.216,0.112,0.324,0.424,0.324,0.937c0,0.56-0.148,0.888-0.444,0.983c-0.136,0.048-0.344,0.072-0.624,0.072h-4.752
		c-0.56,0-0.888-0.152-0.984-0.456c-0.048-0.128-0.072-0.332-0.072-0.612v-6.672c0-0.408,0.076-0.686,0.228-0.834
		c0.152-0.147,0.44-0.222,0.864-0.222h4.728c0.184,0,0.322,0.006,0.414,0.018c0.092,0.013,0.198,0.051,0.318,0.114
		c0.216,0.112,0.324,0.424,0.324,0.937c0,0.56-0.148,0.888-0.444,0.983c-0.136,0.048-0.344,0.072-0.624,0.072h-3.684v1.212h2.376
		c0.184,0,0.322,0.006,0.414,0.018c0.092,0.013,0.198,0.051,0.318,0.114c0.216,0.112,0.324,0.424,0.324,0.937
		c0,0.56-0.152,0.888-0.456,0.983c-0.136,0.048-0.344,0.072-0.624,0.072h-2.352V65.073z"/>
	<path class="st2" d="M224.118,58.767c0.076-0.141,0.19-0.234,0.342-0.282s0.342-0.072,0.57-0.072c0.228,0,0.412,0.021,0.552,0.061
		s0.244,0.088,0.312,0.144s0.118,0.141,0.15,0.252c0.048,0.128,0.072,0.332,0.072,0.612v6.66c0,0.191-0.006,0.332-0.018,0.42
		c-0.012,0.088-0.05,0.191-0.114,0.312c-0.112,0.216-0.424,0.324-0.936,0.324c-0.312,0-0.528-0.024-0.648-0.072
		c-0.12-0.048-0.22-0.124-0.3-0.228c-1.8-2.4-2.984-3.968-3.552-4.704v3.948c0,0.191-0.006,0.332-0.018,0.42
		c-0.012,0.088-0.05,0.191-0.114,0.312c-0.112,0.216-0.424,0.324-0.936,0.324c-0.496,0-0.8-0.108-0.912-0.324
		c-0.064-0.12-0.102-0.228-0.114-0.324c-0.012-0.096-0.018-0.235-0.018-0.42v-6.695c0-0.305,0.038-0.526,0.114-0.666
		c0.076-0.141,0.19-0.234,0.342-0.282s0.348-0.072,0.588-0.072c0.24,0,0.43,0.022,0.57,0.066c0.14,0.044,0.238,0.094,0.294,0.149
		c0.032,0.024,0.124,0.129,0.276,0.312c1.688,2.296,2.816,3.812,3.384,4.548v-4.056C224.004,59.128,224.042,58.907,224.118,58.767z"
		/>
</g>
<g>
	<path class="st2" d="M75.291,88.03c0.368,0.248,0.632,0.428,0.792,0.54c0.288,0.216,0.432,0.422,0.432,0.617
		c0,0.196-0.12,0.471-0.36,0.822c-0.24,0.353-0.484,0.528-0.732,0.528c-0.152,0-0.384-0.108-0.696-0.324
		c-0.041-0.023-0.152-0.1-0.336-0.228s-0.328-0.225-0.432-0.288c-0.744,0.576-1.58,0.863-2.508,0.863
		c-1.24,0-2.286-0.439-3.138-1.319s-1.278-1.928-1.278-3.145c0-0.664,0.12-1.285,0.36-1.865c0.24-0.58,0.56-1.066,0.96-1.458
		c0.4-0.393,0.86-0.7,1.38-0.925c0.52-0.224,1.056-0.336,1.608-0.336c1.184,0,2.212,0.429,3.084,1.284
		c0.872,0.856,1.308,1.94,1.308,3.252C75.735,86.713,75.587,87.373,75.291,88.03z M69.159,86.038c0,0.712,0.23,1.29,0.69,1.733
		c0.46,0.444,0.974,0.666,1.542,0.666c0.568,0,1.08-0.216,1.536-0.647s0.684-1.012,0.684-1.74c0-0.728-0.23-1.312-0.69-1.752
		c-0.46-0.439-0.974-0.66-1.542-0.66c-0.568,0-1.08,0.223-1.536,0.666C69.387,84.747,69.159,85.326,69.159,86.038z"/>
	<path class="st2" d="M83.643,81.946c0.08-0.128,0.196-0.217,0.348-0.265c0.152-0.048,0.342-0.071,0.57-0.071s0.41,0.02,0.546,0.06
		s0.24,0.088,0.312,0.145c0.072,0.056,0.124,0.14,0.156,0.252c0.048,0.136,0.072,0.344,0.072,0.624v3.624
		c0,1.056-0.328,2.016-0.984,2.88c-0.32,0.407-0.732,0.737-1.236,0.989c-0.504,0.252-1.062,0.378-1.674,0.378
		c-0.612,0-1.168-0.128-1.668-0.384s-0.906-0.592-1.218-1.008c-0.648-0.848-0.972-1.808-0.972-2.88v-3.612
		c0-0.191,0.006-0.334,0.018-0.426c0.012-0.092,0.05-0.198,0.114-0.318c0.064-0.119,0.172-0.204,0.324-0.252
		s0.356-0.071,0.612-0.071s0.46,0.023,0.612,0.071c0.152,0.048,0.256,0.133,0.312,0.252c0.096,0.185,0.144,0.437,0.144,0.757v3.6
		c0,0.488,0.12,0.952,0.36,1.392c0.12,0.225,0.3,0.404,0.54,0.54c0.24,0.137,0.524,0.204,0.852,0.204
		c0.583,0,1.02-0.216,1.308-0.647c0.288-0.433,0.432-0.933,0.432-1.5v-3.672C83.522,82.293,83.563,82.074,83.643,81.946z"/>
	<path class="st2" d="M92.283,82.246l3.24,6.696c0.136,0.271,0.204,0.476,0.204,0.611c0,0.288-0.232,0.548-0.696,0.78
		c-0.272,0.136-0.486,0.204-0.642,0.204c-0.156,0-0.284-0.036-0.384-0.108c-0.1-0.071-0.172-0.147-0.216-0.228
		s-0.106-0.2-0.186-0.36l-0.624-1.296h-3.324l-0.624,1.296c-0.08,0.16-0.142,0.276-0.186,0.349
		c-0.044,0.071-0.116,0.146-0.216,0.222s-0.228,0.114-0.384,0.114c-0.156,0-0.37-0.068-0.642-0.204
		c-0.464-0.225-0.696-0.48-0.696-0.769c0-0.136,0.068-0.34,0.204-0.611l3.24-6.708c0.088-0.185,0.222-0.332,0.402-0.444
		c0.18-0.112,0.37-0.168,0.57-0.168C91.755,81.621,92.075,81.829,92.283,82.246z M91.311,85.125l-0.792,1.644h1.596L91.311,85.125z"
		/>
	<path class="st2" d="M104.319,88.929c0.12,0.288,0.18,0.496,0.18,0.624c0,0.305-0.248,0.561-0.744,0.769
		c-0.256,0.111-0.462,0.168-0.618,0.168c-0.156,0-0.284-0.038-0.384-0.114s-0.174-0.154-0.222-0.234
		c-0.08-0.151-0.392-0.876-0.936-2.172l-0.372,0.024h-1.512v1.355c0,0.185-0.006,0.322-0.018,0.414
		c-0.012,0.093-0.05,0.198-0.114,0.318c-0.112,0.216-0.424,0.324-0.936,0.324c-0.56,0-0.888-0.148-0.984-0.444
		c-0.048-0.136-0.072-0.344-0.072-0.624v-6.66c0-0.184,0.006-0.321,0.018-0.414c0.012-0.092,0.05-0.197,0.114-0.317
		c0.112-0.217,0.424-0.324,0.936-0.324h2.592c0.704,0,1.388,0.256,2.052,0.768c0.32,0.248,0.584,0.584,0.792,1.009
		c0.208,0.424,0.312,0.896,0.312,1.416c0,0.903-0.3,1.647-0.9,2.231C103.679,87.469,103.951,88.097,104.319,88.929z M99.711,85.87
		h1.536c0.232,0,0.464-0.088,0.696-0.264c0.232-0.177,0.348-0.44,0.348-0.792c0-0.353-0.116-0.618-0.348-0.799
		c-0.232-0.18-0.472-0.27-0.72-0.27h-1.512V85.87z"/>
	<path class="st2" d="M106.455,81.61h6.672c0.256,0,0.444,0.029,0.564,0.09c0.12,0.06,0.2,0.154,0.24,0.282
		c0.04,0.128,0.06,0.296,0.06,0.504s-0.02,0.374-0.06,0.498c-0.041,0.124-0.108,0.21-0.204,0.258
		c-0.144,0.072-0.348,0.107-0.612,0.107h-2.292v6.036c0,0.185-0.006,0.32-0.018,0.408c-0.012,0.088-0.048,0.19-0.108,0.306
		c-0.06,0.116-0.166,0.198-0.318,0.246s-0.352,0.072-0.6,0.072s-0.446-0.024-0.594-0.072c-0.148-0.048-0.252-0.13-0.312-0.246
		c-0.06-0.115-0.096-0.22-0.108-0.312c-0.012-0.092-0.018-0.23-0.018-0.414v-6.024h-2.304c-0.256,0-0.444-0.029-0.564-0.09
		c-0.12-0.06-0.2-0.153-0.24-0.282c-0.041-0.128-0.06-0.296-0.06-0.504s0.02-0.374,0.06-0.498c0.04-0.124,0.108-0.21,0.204-0.258
		C105.987,81.645,106.191,81.61,106.455,81.61z"/>
	<path class="st2" d="M117.975,88.293h3.696c0.184,0,0.322,0.006,0.414,0.018c0.092,0.013,0.198,0.051,0.318,0.114
		c0.216,0.112,0.324,0.424,0.324,0.937c0,0.56-0.148,0.888-0.444,0.983c-0.136,0.048-0.344,0.072-0.624,0.072h-4.752
		c-0.56,0-0.888-0.152-0.984-0.456c-0.048-0.128-0.072-0.332-0.072-0.612v-6.672c0-0.408,0.076-0.686,0.228-0.834
		c0.152-0.147,0.44-0.222,0.864-0.222h4.728c0.184,0,0.322,0.006,0.414,0.018c0.092,0.013,0.198,0.051,0.318,0.114
		c0.216,0.112,0.324,0.424,0.324,0.937c0,0.56-0.148,0.888-0.444,0.983c-0.136,0.048-0.344,0.072-0.624,0.072h-3.684v1.212h2.376
		c0.184,0,0.322,0.006,0.414,0.018c0.092,0.013,0.198,0.051,0.318,0.114c0.216,0.112,0.324,0.424,0.324,0.937
		c0,0.56-0.152,0.888-0.456,0.983c-0.136,0.048-0.344,0.072-0.624,0.072h-2.352V88.293z"/>
	<path class="st2" d="M131.438,88.929c0.12,0.288,0.18,0.496,0.18,0.624c0,0.305-0.248,0.561-0.744,0.769
		c-0.256,0.111-0.462,0.168-0.618,0.168c-0.156,0-0.284-0.038-0.384-0.114s-0.174-0.154-0.222-0.234
		c-0.08-0.151-0.392-0.876-0.936-2.172l-0.372,0.024h-1.512v1.355c0,0.185-0.006,0.322-0.018,0.414
		c-0.012,0.093-0.05,0.198-0.114,0.318c-0.112,0.216-0.424,0.324-0.936,0.324c-0.56,0-0.888-0.148-0.984-0.444
		c-0.048-0.136-0.072-0.344-0.072-0.624v-6.66c0-0.184,0.006-0.321,0.018-0.414c0.012-0.092,0.05-0.197,0.114-0.317
		c0.112-0.217,0.424-0.324,0.936-0.324h2.592c0.704,0,1.388,0.256,2.052,0.768c0.32,0.248,0.584,0.584,0.792,1.009
		c0.208,0.424,0.312,0.896,0.312,1.416c0,0.903-0.3,1.647-0.9,2.231C130.798,87.469,131.07,88.097,131.438,88.929z M126.831,85.87
		h1.536c0.232,0,0.464-0.088,0.696-0.264c0.232-0.177,0.348-0.44,0.348-0.792c0-0.353-0.116-0.618-0.348-0.799
		c-0.232-0.18-0.472-0.27-0.72-0.27h-1.512V85.87z"/>
</g>
<g>
	<path class="st2" d="M161.062,81.681h6.672c0.256,0,0.444,0.029,0.564,0.09c0.12,0.06,0.2,0.154,0.24,0.282
		c0.04,0.128,0.06,0.296,0.06,0.504s-0.02,0.374-0.06,0.498c-0.041,0.124-0.108,0.21-0.204,0.258
		c-0.144,0.072-0.348,0.107-0.612,0.107h-2.292v6.036c0,0.185-0.006,0.32-0.018,0.408c-0.012,0.088-0.048,0.19-0.108,0.306
		c-0.06,0.116-0.166,0.198-0.318,0.246s-0.352,0.072-0.6,0.072s-0.446-0.024-0.594-0.072c-0.148-0.048-0.252-0.13-0.312-0.246
		c-0.06-0.115-0.096-0.22-0.108-0.312c-0.012-0.092-0.018-0.23-0.018-0.414V83.42h-2.304c-0.256,0-0.444-0.029-0.564-0.09
		c-0.12-0.06-0.2-0.153-0.24-0.282c-0.041-0.128-0.06-0.296-0.06-0.504s0.02-0.374,0.06-0.498c0.04-0.124,0.108-0.21,0.204-0.258
		C160.594,81.716,160.798,81.681,161.062,81.681z"/>
	<path class="st2" d="M180.981,81.741c0.536,0.192,0.804,0.448,0.804,0.768c0,0.104-0.048,0.301-0.144,0.589l-2.304,6.659
		c-0.016,0.057-0.044,0.125-0.084,0.204c-0.04,0.08-0.146,0.187-0.318,0.318c-0.172,0.132-0.376,0.198-0.612,0.198
		c-0.236,0-0.44-0.066-0.612-0.198s-0.286-0.262-0.342-0.39l-1.404-4.141c-0.888,2.624-1.34,3.96-1.356,4.008
		c-0.016,0.049-0.052,0.116-0.108,0.204c-0.056,0.089-0.12,0.168-0.192,0.24c-0.184,0.185-0.404,0.276-0.66,0.276
		s-0.466-0.061-0.63-0.181c-0.164-0.119-0.274-0.239-0.33-0.359l-0.084-0.181l-2.316-6.659c-0.088-0.265-0.132-0.46-0.132-0.589
		c0-0.319,0.268-0.571,0.804-0.756c0.232-0.079,0.442-0.12,0.63-0.12s0.332,0.064,0.432,0.192s0.19,0.324,0.27,0.588l1.32,4.008
		l1.308-3.947c0.112-0.336,0.316-0.568,0.612-0.696c0.128-0.056,0.294-0.084,0.498-0.084c0.204,0,0.394,0.065,0.57,0.198
		c0.176,0.132,0.288,0.262,0.336,0.39l1.38,4.164l1.32-4.032c0.064-0.184,0.116-0.319,0.156-0.408
		c0.04-0.088,0.114-0.174,0.222-0.258s0.242-0.126,0.402-0.126S180.766,81.661,180.981,81.741z"/>
	<path class="st2" d="M185.769,88.365h3.696c0.184,0,0.322,0.006,0.414,0.018c0.092,0.013,0.198,0.051,0.318,0.114
		c0.216,0.112,0.324,0.424,0.324,0.937c0,0.56-0.148,0.888-0.444,0.983c-0.136,0.048-0.344,0.072-0.624,0.072h-4.752
		c-0.56,0-0.888-0.152-0.984-0.456c-0.048-0.128-0.072-0.332-0.072-0.612v-6.672c0-0.408,0.076-0.686,0.228-0.834
		c0.152-0.147,0.44-0.222,0.864-0.222h4.728c0.184,0,0.322,0.006,0.414,0.018c0.092,0.013,0.198,0.051,0.318,0.114
		c0.216,0.112,0.324,0.424,0.324,0.937c0,0.56-0.148,0.888-0.444,0.983c-0.136,0.048-0.344,0.072-0.624,0.072h-3.684v1.212h2.376
		c0.184,0,0.322,0.006,0.414,0.018c0.092,0.013,0.198,0.051,0.318,0.114c0.216,0.112,0.324,0.424,0.324,0.937
		c0,0.56-0.152,0.888-0.456,0.983c-0.136,0.048-0.344,0.072-0.624,0.072h-2.352V88.365z"/>
	<path class="st2" d="M198.184,82.059c0.076-0.141,0.19-0.234,0.342-0.282s0.342-0.072,0.57-0.072c0.228,0,0.412,0.021,0.552,0.061
		s0.244,0.088,0.312,0.144s0.118,0.141,0.15,0.252c0.048,0.128,0.072,0.332,0.072,0.612v6.66c0,0.191-0.006,0.332-0.018,0.42
		c-0.012,0.088-0.05,0.191-0.114,0.312c-0.112,0.216-0.424,0.324-0.936,0.324c-0.312,0-0.528-0.024-0.648-0.072
		c-0.12-0.048-0.22-0.124-0.3-0.228c-1.8-2.4-2.984-3.968-3.552-4.704v3.948c0,0.191-0.006,0.332-0.018,0.42
		c-0.012,0.088-0.05,0.191-0.114,0.312c-0.112,0.216-0.424,0.324-0.936,0.324c-0.496,0-0.8-0.108-0.912-0.324
		c-0.064-0.12-0.102-0.228-0.114-0.324c-0.012-0.096-0.018-0.235-0.018-0.42v-6.695c0-0.305,0.038-0.526,0.114-0.666
		c0.076-0.141,0.19-0.234,0.342-0.282s0.348-0.072,0.588-0.072c0.24,0,0.43,0.022,0.57,0.066c0.14,0.044,0.238,0.094,0.294,0.149
		c0.032,0.024,0.124,0.129,0.276,0.312c1.688,2.296,2.816,3.812,3.384,4.548v-4.056C198.069,82.42,198.107,82.199,198.184,82.059z"
		/>
	<path class="st2" d="M202.917,81.681h6.672c0.256,0,0.444,0.029,0.564,0.09c0.12,0.06,0.2,0.154,0.24,0.282
		c0.04,0.128,0.06,0.296,0.06,0.504s-0.02,0.374-0.06,0.498c-0.041,0.124-0.108,0.21-0.204,0.258
		c-0.144,0.072-0.348,0.107-0.612,0.107h-2.292v6.036c0,0.185-0.006,0.32-0.018,0.408c-0.012,0.088-0.048,0.19-0.108,0.306
		c-0.06,0.116-0.166,0.198-0.318,0.246s-0.352,0.072-0.6,0.072s-0.446-0.024-0.594-0.072c-0.148-0.048-0.252-0.13-0.312-0.246
		c-0.06-0.115-0.096-0.22-0.108-0.312c-0.012-0.092-0.018-0.23-0.018-0.414V83.42h-2.304c-0.256,0-0.444-0.029-0.564-0.09
		c-0.12-0.06-0.2-0.153-0.24-0.282c-0.041-0.128-0.06-0.296-0.06-0.504s0.02-0.374,0.06-0.498c0.04-0.124,0.108-0.21,0.204-0.258
		C202.449,81.716,202.653,81.681,202.917,81.681z"/>
	<path class="st2" d="M219.297,81.861c0.392,0.272,0.588,0.536,0.588,0.792c0,0.152-0.092,0.364-0.276,0.636l-2.592,3.876v2.292
		c0,0.185-0.006,0.322-0.018,0.414s-0.05,0.198-0.114,0.318s-0.172,0.204-0.324,0.252s-0.356,0.072-0.612,0.072
		c-0.256,0-0.46-0.024-0.612-0.072s-0.26-0.134-0.324-0.258c-0.064-0.124-0.102-0.232-0.114-0.324
		c-0.012-0.092-0.018-0.234-0.018-0.426v-2.269l-2.592-3.876c-0.184-0.271-0.276-0.483-0.276-0.636c0-0.256,0.176-0.502,0.528-0.738
		c0.352-0.235,0.604-0.354,0.756-0.354s0.272,0.032,0.36,0.096c0.136,0.088,0.28,0.252,0.432,0.492l1.86,2.976l1.86-2.976
		c0.152-0.24,0.284-0.398,0.396-0.475c0.112-0.075,0.242-0.113,0.39-0.113C218.743,81.561,218.977,81.661,219.297,81.861z"/>
</g>
<g>
	<path class="st2" d="M123.67,105.22c0.064,0.12,0.102,0.228,0.114,0.324c0.012,0.096,0.018,0.235,0.018,0.42v6.66
		c0,0.552-0.152,0.876-0.456,0.972c-0.152,0.048-0.344,0.072-0.576,0.072c-0.232,0-0.417-0.021-0.552-0.061
		c-0.136-0.04-0.24-0.088-0.312-0.144c-0.072-0.056-0.128-0.136-0.168-0.24c-0.04-0.136-0.06-0.344-0.06-0.624v-4.02
		c-0.2,0.248-0.492,0.642-0.876,1.182c-0.384,0.54-0.628,0.878-0.732,1.014c-0.104,0.137-0.176,0.23-0.216,0.282
		c-0.041,0.052-0.138,0.124-0.294,0.216c-0.156,0.093-0.324,0.139-0.504,0.139c-0.18,0-0.344-0.042-0.492-0.126
		c-0.148-0.084-0.254-0.166-0.318-0.246l-0.096-0.133c-0.16-0.199-0.476-0.625-0.948-1.277s-0.728-1.002-0.768-1.05v4.044
		c0,0.184-0.006,0.322-0.018,0.414c-0.012,0.092-0.05,0.193-0.114,0.306c-0.12,0.216-0.432,0.324-0.936,0.324
		c-0.488,0-0.792-0.108-0.912-0.324c-0.064-0.112-0.102-0.216-0.114-0.312c-0.012-0.096-0.018-0.239-0.018-0.432v-6.66
		c0-0.184,0.006-0.321,0.018-0.414c0.012-0.092,0.05-0.197,0.114-0.317c0.12-0.208,0.432-0.312,0.936-0.312
		c0.216,0,0.402,0.026,0.558,0.078c0.156,0.052,0.258,0.106,0.306,0.162l0.072,0.072l2.724,3.575c1.36-1.8,2.268-2.987,2.724-3.563
		c0.136-0.216,0.458-0.324,0.966-0.324C123.247,104.895,123.557,105.004,123.67,105.22z"/>
	<path class="st2" d="M125.962,105.939c0-0.184,0.006-0.321,0.018-0.414c0.012-0.092,0.05-0.197,0.114-0.317
		c0.112-0.217,0.424-0.324,0.936-0.324c0.56,0,0.892,0.148,0.996,0.444c0.04,0.136,0.06,0.344,0.06,0.624v6.672
		c0,0.191-0.006,0.332-0.018,0.42c-0.012,0.088-0.05,0.191-0.114,0.312c-0.112,0.216-0.424,0.324-0.936,0.324
		c-0.56,0-0.888-0.152-0.984-0.456c-0.048-0.128-0.072-0.332-0.072-0.612V105.939z"/>
	<path class="st2" d="M135.927,105.25c0.076-0.141,0.19-0.234,0.342-0.282s0.342-0.072,0.57-0.072c0.228,0,0.412,0.021,0.552,0.061
		s0.244,0.088,0.312,0.144s0.118,0.141,0.15,0.252c0.048,0.128,0.072,0.332,0.072,0.612v6.66c0,0.191-0.006,0.332-0.018,0.42
		c-0.012,0.088-0.05,0.191-0.114,0.312c-0.112,0.216-0.424,0.324-0.936,0.324c-0.312,0-0.528-0.024-0.648-0.072
		c-0.12-0.048-0.22-0.124-0.3-0.228c-1.8-2.4-2.984-3.968-3.552-4.704v3.948c0,0.191-0.006,0.332-0.018,0.42
		c-0.012,0.088-0.05,0.191-0.114,0.312c-0.112,0.216-0.424,0.324-0.936,0.324c-0.496,0-0.8-0.108-0.912-0.324
		c-0.064-0.12-0.102-0.228-0.114-0.324c-0.012-0.096-0.018-0.235-0.018-0.42v-6.695c0-0.305,0.038-0.526,0.114-0.666
		c0.076-0.141,0.19-0.234,0.342-0.282s0.348-0.072,0.588-0.072c0.24,0,0.43,0.022,0.57,0.066c0.14,0.044,0.238,0.094,0.294,0.149
		c0.032,0.024,0.124,0.129,0.276,0.312c1.688,2.296,2.816,3.812,3.384,4.548v-4.056C135.813,105.611,135.851,105.39,135.927,105.25z
		"/>
	<path class="st2" d="M145.833,105.208c0.08-0.128,0.196-0.217,0.348-0.265c0.152-0.048,0.342-0.071,0.57-0.071
		s0.41,0.02,0.546,0.06s0.24,0.088,0.312,0.145c0.072,0.056,0.124,0.14,0.156,0.252c0.048,0.136,0.072,0.344,0.072,0.624v3.624
		c0,1.056-0.328,2.016-0.984,2.88c-0.32,0.407-0.732,0.737-1.236,0.989c-0.504,0.252-1.062,0.378-1.674,0.378
		c-0.612,0-1.168-0.128-1.668-0.384s-0.906-0.592-1.218-1.008c-0.648-0.848-0.972-1.808-0.972-2.88v-3.612
		c0-0.191,0.006-0.334,0.018-0.426c0.012-0.092,0.05-0.198,0.114-0.318c0.064-0.119,0.172-0.204,0.324-0.252
		s0.356-0.071,0.612-0.071s0.46,0.023,0.612,0.071c0.152,0.048,0.256,0.133,0.312,0.252c0.096,0.185,0.144,0.437,0.144,0.757v3.6
		c0,0.488,0.12,0.952,0.36,1.392c0.12,0.225,0.3,0.404,0.54,0.54c0.24,0.137,0.524,0.204,0.852,0.204
		c0.583,0,1.02-0.216,1.308-0.647c0.288-0.433,0.432-0.933,0.432-1.5v-3.672C145.713,105.556,145.753,105.336,145.833,105.208z"/>
	<path class="st2" d="M150.573,104.872h6.672c0.256,0,0.444,0.029,0.564,0.09c0.12,0.06,0.2,0.154,0.24,0.282
		c0.04,0.128,0.06,0.296,0.06,0.504s-0.02,0.374-0.06,0.498c-0.041,0.124-0.108,0.21-0.204,0.258
		c-0.144,0.072-0.348,0.107-0.612,0.107h-2.292v6.036c0,0.185-0.006,0.32-0.018,0.408c-0.012,0.088-0.048,0.19-0.108,0.306
		c-0.06,0.116-0.166,0.198-0.318,0.246s-0.352,0.072-0.6,0.072s-0.446-0.024-0.594-0.072c-0.148-0.048-0.252-0.13-0.312-0.246
		c-0.06-0.115-0.096-0.22-0.108-0.312c-0.012-0.092-0.018-0.23-0.018-0.414v-6.024h-2.304c-0.256,0-0.444-0.029-0.564-0.09
		c-0.12-0.06-0.2-0.153-0.24-0.282c-0.041-0.128-0.06-0.296-0.06-0.504s0.02-0.374,0.06-0.498c0.04-0.124,0.108-0.21,0.204-0.258
		C150.105,104.907,150.309,104.872,150.573,104.872z"/>
	<path class="st2" d="M162.093,111.556h3.696c0.184,0,0.322,0.006,0.414,0.018c0.092,0.013,0.198,0.051,0.318,0.114
		c0.216,0.112,0.324,0.424,0.324,0.937c0,0.56-0.148,0.888-0.444,0.983c-0.136,0.048-0.344,0.072-0.624,0.072h-4.752
		c-0.56,0-0.888-0.152-0.984-0.456c-0.048-0.128-0.072-0.332-0.072-0.612v-6.672c0-0.408,0.076-0.686,0.228-0.834
		c0.152-0.147,0.44-0.222,0.864-0.222h4.728c0.184,0,0.322,0.006,0.414,0.018c0.092,0.013,0.198,0.051,0.318,0.114
		c0.216,0.112,0.324,0.424,0.324,0.937c0,0.56-0.148,0.888-0.444,0.983c-0.136,0.048-0.344,0.072-0.624,0.072h-3.684v1.212h2.376
		c0.184,0,0.322,0.006,0.414,0.018c0.092,0.013,0.198,0.051,0.318,0.114c0.216,0.112,0.324,0.424,0.324,0.937
		c0,0.56-0.152,0.888-0.456,0.983c-0.136,0.048-0.344,0.072-0.624,0.072h-2.352V111.556z"/>
	<path class="st2" d="M168.957,112.443c-0.208-0.256-0.312-0.485-0.312-0.689s0.172-0.475,0.516-0.811
		c0.2-0.191,0.412-0.288,0.636-0.288c0.224,0,0.536,0.2,0.936,0.601c0.112,0.136,0.271,0.266,0.48,0.39
		c0.208,0.124,0.4,0.187,0.576,0.187c0.744,0,1.116-0.305,1.116-0.912c0-0.185-0.102-0.338-0.306-0.462s-0.458-0.214-0.762-0.271
		c-0.304-0.056-0.632-0.146-0.984-0.27s-0.68-0.271-0.984-0.438s-0.558-0.434-0.762-0.798c-0.204-0.364-0.306-0.802-0.306-1.313
		c0-0.704,0.262-1.318,0.786-1.843c0.524-0.523,1.238-0.786,2.142-0.786c0.48,0,0.918,0.062,1.314,0.187
		c0.396,0.124,0.67,0.25,0.822,0.378l0.3,0.228c0.248,0.232,0.372,0.429,0.372,0.589s-0.096,0.38-0.288,0.659
		c-0.272,0.4-0.552,0.601-0.84,0.601c-0.168,0-0.376-0.08-0.624-0.24c-0.024-0.016-0.07-0.056-0.138-0.12
		c-0.068-0.063-0.13-0.115-0.186-0.156c-0.168-0.104-0.382-0.155-0.642-0.155c-0.26,0-0.476,0.062-0.648,0.186
		c-0.172,0.124-0.258,0.296-0.258,0.517c0,0.22,0.102,0.397,0.306,0.533c0.204,0.137,0.458,0.229,0.762,0.276
		c0.304,0.048,0.636,0.122,0.996,0.222c0.36,0.101,0.692,0.223,0.996,0.366c0.304,0.145,0.558,0.395,0.762,0.75
		c0.204,0.356,0.306,0.794,0.306,1.314c0,0.52-0.104,0.978-0.312,1.374c-0.208,0.396-0.48,0.701-0.816,0.918
		c-0.648,0.424-1.34,0.636-2.076,0.636c-0.376,0-0.732-0.046-1.068-0.138c-0.336-0.093-0.608-0.206-0.816-0.343
		c-0.424-0.256-0.72-0.504-0.888-0.743L168.957,112.443z"/>
</g>
<g>
	<path class="st2" d="M204.553,104.854h6.672c0.256,0,0.444,0.029,0.564,0.09c0.12,0.06,0.2,0.154,0.24,0.282
		c0.04,0.128,0.06,0.296,0.06,0.504s-0.02,0.374-0.06,0.498c-0.041,0.124-0.108,0.21-0.204,0.258
		c-0.144,0.072-0.348,0.107-0.612,0.107h-2.292v6.036c0,0.185-0.006,0.32-0.018,0.408c-0.012,0.088-0.048,0.19-0.108,0.306
		c-0.06,0.116-0.166,0.198-0.318,0.246s-0.352,0.072-0.6,0.072s-0.446-0.024-0.594-0.072c-0.148-0.048-0.252-0.13-0.312-0.246
		c-0.06-0.115-0.096-0.22-0.108-0.312c-0.012-0.092-0.018-0.23-0.018-0.414v-6.024h-2.304c-0.256,0-0.444-0.029-0.564-0.09
		c-0.12-0.06-0.2-0.153-0.24-0.282c-0.041-0.128-0.06-0.296-0.06-0.504s0.02-0.374,0.06-0.498c0.04-0.124,0.108-0.21,0.204-0.258
		C204.084,104.889,204.288,104.854,204.553,104.854z"/>
	<path class="st2" d="M217.356,104.757c1.184,0,2.212,0.429,3.084,1.284c0.872,0.856,1.308,1.918,1.308,3.187
		c0,1.268-0.416,2.348-1.248,3.239c-0.832,0.893-1.856,1.338-3.072,1.338c-1.216,0-2.25-0.439-3.102-1.319s-1.278-1.928-1.278-3.145
		c0-0.664,0.12-1.285,0.36-1.865c0.24-0.58,0.56-1.066,0.96-1.458c0.4-0.393,0.86-0.7,1.38-0.925
		C216.268,104.869,216.805,104.757,217.356,104.757z M215.172,109.282c0,0.712,0.23,1.29,0.69,1.733
		c0.46,0.444,0.974,0.666,1.542,0.666c0.568,0,1.08-0.216,1.536-0.647s0.684-1.012,0.684-1.74c0-0.728-0.23-1.312-0.69-1.752
		c-0.46-0.439-0.974-0.66-1.542-0.66c-0.568,0-1.08,0.223-1.536,0.666C215.4,107.992,215.172,108.57,215.172,109.282z"/>
</g>
<g>
	<path class="st2" d="M67.17,104.919c0.184,0,0.322,0.006,0.414,0.018c0.092,0.013,0.196,0.051,0.312,0.114
		c0.116,0.064,0.198,0.172,0.246,0.324s0.072,0.355,0.072,0.612c0,0.256-0.024,0.46-0.072,0.611
		c-0.048,0.152-0.132,0.258-0.252,0.318c-0.12,0.06-0.226,0.096-0.318,0.107c-0.092,0.013-0.234,0.019-0.426,0.019h-3.672v1.212
		h2.364c0.192,0,0.334,0.006,0.426,0.018c0.092,0.013,0.198,0.051,0.318,0.114c0.208,0.12,0.312,0.437,0.312,0.948
		c0,0.56-0.152,0.892-0.456,0.996c-0.128,0.04-0.332,0.06-0.612,0.06h-2.352v2.269c0,0.191-0.006,0.332-0.018,0.42
		c-0.012,0.088-0.05,0.191-0.114,0.312c-0.112,0.216-0.424,0.324-0.936,0.324c-0.56,0-0.888-0.152-0.984-0.456
		c-0.048-0.128-0.072-0.332-0.072-0.612v-6.672c0-0.408,0.076-0.686,0.228-0.834c0.152-0.147,0.44-0.222,0.864-0.222H67.17z"/>
	<path class="st2" d="M70.193,105.975c0-0.184,0.006-0.321,0.018-0.414c0.012-0.092,0.05-0.197,0.114-0.317
		c0.112-0.217,0.424-0.324,0.936-0.324c0.56,0,0.892,0.148,0.996,0.444c0.04,0.136,0.06,0.344,0.06,0.624v6.672
		c0,0.191-0.006,0.332-0.018,0.42c-0.012,0.088-0.05,0.191-0.114,0.312c-0.112,0.216-0.424,0.324-0.936,0.324
		c-0.56,0-0.888-0.152-0.984-0.456c-0.048-0.128-0.072-0.332-0.072-0.612V105.975z"/>
	<path class="st2" d="M82.505,105.051c0.472,0.232,0.708,0.488,0.708,0.768c0,0.129-0.06,0.32-0.18,0.576l-3.312,6.721
		c-0.088,0.176-0.222,0.317-0.402,0.426c-0.18,0.107-0.366,0.162-0.558,0.162h-0.12c-0.2,0-0.39-0.055-0.57-0.162
		c-0.18-0.108-0.314-0.25-0.402-0.426l-3.312-6.721c-0.12-0.256-0.18-0.447-0.18-0.576c0-0.279,0.236-0.535,0.708-0.768
		c0.264-0.136,0.466-0.204,0.606-0.204c0.14,0,0.246,0.017,0.318,0.048c0.072,0.032,0.14,0.089,0.204,0.168
		c0.072,0.097,0.138,0.202,0.198,0.318s0.214,0.448,0.462,0.996s0.514,1.13,0.798,1.746c0.284,0.616,0.552,1.198,0.804,1.746
		s0.394,0.854,0.426,0.918l2.4-5.256c0.064-0.152,0.12-0.272,0.168-0.36c0.144-0.216,0.32-0.324,0.528-0.324
		S82.242,104.915,82.505,105.051z"/>
	<path class="st2" d="M87.197,111.591h3.696c0.184,0,0.322,0.006,0.414,0.018c0.092,0.013,0.198,0.051,0.318,0.114
		c0.216,0.112,0.324,0.424,0.324,0.937c0,0.56-0.148,0.888-0.444,0.983c-0.136,0.048-0.344,0.072-0.624,0.072h-4.752
		c-0.56,0-0.888-0.152-0.984-0.456c-0.048-0.128-0.072-0.332-0.072-0.612v-6.672c0-0.408,0.076-0.686,0.228-0.834
		c0.152-0.147,0.44-0.222,0.864-0.222h4.728c0.184,0,0.322,0.006,0.414,0.018c0.092,0.013,0.198,0.051,0.318,0.114
		c0.216,0.112,0.324,0.424,0.324,0.937c0,0.56-0.148,0.888-0.444,0.983c-0.136,0.048-0.344,0.072-0.624,0.072h-3.684v1.212h2.376
		c0.184,0,0.322,0.006,0.414,0.018c0.092,0.013,0.198,0.051,0.318,0.114c0.216,0.112,0.324,0.424,0.324,0.937
		c0,0.56-0.152,0.888-0.456,0.983c-0.136,0.048-0.344,0.072-0.624,0.072h-2.352V111.591z"/>
</g>
<g>
	<path class="st2" d="M77.722,129.916c0.208,0.424,0.312,0.896,0.312,1.416c0,0.52-0.104,0.989-0.312,1.409
		c-0.208,0.42-0.476,0.755-0.804,1.002c-0.664,0.513-1.352,0.769-2.064,0.769h-1.5v1.355c0,0.185-0.006,0.322-0.018,0.414
		c-0.012,0.093-0.05,0.198-0.114,0.318c-0.112,0.216-0.424,0.324-0.936,0.324c-0.56,0-0.888-0.148-0.984-0.444
		c-0.048-0.136-0.072-0.344-0.072-0.624v-6.66c0-0.184,0.006-0.321,0.018-0.414c0.012-0.092,0.05-0.197,0.114-0.317
		c0.112-0.217,0.424-0.324,0.936-0.324h2.568c0.704,0,1.388,0.256,2.052,0.768C77.246,129.155,77.514,129.491,77.722,129.916z
		 M75.575,132.124c0.232-0.177,0.348-0.44,0.348-0.792c0-0.353-0.116-0.618-0.348-0.799c-0.232-0.18-0.472-0.27-0.72-0.27h-1.5
		v2.124h1.512C75.106,132.388,75.342,132.3,75.575,132.124z"/>
	<path class="st2" d="M84.095,128.763l3.24,6.696c0.136,0.271,0.204,0.476,0.204,0.611c0,0.288-0.232,0.548-0.696,0.78
		c-0.272,0.136-0.486,0.204-0.642,0.204c-0.156,0-0.284-0.036-0.384-0.108c-0.1-0.071-0.172-0.147-0.216-0.228
		s-0.106-0.2-0.186-0.36l-0.624-1.296h-3.324l-0.624,1.296c-0.08,0.16-0.142,0.276-0.186,0.349
		c-0.044,0.071-0.116,0.146-0.216,0.222s-0.228,0.114-0.384,0.114c-0.156,0-0.37-0.068-0.642-0.204
		c-0.464-0.225-0.696-0.48-0.696-0.769c0-0.136,0.068-0.34,0.204-0.611l3.24-6.708c0.088-0.185,0.222-0.332,0.402-0.444
		c0.18-0.112,0.37-0.168,0.57-0.168C83.566,128.139,83.886,128.347,84.095,128.763z M83.122,131.643l-0.792,1.644h1.596
		L83.122,131.643z"/>
	<path class="st2" d="M89.17,135.699c-0.208-0.256-0.312-0.485-0.312-0.689s0.172-0.475,0.516-0.811
		c0.2-0.191,0.412-0.288,0.636-0.288c0.224,0,0.536,0.2,0.936,0.601c0.112,0.136,0.271,0.266,0.48,0.39
		c0.208,0.124,0.4,0.187,0.576,0.187c0.744,0,1.116-0.305,1.116-0.912c0-0.185-0.102-0.338-0.306-0.462s-0.458-0.214-0.762-0.271
		c-0.304-0.056-0.632-0.146-0.984-0.27s-0.68-0.271-0.984-0.438s-0.558-0.434-0.762-0.798c-0.204-0.364-0.306-0.802-0.306-1.313
		c0-0.704,0.262-1.318,0.786-1.843c0.524-0.523,1.238-0.786,2.142-0.786c0.48,0,0.918,0.063,1.314,0.187
		c0.396,0.124,0.67,0.25,0.822,0.378l0.3,0.228c0.248,0.232,0.372,0.429,0.372,0.589s-0.096,0.38-0.288,0.659
		c-0.272,0.4-0.552,0.601-0.84,0.601c-0.168,0-0.376-0.08-0.624-0.24c-0.024-0.016-0.07-0.056-0.138-0.12
		c-0.068-0.063-0.13-0.115-0.186-0.156c-0.168-0.104-0.382-0.155-0.642-0.155c-0.26,0-0.476,0.062-0.648,0.186
		c-0.172,0.124-0.258,0.296-0.258,0.517c0,0.22,0.102,0.397,0.306,0.533c0.204,0.137,0.458,0.229,0.762,0.276
		c0.304,0.048,0.636,0.122,0.996,0.222c0.36,0.101,0.692,0.223,0.996,0.366c0.304,0.145,0.558,0.395,0.762,0.75
		c0.204,0.356,0.306,0.794,0.306,1.314c0,0.52-0.104,0.978-0.312,1.374c-0.208,0.396-0.48,0.701-0.816,0.918
		c-0.648,0.424-1.34,0.636-2.076,0.636c-0.376,0-0.732-0.046-1.068-0.138c-0.336-0.093-0.608-0.206-0.816-0.343
		c-0.424-0.256-0.72-0.504-0.888-0.743L89.17,135.699z"/>
	<path class="st2" d="M97.21,128.128h6.672c0.256,0,0.444,0.029,0.564,0.09c0.12,0.06,0.2,0.154,0.24,0.282
		c0.04,0.128,0.06,0.296,0.06,0.504s-0.02,0.374-0.06,0.498c-0.041,0.124-0.108,0.21-0.204,0.258
		c-0.144,0.072-0.348,0.107-0.612,0.107h-2.292v6.036c0,0.185-0.006,0.32-0.018,0.408c-0.012,0.088-0.048,0.19-0.108,0.306
		c-0.06,0.116-0.166,0.198-0.318,0.246s-0.352,0.072-0.6,0.072s-0.446-0.024-0.594-0.072c-0.148-0.048-0.252-0.13-0.312-0.246
		c-0.06-0.115-0.096-0.22-0.108-0.312c-0.012-0.092-0.018-0.23-0.018-0.414v-6.024h-2.304c-0.256,0-0.444-0.029-0.564-0.09
		c-0.12-0.06-0.2-0.153-0.24-0.282c-0.041-0.128-0.06-0.296-0.06-0.504s0.02-0.374,0.06-0.498c0.04-0.124,0.108-0.21,0.204-0.258
		C96.742,128.163,96.946,128.128,97.21,128.128z"/>
</g>
<g>
	<path class="st2" d="M135.291,128.001c1.184,0,2.212,0.429,3.084,1.284c0.872,0.856,1.308,1.918,1.308,3.187
		c0,1.268-0.416,2.348-1.248,3.239c-0.832,0.893-1.856,1.338-3.072,1.338c-1.216,0-2.25-0.439-3.102-1.319s-1.278-1.928-1.278-3.145
		c0-0.664,0.12-1.285,0.36-1.865c0.24-0.58,0.56-1.066,0.96-1.458c0.4-0.393,0.86-0.7,1.38-0.925
		C134.203,128.114,134.739,128.001,135.291,128.001z M133.107,132.526c0,0.712,0.23,1.29,0.69,1.733
		c0.46,0.444,0.974,0.666,1.542,0.666c0.568,0,1.08-0.216,1.536-0.647s0.684-1.012,0.684-1.74c0-0.728-0.23-1.312-0.69-1.752
		c-0.46-0.439-0.974-0.66-1.542-0.66c-0.568,0-1.08,0.223-1.536,0.666C133.335,131.236,133.107,131.814,133.107,132.526z"/>
	<path class="st2" d="M147.345,128.476c0.076-0.141,0.19-0.234,0.342-0.282s0.342-0.072,0.57-0.072c0.228,0,0.412,0.021,0.552,0.061
		s0.244,0.088,0.312,0.144s0.118,0.141,0.15,0.252c0.048,0.128,0.072,0.332,0.072,0.612v6.66c0,0.191-0.006,0.332-0.018,0.42
		c-0.012,0.088-0.05,0.191-0.114,0.312c-0.112,0.216-0.424,0.324-0.936,0.324c-0.312,0-0.528-0.024-0.648-0.072
		c-0.12-0.048-0.22-0.124-0.3-0.228c-1.8-2.4-2.984-3.968-3.552-4.704v3.948c0,0.191-0.006,0.332-0.018,0.42
		c-0.012,0.088-0.05,0.191-0.114,0.312c-0.112,0.216-0.424,0.324-0.936,0.324c-0.496,0-0.8-0.108-0.912-0.324
		c-0.064-0.12-0.102-0.228-0.114-0.324c-0.012-0.096-0.018-0.235-0.018-0.42v-6.695c0-0.305,0.038-0.526,0.114-0.666
		c0.076-0.141,0.19-0.234,0.342-0.282s0.348-0.072,0.588-0.072c0.24,0,0.43,0.022,0.57,0.066c0.14,0.044,0.238,0.094,0.294,0.149
		c0.032,0.024,0.124,0.129,0.276,0.312c1.688,2.296,2.816,3.812,3.384,4.548v-4.056
		C147.231,128.837,147.269,128.616,147.345,128.476z"/>
	<path class="st2" d="M153.627,134.782h3.696c0.184,0,0.322,0.006,0.414,0.018c0.092,0.013,0.198,0.051,0.318,0.114
		c0.216,0.112,0.324,0.424,0.324,0.937c0,0.56-0.148,0.888-0.444,0.983c-0.136,0.048-0.344,0.072-0.624,0.072h-4.752
		c-0.56,0-0.888-0.152-0.984-0.456c-0.048-0.128-0.072-0.332-0.072-0.612v-6.672c0-0.408,0.076-0.686,0.228-0.834
		c0.152-0.147,0.44-0.222,0.864-0.222h4.728c0.184,0,0.322,0.006,0.414,0.018c0.092,0.013,0.198,0.051,0.318,0.114
		c0.216,0.112,0.324,0.424,0.324,0.937c0,0.56-0.148,0.888-0.444,0.983c-0.136,0.048-0.344,0.072-0.624,0.072h-3.684v1.212h2.376
		c0.184,0,0.322,0.006,0.414,0.018c0.092,0.013,0.198,0.051,0.318,0.114c0.216,0.112,0.324,0.424,0.324,0.937
		c0,0.56-0.152,0.888-0.456,0.983c-0.136,0.048-0.344,0.072-0.624,0.072h-2.352V134.782z"/>
</g>
<g>
	<path class="st2" d="M180.068,128.085h6.672c0.256,0,0.444,0.029,0.564,0.09c0.12,0.06,0.2,0.154,0.24,0.282
		c0.04,0.128,0.06,0.296,0.06,0.504s-0.02,0.374-0.06,0.498c-0.041,0.124-0.108,0.21-0.204,0.258
		c-0.144,0.072-0.348,0.107-0.612,0.107h-2.292v6.036c0,0.185-0.006,0.32-0.018,0.408c-0.012,0.088-0.048,0.19-0.108,0.306
		c-0.06,0.116-0.166,0.198-0.318,0.246s-0.352,0.072-0.6,0.072s-0.446-0.024-0.594-0.072c-0.148-0.048-0.252-0.13-0.312-0.246
		c-0.06-0.115-0.096-0.22-0.108-0.312c-0.012-0.092-0.018-0.23-0.018-0.414v-6.024h-2.304c-0.256,0-0.444-0.029-0.564-0.09
		c-0.12-0.06-0.2-0.153-0.24-0.282c-0.041-0.128-0.06-0.296-0.06-0.504s0.02-0.374,0.06-0.498c0.04-0.124,0.108-0.21,0.204-0.258
		C179.6,128.12,179.804,128.085,180.068,128.085z"/>
	<path class="st2" d="M194.9,128.421c0.064-0.12,0.172-0.204,0.324-0.252c0.152-0.049,0.344-0.072,0.576-0.072
		s0.416,0.02,0.552,0.06c0.136,0.04,0.24,0.089,0.312,0.145c0.072,0.056,0.128,0.136,0.168,0.24c0.04,0.136,0.06,0.344,0.06,0.624
		v6.659c0,0.185-0.006,0.322-0.018,0.414c-0.012,0.093-0.05,0.198-0.114,0.318c-0.112,0.216-0.424,0.324-0.936,0.324
		c-0.56,0-0.888-0.148-0.984-0.444c-0.048-0.136-0.072-0.344-0.072-0.624v-2.436h-3.18v2.447c0,0.185-0.006,0.322-0.018,0.414
		c-0.012,0.093-0.05,0.198-0.114,0.318c-0.112,0.216-0.424,0.324-0.936,0.324c-0.56,0-0.888-0.148-0.984-0.444
		c-0.048-0.136-0.072-0.344-0.072-0.624v-6.66c0-0.184,0.006-0.321,0.018-0.414c0.012-0.092,0.05-0.197,0.114-0.317
		c0.112-0.217,0.424-0.324,0.936-0.324c0.56,0,0.892,0.148,0.996,0.444c0.04,0.136,0.06,0.344,0.06,0.624v2.447h3.18v-2.46
		c0-0.184,0.006-0.321,0.018-0.414C194.798,128.647,194.836,128.541,194.9,128.421z"/>
	<path class="st2" d="M205.784,135.405c0.12,0.288,0.18,0.496,0.18,0.624c0,0.305-0.248,0.561-0.744,0.769
		c-0.256,0.111-0.462,0.168-0.618,0.168c-0.156,0-0.284-0.038-0.384-0.114s-0.174-0.154-0.222-0.234
		c-0.08-0.151-0.392-0.876-0.936-2.172l-0.372,0.024h-1.512v1.355c0,0.185-0.006,0.322-0.018,0.414
		c-0.012,0.093-0.05,0.198-0.114,0.318c-0.112,0.216-0.424,0.324-0.936,0.324c-0.56,0-0.888-0.148-0.984-0.444
		c-0.048-0.136-0.072-0.344-0.072-0.624v-6.66c0-0.184,0.006-0.321,0.018-0.414c0.012-0.092,0.05-0.197,0.114-0.317
		c0.112-0.217,0.424-0.324,0.936-0.324h2.592c0.704,0,1.388,0.256,2.052,0.768c0.32,0.248,0.584,0.584,0.792,1.009
		c0.208,0.424,0.312,0.896,0.312,1.416c0,0.903-0.3,1.647-0.9,2.231C205.143,133.945,205.415,134.573,205.784,135.405z
		 M201.176,132.345h1.536c0.232,0,0.464-0.088,0.696-0.264c0.232-0.177,0.348-0.44,0.348-0.792c0-0.353-0.116-0.618-0.348-0.799
		c-0.232-0.18-0.472-0.27-0.72-0.27h-1.512V132.345z"/>
	<path class="st2" d="M209.948,134.769h3.696c0.184,0,0.322,0.006,0.414,0.018c0.092,0.013,0.198,0.051,0.318,0.114
		c0.216,0.112,0.324,0.424,0.324,0.937c0,0.56-0.148,0.888-0.444,0.983c-0.136,0.048-0.344,0.072-0.624,0.072h-4.752
		c-0.56,0-0.888-0.152-0.984-0.456c-0.048-0.128-0.072-0.332-0.072-0.612v-6.672c0-0.408,0.076-0.686,0.228-0.834
		c0.152-0.147,0.44-0.222,0.864-0.222h4.728c0.184,0,0.322,0.006,0.414,0.018c0.092,0.013,0.198,0.051,0.318,0.114
		c0.216,0.112,0.324,0.424,0.324,0.937c0,0.56-0.148,0.888-0.444,0.983c-0.136,0.048-0.344,0.072-0.624,0.072h-3.684v1.212h2.376
		c0.184,0,0.322,0.006,0.414,0.018c0.092,0.013,0.198,0.051,0.318,0.114c0.216,0.112,0.324,0.424,0.324,0.937
		c0,0.56-0.152,0.888-0.456,0.983c-0.136,0.048-0.344,0.072-0.624,0.072h-2.352V134.769z"/>
	<path class="st2" d="M218.804,134.769h3.696c0.184,0,0.322,0.006,0.414,0.018c0.092,0.013,0.198,0.051,0.318,0.114
		c0.216,0.112,0.324,0.424,0.324,0.937c0,0.56-0.148,0.888-0.444,0.983c-0.136,0.048-0.344,0.072-0.624,0.072h-4.752
		c-0.56,0-0.888-0.152-0.984-0.456c-0.048-0.128-0.072-0.332-0.072-0.612v-6.672c0-0.408,0.076-0.686,0.228-0.834
		c0.152-0.147,0.44-0.222,0.864-0.222h4.728c0.184,0,0.322,0.006,0.414,0.018c0.092,0.013,0.198,0.051,0.318,0.114
		c0.216,0.112,0.324,0.424,0.324,0.937c0,0.56-0.148,0.888-0.444,0.983c-0.136,0.048-0.344,0.072-0.624,0.072h-3.684v1.212h2.376
		c0.184,0,0.322,0.006,0.414,0.018c0.092,0.013,0.198,0.051,0.318,0.114c0.216,0.112,0.324,0.424,0.324,0.937
		c0,0.56-0.152,0.888-0.456,0.983c-0.136,0.048-0.344,0.072-0.624,0.072h-2.352V134.769z"/>
</g>
<g>
	<path class="st2" d="M129.137,151.342h6.672c0.256,0,0.444,0.029,0.564,0.09c0.12,0.06,0.2,0.154,0.24,0.282
		c0.04,0.128,0.06,0.296,0.06,0.504s-0.02,0.374-0.06,0.498c-0.041,0.124-0.108,0.21-0.204,0.258
		c-0.144,0.072-0.348,0.107-0.612,0.107h-2.292v6.036c0,0.185-0.006,0.32-0.018,0.408c-0.012,0.088-0.048,0.19-0.108,0.306
		c-0.06,0.116-0.166,0.198-0.318,0.246s-0.352,0.072-0.6,0.072s-0.446-0.024-0.594-0.072c-0.148-0.048-0.252-0.13-0.312-0.246
		c-0.06-0.115-0.096-0.22-0.108-0.312c-0.012-0.092-0.018-0.23-0.018-0.414v-6.024h-2.304c-0.256,0-0.444-0.029-0.564-0.09
		c-0.12-0.06-0.2-0.153-0.24-0.282c-0.041-0.128-0.06-0.296-0.06-0.504s0.02-0.374,0.06-0.498c0.04-0.124,0.108-0.21,0.204-0.258
		C128.669,151.377,128.873,151.342,129.137,151.342z"/>
	<path class="st2" d="M149.056,151.402c0.536,0.192,0.804,0.448,0.804,0.768c0,0.104-0.048,0.301-0.144,0.589l-2.304,6.659
		c-0.016,0.057-0.044,0.125-0.084,0.204c-0.04,0.08-0.146,0.187-0.318,0.318c-0.172,0.132-0.376,0.198-0.612,0.198
		c-0.236,0-0.44-0.066-0.612-0.198s-0.286-0.262-0.342-0.39l-1.404-4.141c-0.888,2.624-1.34,3.96-1.356,4.008
		c-0.016,0.049-0.052,0.116-0.108,0.204c-0.056,0.089-0.12,0.168-0.192,0.24c-0.184,0.185-0.404,0.276-0.66,0.276
		s-0.466-0.061-0.63-0.181c-0.164-0.119-0.274-0.239-0.33-0.359l-0.084-0.181l-2.316-6.659c-0.088-0.265-0.132-0.46-0.132-0.589
		c0-0.319,0.268-0.571,0.804-0.756c0.232-0.079,0.442-0.12,0.63-0.12s0.332,0.064,0.432,0.192s0.19,0.324,0.27,0.588l1.32,4.008
		l1.308-3.947c0.112-0.336,0.316-0.568,0.612-0.696c0.128-0.056,0.294-0.084,0.498-0.084c0.204,0,0.394,0.065,0.57,0.198
		c0.176,0.132,0.288,0.262,0.336,0.39l1.38,4.164l1.32-4.032c0.064-0.184,0.116-0.319,0.156-0.408
		c0.04-0.088,0.114-0.174,0.222-0.258s0.242-0.126,0.402-0.126S148.841,151.322,149.056,151.402z"/>
	<path class="st2" d="M155.848,151.245c1.184,0,2.212,0.429,3.084,1.284c0.872,0.856,1.308,1.918,1.308,3.187
		c0,1.268-0.416,2.348-1.248,3.239c-0.832,0.893-1.856,1.338-3.072,1.338c-1.216,0-2.25-0.439-3.102-1.319s-1.278-1.928-1.278-3.145
		c0-0.664,0.12-1.285,0.36-1.865c0.24-0.58,0.56-1.066,0.96-1.458c0.4-0.393,0.86-0.7,1.38-0.925
		C154.761,151.358,155.297,151.245,155.848,151.245z M153.664,155.77c0,0.712,0.23,1.29,0.69,1.733
		c0.46,0.444,0.974,0.666,1.542,0.666c0.568,0,1.08-0.216,1.536-0.647s0.684-1.012,0.684-1.74c0-0.728-0.23-1.312-0.69-1.752
		c-0.46-0.439-0.974-0.66-1.542-0.66c-0.568,0-1.08,0.223-1.536,0.666C153.892,154.48,153.664,155.058,153.664,155.77z"/>
</g>
<g>
	<path class="st2" d="M73.833,151.354c0.184,0,0.322,0.006,0.414,0.018c0.092,0.013,0.196,0.051,0.312,0.114
		c0.116,0.064,0.198,0.172,0.246,0.324s0.072,0.355,0.072,0.612c0,0.256-0.024,0.46-0.072,0.611
		c-0.048,0.152-0.132,0.258-0.252,0.318c-0.12,0.06-0.226,0.096-0.318,0.107c-0.092,0.013-0.234,0.019-0.426,0.019h-3.672v1.212
		H72.5c0.192,0,0.334,0.006,0.426,0.018c0.092,0.013,0.198,0.051,0.318,0.114c0.208,0.12,0.312,0.437,0.312,0.948
		c0,0.56-0.152,0.892-0.456,0.996c-0.128,0.04-0.332,0.06-0.612,0.06h-2.352v2.269c0,0.191-0.006,0.332-0.018,0.42
		c-0.012,0.088-0.05,0.191-0.114,0.312c-0.112,0.216-0.424,0.324-0.936,0.324c-0.56,0-0.888-0.152-0.984-0.456
		c-0.048-0.128-0.072-0.332-0.072-0.612v-6.672c0-0.408,0.076-0.686,0.228-0.834c0.152-0.147,0.44-0.222,0.864-0.222H73.833z"/>
	<path class="st2" d="M80.984,151.245c1.184,0,2.212,0.429,3.084,1.284c0.872,0.856,1.308,1.918,1.308,3.187
		c0,1.268-0.416,2.348-1.248,3.239c-0.832,0.893-1.856,1.338-3.072,1.338c-1.216,0-2.25-0.439-3.102-1.319s-1.278-1.928-1.278-3.145
		c0-0.664,0.12-1.285,0.36-1.865c0.24-0.58,0.56-1.066,0.96-1.458c0.4-0.393,0.86-0.7,1.38-0.925
		C79.896,151.358,80.433,151.245,80.984,151.245z M78.8,155.77c0,0.712,0.23,1.29,0.69,1.733c0.46,0.444,0.974,0.666,1.542,0.666
		c0.568,0,1.08-0.216,1.536-0.647s0.684-1.012,0.684-1.74c0-0.728-0.23-1.312-0.69-1.752c-0.46-0.439-0.974-0.66-1.542-0.66
		c-0.568,0-1.08,0.223-1.536,0.666C79.028,154.48,78.8,155.058,78.8,155.77z"/>
	<path class="st2" d="M93.104,151.678c0.08-0.128,0.196-0.217,0.348-0.265c0.152-0.048,0.342-0.071,0.57-0.071s0.41,0.02,0.546,0.06
		s0.24,0.088,0.312,0.145c0.072,0.056,0.124,0.14,0.156,0.252c0.048,0.136,0.072,0.344,0.072,0.624v3.624
		c0,1.056-0.328,2.016-0.984,2.88c-0.32,0.407-0.732,0.737-1.236,0.989c-0.504,0.252-1.062,0.378-1.674,0.378
		c-0.612,0-1.168-0.128-1.668-0.384s-0.906-0.592-1.218-1.008c-0.648-0.848-0.972-1.808-0.972-2.88v-3.612
		c0-0.191,0.006-0.334,0.018-0.426c0.012-0.092,0.05-0.198,0.114-0.318c0.064-0.119,0.172-0.204,0.324-0.252
		s0.356-0.071,0.612-0.071s0.46,0.023,0.612,0.071c0.152,0.048,0.256,0.133,0.312,0.252c0.096,0.185,0.144,0.437,0.144,0.757v3.6
		c0,0.488,0.12,0.952,0.36,1.392c0.12,0.225,0.3,0.404,0.54,0.54c0.24,0.137,0.524,0.204,0.852,0.204
		c0.583,0,1.02-0.216,1.308-0.647c0.288-0.433,0.432-0.933,0.432-1.5v-3.672C92.984,152.026,93.024,151.806,93.104,151.678z"/>
	<path class="st2" d="M104,158.661c0.12,0.288,0.18,0.496,0.18,0.624c0,0.305-0.248,0.561-0.744,0.769
		c-0.256,0.111-0.462,0.168-0.618,0.168c-0.156,0-0.284-0.038-0.384-0.114s-0.174-0.154-0.222-0.234
		c-0.08-0.151-0.392-0.876-0.936-2.172l-0.372,0.024h-1.512v1.355c0,0.185-0.006,0.322-0.018,0.414
		c-0.012,0.093-0.05,0.198-0.114,0.318c-0.112,0.216-0.424,0.324-0.936,0.324c-0.56,0-0.888-0.148-0.984-0.444
		c-0.048-0.136-0.072-0.344-0.072-0.624v-6.66c0-0.184,0.006-0.321,0.018-0.414c0.012-0.092,0.05-0.197,0.114-0.317
		c0.112-0.217,0.424-0.324,0.936-0.324h2.592c0.704,0,1.388,0.256,2.052,0.768c0.32,0.248,0.584,0.584,0.792,1.009
		c0.208,0.424,0.312,0.896,0.312,1.416c0,0.903-0.3,1.647-0.9,2.231C103.36,157.201,103.632,157.829,104,158.661z M99.393,155.602
		h1.536c0.232,0,0.464-0.088,0.696-0.264c0.232-0.177,0.348-0.44,0.348-0.792c0-0.353-0.116-0.618-0.348-0.799
		c-0.232-0.18-0.472-0.27-0.72-0.27h-1.512V155.602z"/>
</g>
<g>
	<path class="st2" d="M191.894,151.407c0.184,0,0.322,0.006,0.414,0.018c0.092,0.013,0.196,0.051,0.312,0.114
		c0.116,0.064,0.198,0.172,0.246,0.324s0.072,0.355,0.072,0.612c0,0.256-0.024,0.46-0.072,0.611
		c-0.048,0.152-0.132,0.258-0.252,0.318c-0.12,0.06-0.226,0.096-0.318,0.107c-0.092,0.013-0.234,0.019-0.426,0.019h-3.672v1.212
		h2.364c0.192,0,0.334,0.006,0.426,0.018c0.092,0.013,0.198,0.051,0.318,0.114c0.208,0.12,0.312,0.437,0.312,0.948
		c0,0.56-0.152,0.892-0.456,0.996c-0.128,0.04-0.332,0.06-0.612,0.06h-2.352v2.269c0,0.191-0.006,0.332-0.018,0.42
		c-0.012,0.088-0.05,0.191-0.114,0.312c-0.112,0.216-0.424,0.324-0.936,0.324c-0.56,0-0.888-0.152-0.984-0.456
		c-0.048-0.128-0.072-0.332-0.072-0.612v-6.672c0-0.408,0.076-0.686,0.228-0.834c0.152-0.147,0.44-0.222,0.864-0.222H191.894z"/>
	<path class="st2" d="M194.918,152.463c0-0.184,0.006-0.321,0.018-0.414c0.012-0.092,0.05-0.197,0.114-0.317
		c0.112-0.217,0.424-0.324,0.936-0.324c0.56,0,0.892,0.148,0.996,0.444c0.04,0.136,0.06,0.344,0.06,0.624v6.672
		c0,0.191-0.006,0.332-0.018,0.42c-0.012,0.088-0.05,0.191-0.114,0.312c-0.112,0.216-0.424,0.324-0.936,0.324
		c-0.56,0-0.888-0.152-0.984-0.456c-0.048-0.128-0.072-0.332-0.072-0.612V152.463z"/>
	<path class="st2" d="M207.23,151.539c0.472,0.232,0.708,0.488,0.708,0.768c0,0.129-0.06,0.32-0.18,0.576l-3.312,6.721
		c-0.088,0.176-0.222,0.317-0.402,0.426c-0.18,0.107-0.366,0.162-0.558,0.162h-0.12c-0.2,0-0.39-0.055-0.57-0.162
		c-0.18-0.108-0.314-0.25-0.402-0.426l-3.312-6.721c-0.12-0.256-0.18-0.447-0.18-0.576c0-0.279,0.236-0.535,0.708-0.768
		c0.264-0.136,0.466-0.204,0.606-0.204c0.14,0,0.246,0.017,0.318,0.048c0.072,0.032,0.14,0.089,0.204,0.168
		c0.072,0.097,0.138,0.202,0.198,0.318s0.214,0.448,0.462,0.996s0.514,1.13,0.798,1.746c0.284,0.616,0.552,1.198,0.804,1.746
		s0.394,0.854,0.426,0.918l2.4-5.256c0.064-0.152,0.12-0.272,0.168-0.36c0.144-0.216,0.32-0.324,0.528-0.324
		S206.966,151.404,207.23,151.539z"/>
	<path class="st2" d="M211.922,158.079h3.696c0.184,0,0.322,0.006,0.414,0.018c0.092,0.013,0.198,0.051,0.318,0.114
		c0.216,0.112,0.324,0.424,0.324,0.937c0,0.56-0.148,0.888-0.444,0.983c-0.136,0.048-0.344,0.072-0.624,0.072h-4.752
		c-0.56,0-0.888-0.152-0.984-0.456c-0.048-0.128-0.072-0.332-0.072-0.612v-6.672c0-0.408,0.076-0.686,0.228-0.834
		c0.152-0.147,0.44-0.222,0.864-0.222h4.728c0.184,0,0.322,0.006,0.414,0.018c0.092,0.013,0.198,0.051,0.318,0.114
		c0.216,0.112,0.324,0.424,0.324,0.937c0,0.56-0.148,0.888-0.444,0.983c-0.136,0.048-0.344,0.072-0.624,0.072h-3.684v1.212h2.376
		c0.184,0,0.322,0.006,0.414,0.018c0.092,0.013,0.198,0.051,0.318,0.114c0.216,0.112,0.324,0.424,0.324,0.937
		c0,0.56-0.152,0.888-0.456,0.983c-0.136,0.048-0.344,0.072-0.624,0.072h-2.352V158.079z"/>
</g>
<g>
	<path class="st2" d="M134.827,182.229c-0.208-0.256-0.312-0.485-0.312-0.689s0.172-0.475,0.516-0.811
		c0.2-0.191,0.412-0.288,0.636-0.288c0.224,0,0.536,0.2,0.936,0.601c0.112,0.136,0.271,0.266,0.48,0.39
		c0.208,0.124,0.4,0.187,0.576,0.187c0.744,0,1.116-0.305,1.116-0.912c0-0.185-0.102-0.338-0.306-0.462s-0.458-0.214-0.762-0.271
		c-0.304-0.056-0.632-0.146-0.984-0.27s-0.68-0.271-0.984-0.438s-0.558-0.434-0.762-0.798c-0.204-0.364-0.306-0.802-0.306-1.313
		c0-0.704,0.262-1.318,0.786-1.843c0.524-0.523,1.238-0.786,2.142-0.786c0.48,0,0.918,0.062,1.314,0.187
		c0.396,0.124,0.67,0.25,0.822,0.378l0.3,0.228c0.248,0.232,0.372,0.429,0.372,0.589s-0.096,0.38-0.288,0.659
		c-0.272,0.4-0.552,0.601-0.84,0.601c-0.168,0-0.376-0.08-0.624-0.24c-0.024-0.016-0.07-0.056-0.138-0.12
		c-0.068-0.063-0.13-0.115-0.186-0.156c-0.168-0.104-0.382-0.155-0.642-0.155c-0.26,0-0.476,0.062-0.648,0.186
		c-0.172,0.124-0.258,0.296-0.258,0.517c0,0.22,0.102,0.397,0.306,0.533c0.204,0.137,0.458,0.229,0.762,0.276
		c0.304,0.048,0.636,0.122,0.996,0.222c0.36,0.101,0.692,0.223,0.996,0.366c0.304,0.145,0.558,0.395,0.762,0.75
		c0.204,0.356,0.306,0.794,0.306,1.314c0,0.52-0.104,0.978-0.312,1.374c-0.208,0.396-0.48,0.701-0.816,0.918
		c-0.648,0.424-1.34,0.636-2.076,0.636c-0.376,0-0.732-0.046-1.068-0.138c-0.336-0.093-0.608-0.206-0.816-0.343
		c-0.424-0.256-0.72-0.504-0.888-0.743L134.827,182.229z"/>
	<path class="st2" d="M142.891,175.725c0-0.184,0.006-0.321,0.018-0.414c0.012-0.092,0.05-0.197,0.114-0.317
		c0.112-0.217,0.424-0.324,0.936-0.324c0.56,0,0.892,0.148,0.996,0.444c0.04,0.136,0.06,0.344,0.06,0.624v6.672
		c0,0.191-0.006,0.332-0.018,0.42c-0.012,0.088-0.05,0.191-0.114,0.312c-0.112,0.216-0.424,0.324-0.936,0.324
		c-0.56,0-0.888-0.152-0.984-0.456c-0.048-0.128-0.072-0.332-0.072-0.612V175.725z"/>
	<path class="st2" d="M152.587,179.013l2.412,2.652c0.271,0.304,0.408,0.56,0.408,0.768s-0.154,0.452-0.462,0.732
		s-0.568,0.42-0.78,0.42c-0.212,0-0.458-0.16-0.738-0.48l-2.28-2.615l-2.28,2.615c-0.288,0.32-0.534,0.48-0.738,0.48
		s-0.464-0.142-0.78-0.426s-0.474-0.526-0.474-0.727c0-0.199,0.14-0.456,0.42-0.768l2.412-2.652l-2.412-2.651
		c-0.28-0.296-0.42-0.549-0.42-0.757s0.156-0.453,0.468-0.737s0.574-0.427,0.786-0.427s0.458,0.16,0.738,0.48l2.28,2.616l2.28-2.616
		c0.288-0.32,0.534-0.48,0.738-0.48c0.204,0,0.462,0.141,0.774,0.421c0.312,0.279,0.468,0.527,0.468,0.743
		c0,0.217-0.136,0.469-0.408,0.757L152.587,179.013z"/>
</g>
<g>
	<path class="st2" d="M65.227,182.187c-0.208-0.256-0.312-0.485-0.312-0.689s0.172-0.475,0.516-0.811
		c0.2-0.191,0.412-0.288,0.636-0.288c0.224,0,0.536,0.2,0.936,0.601c0.112,0.136,0.271,0.266,0.48,0.39
		c0.208,0.124,0.4,0.187,0.576,0.187c0.744,0,1.116-0.305,1.116-0.912c0-0.185-0.102-0.338-0.306-0.462s-0.458-0.214-0.762-0.271
		c-0.304-0.056-0.632-0.146-0.984-0.27s-0.68-0.271-0.984-0.438s-0.558-0.434-0.762-0.798c-0.204-0.364-0.306-0.802-0.306-1.313
		c0-0.704,0.262-1.318,0.786-1.843c0.524-0.523,1.238-0.786,2.142-0.786c0.48,0,0.918,0.062,1.314,0.187
		c0.396,0.124,0.67,0.25,0.822,0.378l0.3,0.228c0.248,0.232,0.372,0.429,0.372,0.589s-0.096,0.38-0.288,0.659
		c-0.272,0.4-0.552,0.601-0.84,0.601c-0.168,0-0.376-0.08-0.624-0.24c-0.024-0.016-0.07-0.056-0.138-0.12
		c-0.068-0.063-0.13-0.115-0.186-0.156c-0.168-0.104-0.382-0.155-0.642-0.155c-0.26,0-0.476,0.062-0.648,0.186
		c-0.172,0.124-0.258,0.296-0.258,0.517c0,0.22,0.102,0.397,0.306,0.533c0.204,0.137,0.458,0.229,0.762,0.276
		c0.304,0.048,0.636,0.122,0.996,0.222c0.36,0.101,0.692,0.223,0.996,0.366c0.304,0.145,0.558,0.395,0.762,0.75
		c0.204,0.356,0.306,0.794,0.306,1.314c0,0.52-0.104,0.978-0.312,1.374c-0.208,0.396-0.48,0.701-0.816,0.918
		c-0.648,0.424-1.34,0.636-2.076,0.636c-0.376,0-0.732-0.046-1.068-0.138c-0.336-0.093-0.608-0.206-0.816-0.343
		c-0.424-0.256-0.72-0.504-0.888-0.743L65.227,182.187z"/>
	<path class="st2" d="M75.415,181.3h3.696c0.184,0,0.322,0.006,0.414,0.018c0.092,0.013,0.198,0.051,0.318,0.114
		c0.216,0.112,0.324,0.424,0.324,0.937c0,0.56-0.148,0.888-0.444,0.983c-0.136,0.048-0.344,0.072-0.624,0.072h-4.752
		c-0.56,0-0.888-0.152-0.984-0.456c-0.048-0.128-0.072-0.332-0.072-0.612v-6.672c0-0.408,0.076-0.686,0.228-0.834
		c0.152-0.147,0.44-0.222,0.864-0.222h4.728c0.184,0,0.322,0.006,0.414,0.018c0.092,0.013,0.198,0.051,0.318,0.114
		c0.216,0.112,0.324,0.424,0.324,0.937c0,0.56-0.148,0.888-0.444,0.983c-0.136,0.048-0.344,0.072-0.624,0.072h-3.684v1.212h2.376
		c0.184,0,0.322,0.006,0.414,0.018c0.092,0.013,0.198,0.051,0.318,0.114c0.216,0.112,0.324,0.424,0.324,0.937
		c0,0.56-0.152,0.888-0.456,0.983c-0.136,0.048-0.344,0.072-0.624,0.072h-2.352V181.3z"/>
	<path class="st2" d="M90.175,174.759c0.472,0.232,0.708,0.488,0.708,0.768c0,0.129-0.06,0.32-0.18,0.576l-3.312,6.721
		c-0.088,0.176-0.222,0.317-0.402,0.426c-0.18,0.107-0.366,0.162-0.558,0.162h-0.12c-0.2,0-0.39-0.055-0.57-0.162
		c-0.18-0.108-0.314-0.25-0.402-0.426l-3.312-6.721c-0.12-0.256-0.18-0.447-0.18-0.576c0-0.279,0.236-0.535,0.708-0.768
		c0.264-0.136,0.466-0.204,0.606-0.204c0.14,0,0.246,0.017,0.318,0.048c0.072,0.032,0.14,0.089,0.204,0.168
		c0.072,0.097,0.138,0.202,0.198,0.318s0.214,0.448,0.462,0.996s0.514,1.13,0.798,1.746c0.284,0.616,0.552,1.198,0.804,1.746
		s0.394,0.854,0.426,0.918l2.4-5.256c0.064-0.152,0.12-0.272,0.168-0.36c0.144-0.216,0.32-0.324,0.528-0.324
		S89.911,174.624,90.175,174.759z"/>
	<path class="st2" d="M94.866,181.3h3.696c0.184,0,0.322,0.006,0.414,0.018c0.092,0.013,0.198,0.051,0.318,0.114
		c0.216,0.112,0.324,0.424,0.324,0.937c0,0.56-0.148,0.888-0.444,0.983c-0.136,0.048-0.344,0.072-0.624,0.072h-4.752
		c-0.56,0-0.888-0.152-0.984-0.456c-0.048-0.128-0.072-0.332-0.072-0.612v-6.672c0-0.408,0.076-0.686,0.228-0.834
		c0.152-0.147,0.44-0.222,0.864-0.222h4.728c0.184,0,0.322,0.006,0.414,0.018c0.092,0.013,0.198,0.051,0.318,0.114
		c0.216,0.112,0.324,0.424,0.324,0.937c0,0.56-0.148,0.888-0.444,0.983c-0.136,0.048-0.344,0.072-0.624,0.072h-3.684v1.212h2.376
		c0.184,0,0.322,0.006,0.414,0.018c0.092,0.013,0.198,0.051,0.318,0.114c0.216,0.112,0.324,0.424,0.324,0.937
		c0,0.56-0.152,0.888-0.456,0.983c-0.136,0.048-0.344,0.072-0.624,0.072h-2.352V181.3z"/>
	<path class="st2" d="M107.281,174.994c0.076-0.141,0.19-0.234,0.342-0.282s0.342-0.072,0.57-0.072c0.228,0,0.412,0.021,0.552,0.061
		s0.244,0.088,0.312,0.144s0.118,0.141,0.15,0.252c0.048,0.128,0.072,0.332,0.072,0.612v6.66c0,0.191-0.006,0.332-0.018,0.42
		c-0.012,0.088-0.05,0.191-0.114,0.312c-0.112,0.216-0.424,0.324-0.936,0.324c-0.312,0-0.528-0.024-0.648-0.072
		c-0.12-0.048-0.22-0.124-0.3-0.228c-1.8-2.4-2.984-3.968-3.552-4.704v3.948c0,0.191-0.006,0.332-0.018,0.42
		c-0.012,0.088-0.05,0.191-0.114,0.312c-0.112,0.216-0.424,0.324-0.936,0.324c-0.496,0-0.8-0.108-0.912-0.324
		c-0.064-0.12-0.102-0.228-0.114-0.324c-0.012-0.096-0.018-0.235-0.018-0.42v-6.695c0-0.305,0.038-0.526,0.114-0.666
		c0.076-0.141,0.19-0.234,0.342-0.282s0.348-0.072,0.588-0.072c0.24,0,0.43,0.022,0.57,0.066c0.14,0.044,0.238,0.094,0.294,0.149
		c0.032,0.024,0.124,0.129,0.276,0.312c1.688,2.296,2.816,3.812,3.384,4.548v-4.056
		C107.166,175.355,107.204,175.134,107.281,174.994z"/>
</g>
<g>
	<path class="st2" d="M183.194,181.305h3.696c0.184,0,0.322,0.006,0.414,0.018c0.092,0.013,0.198,0.051,0.318,0.114
		c0.216,0.112,0.324,0.424,0.324,0.937c0,0.56-0.148,0.888-0.444,0.983c-0.136,0.048-0.344,0.072-0.624,0.072h-4.752
		c-0.56,0-0.888-0.152-0.984-0.456c-0.048-0.128-0.072-0.332-0.072-0.612v-6.672c0-0.408,0.076-0.686,0.228-0.834
		c0.152-0.147,0.44-0.222,0.864-0.222h4.728c0.184,0,0.322,0.006,0.414,0.018c0.092,0.013,0.198,0.051,0.318,0.114
		c0.216,0.112,0.324,0.424,0.324,0.937c0,0.56-0.148,0.888-0.444,0.983c-0.136,0.048-0.344,0.072-0.624,0.072h-3.684v1.212h2.376
		c0.184,0,0.322,0.006,0.414,0.018c0.092,0.013,0.198,0.051,0.318,0.114c0.216,0.112,0.324,0.424,0.324,0.937
		c0,0.56-0.152,0.888-0.456,0.983c-0.136,0.048-0.344,0.072-0.624,0.072h-2.352V181.305z"/>
	<path class="st2" d="M189.926,175.689c0-0.184,0.006-0.321,0.018-0.414c0.012-0.092,0.05-0.197,0.114-0.317
		c0.112-0.217,0.424-0.324,0.936-0.324c0.56,0,0.892,0.148,0.996,0.444c0.04,0.136,0.06,0.344,0.06,0.624v6.672
		c0,0.191-0.006,0.332-0.018,0.42c-0.012,0.088-0.05,0.191-0.114,0.312c-0.112,0.216-0.424,0.324-0.936,0.324
		c-0.56,0-0.888-0.152-0.984-0.456c-0.048-0.128-0.072-0.332-0.072-0.612V175.689z"/>
	<path class="st2" d="M198.794,178.126h2.112c0.432,0.016,0.696,0.128,0.792,0.336c0.08,0.151,0.12,0.376,0.12,0.672v2.64
		c0,0.257-0.112,0.5-0.336,0.732c-0.672,0.696-1.68,1.044-3.024,1.044c-1.192,0-2.228-0.45-3.108-1.351
		c-0.88-0.899-1.32-1.985-1.32-3.258c0-1.271,0.448-2.334,1.344-3.186c0.896-0.853,1.952-1.278,3.168-1.278
		c0.944,0,1.836,0.312,2.676,0.937c0.216,0.16,0.324,0.338,0.324,0.533c0,0.196-0.092,0.423-0.276,0.679
		c-0.312,0.424-0.596,0.636-0.852,0.636c-0.152,0-0.396-0.11-0.732-0.33s-0.736-0.33-1.2-0.33c-0.608,0-1.148,0.214-1.62,0.643
		c-0.472,0.428-0.708,0.987-0.708,1.68s0.24,1.28,0.72,1.764c0.48,0.484,1.024,0.727,1.632,0.727c0.44,0,0.836-0.072,1.188-0.217
		v-1.308h-0.948c-0.248,0-0.424-0.032-0.528-0.096c-0.104-0.064-0.172-0.158-0.204-0.282c-0.032-0.124-0.048-0.292-0.048-0.504
		s0.018-0.382,0.054-0.51s0.102-0.217,0.198-0.265C198.362,178.162,198.554,178.126,198.794,178.126z"/>
	<path class="st2" d="M209.414,174.958c0.064-0.12,0.172-0.204,0.324-0.252c0.152-0.049,0.344-0.072,0.576-0.072
		s0.416,0.02,0.552,0.06c0.136,0.04,0.24,0.089,0.312,0.145c0.072,0.056,0.128,0.136,0.168,0.24c0.04,0.136,0.06,0.344,0.06,0.624
		v6.659c0,0.185-0.006,0.322-0.018,0.414c-0.012,0.093-0.05,0.198-0.114,0.318c-0.112,0.216-0.424,0.324-0.936,0.324
		c-0.56,0-0.888-0.148-0.984-0.444c-0.048-0.136-0.072-0.344-0.072-0.624v-2.436h-3.18v2.447c0,0.185-0.006,0.322-0.018,0.414
		c-0.012,0.093-0.05,0.198-0.114,0.318c-0.112,0.216-0.424,0.324-0.936,0.324c-0.56,0-0.888-0.148-0.984-0.444
		c-0.048-0.136-0.072-0.344-0.072-0.624v-6.66c0-0.184,0.006-0.321,0.018-0.414c0.012-0.092,0.05-0.197,0.114-0.317
		c0.112-0.217,0.424-0.324,0.936-0.324c0.56,0,0.892,0.148,0.996,0.444c0.04,0.136,0.06,0.344,0.06,0.624v2.447h3.18v-2.46
		c0-0.184,0.006-0.321,0.018-0.414C209.312,175.183,209.35,175.078,209.414,174.958z"/>
	<path class="st2" d="M214.142,174.622h6.672c0.256,0,0.444,0.029,0.564,0.09c0.12,0.06,0.2,0.154,0.24,0.282
		c0.04,0.128,0.06,0.296,0.06,0.504s-0.02,0.374-0.06,0.498c-0.041,0.124-0.108,0.21-0.204,0.258
		c-0.144,0.072-0.348,0.107-0.612,0.107h-2.292v6.036c0,0.185-0.006,0.32-0.018,0.408c-0.012,0.088-0.048,0.19-0.108,0.306
		c-0.06,0.116-0.166,0.198-0.318,0.246s-0.352,0.072-0.6,0.072s-0.446-0.024-0.594-0.072c-0.148-0.048-0.252-0.13-0.312-0.246
		c-0.06-0.115-0.096-0.22-0.108-0.312c-0.012-0.092-0.018-0.23-0.018-0.414v-6.024h-2.304c-0.256,0-0.444-0.029-0.564-0.09
		c-0.12-0.06-0.2-0.153-0.24-0.282c-0.041-0.128-0.06-0.296-0.06-0.504s0.02-0.374,0.06-0.498c0.04-0.124,0.108-0.21,0.204-0.258
		C213.674,174.657,213.878,174.622,214.142,174.622z"/>
</g>
<g>
	<path class="st2" d="M66.912,198.226c0.076-0.141,0.19-0.234,0.342-0.282s0.342-0.072,0.57-0.072c0.228,0,0.412,0.021,0.552,0.061
		s0.244,0.088,0.312,0.144s0.118,0.141,0.15,0.252c0.048,0.128,0.072,0.332,0.072,0.612v6.66c0,0.191-0.006,0.332-0.018,0.42
		c-0.012,0.088-0.05,0.191-0.114,0.312c-0.112,0.216-0.424,0.324-0.936,0.324c-0.312,0-0.528-0.024-0.648-0.072
		c-0.12-0.048-0.22-0.124-0.3-0.228c-1.8-2.4-2.984-3.968-3.552-4.704v3.948c0,0.191-0.006,0.332-0.018,0.42
		c-0.012,0.088-0.05,0.191-0.114,0.312c-0.112,0.216-0.424,0.324-0.936,0.324c-0.496,0-0.8-0.108-0.912-0.324
		c-0.064-0.12-0.102-0.228-0.114-0.324c-0.012-0.096-0.018-0.235-0.018-0.42v-6.695c0-0.305,0.038-0.526,0.114-0.666
		c0.076-0.141,0.19-0.234,0.342-0.282s0.348-0.072,0.588-0.072c0.24,0,0.43,0.022,0.57,0.066c0.14,0.044,0.238,0.094,0.294,0.149
		c0.032,0.024,0.124,0.129,0.276,0.312c1.688,2.296,2.816,3.812,3.384,4.548v-4.056C66.798,198.587,66.836,198.365,66.912,198.226z"
		/>
	<path class="st2" d="M71.07,198.915c0-0.184,0.006-0.321,0.018-0.414c0.012-0.092,0.05-0.197,0.114-0.317
		c0.112-0.217,0.424-0.324,0.936-0.324c0.56,0,0.892,0.148,0.996,0.444c0.04,0.136,0.06,0.344,0.06,0.624v6.672
		c0,0.191-0.006,0.332-0.018,0.42c-0.012,0.088-0.05,0.191-0.114,0.312c-0.112,0.216-0.424,0.324-0.936,0.324
		c-0.56,0-0.888-0.152-0.984-0.456c-0.048-0.128-0.072-0.332-0.072-0.612V198.915z"/>
	<path class="st2" d="M81.035,198.226c0.076-0.141,0.19-0.234,0.342-0.282s0.342-0.072,0.57-0.072c0.228,0,0.412,0.021,0.552,0.061
		s0.244,0.088,0.312,0.144s0.118,0.141,0.15,0.252c0.048,0.128,0.072,0.332,0.072,0.612v6.66c0,0.191-0.006,0.332-0.018,0.42
		c-0.012,0.088-0.05,0.191-0.114,0.312c-0.112,0.216-0.424,0.324-0.936,0.324c-0.312,0-0.528-0.024-0.648-0.072
		c-0.12-0.048-0.22-0.124-0.3-0.228c-1.8-2.4-2.984-3.968-3.552-4.704v3.948c0,0.191-0.006,0.332-0.018,0.42
		c-0.012,0.088-0.05,0.191-0.114,0.312c-0.112,0.216-0.424,0.324-0.936,0.324c-0.496,0-0.8-0.108-0.912-0.324
		c-0.064-0.12-0.102-0.228-0.114-0.324c-0.012-0.096-0.018-0.235-0.018-0.42v-6.695c0-0.305,0.038-0.526,0.114-0.666
		c0.076-0.141,0.19-0.234,0.342-0.282s0.348-0.072,0.588-0.072c0.24,0,0.43,0.022,0.57,0.066c0.14,0.044,0.238,0.094,0.294,0.149
		c0.032,0.024,0.124,0.129,0.276,0.312c1.688,2.296,2.816,3.812,3.384,4.548v-4.056C80.921,198.587,80.959,198.365,81.035,198.226z"
		/>
	<path class="st2" d="M87.317,204.531h3.696c0.184,0,0.322,0.006,0.414,0.018c0.092,0.013,0.198,0.051,0.318,0.114
		c0.216,0.112,0.324,0.424,0.324,0.937c0,0.56-0.148,0.888-0.444,0.983c-0.136,0.048-0.344,0.072-0.624,0.072h-4.752
		c-0.56,0-0.888-0.152-0.984-0.456c-0.048-0.128-0.072-0.332-0.072-0.612v-6.672c0-0.408,0.076-0.686,0.228-0.834
		c0.152-0.147,0.44-0.222,0.864-0.222h4.728c0.184,0,0.322,0.006,0.414,0.018c0.092,0.013,0.198,0.051,0.318,0.114
		c0.216,0.112,0.324,0.424,0.324,0.937c0,0.56-0.148,0.888-0.444,0.983c-0.136,0.048-0.344,0.072-0.624,0.072h-3.684v1.212h2.376
		c0.184,0,0.322,0.006,0.414,0.018c0.092,0.013,0.198,0.051,0.318,0.114c0.216,0.112,0.324,0.424,0.324,0.937
		c0,0.56-0.152,0.888-0.456,0.983c-0.136,0.048-0.344,0.072-0.624,0.072h-2.352V204.531z"/>
</g>
<g>
	<path class="st2" d="M199.485,197.854h6.672c0.256,0,0.444,0.029,0.564,0.09c0.12,0.06,0.2,0.154,0.24,0.282
		c0.04,0.128,0.06,0.296,0.06,0.504s-0.02,0.374-0.06,0.498c-0.041,0.124-0.108,0.21-0.204,0.258
		c-0.144,0.072-0.348,0.107-0.612,0.107h-2.292v6.036c0,0.185-0.006,0.32-0.018,0.408c-0.012,0.088-0.048,0.19-0.108,0.306
		c-0.06,0.116-0.166,0.198-0.318,0.246s-0.352,0.072-0.6,0.072s-0.446-0.024-0.594-0.072c-0.148-0.048-0.252-0.13-0.312-0.246
		c-0.06-0.115-0.096-0.22-0.108-0.312c-0.012-0.092-0.018-0.23-0.018-0.414v-6.024h-2.304c-0.256,0-0.444-0.029-0.564-0.09
		c-0.12-0.06-0.2-0.153-0.24-0.282c-0.041-0.128-0.06-0.296-0.06-0.504s0.02-0.374,0.06-0.498c0.04-0.124,0.108-0.21,0.204-0.258
		C199.017,197.889,199.221,197.854,199.485,197.854z"/>
	<path class="st2" d="M211.005,204.537h3.696c0.184,0,0.322,0.006,0.414,0.018c0.092,0.013,0.198,0.051,0.318,0.114
		c0.216,0.112,0.324,0.424,0.324,0.937c0,0.56-0.148,0.888-0.444,0.983c-0.136,0.048-0.344,0.072-0.624,0.072h-4.752
		c-0.56,0-0.888-0.152-0.984-0.456c-0.048-0.128-0.072-0.332-0.072-0.612v-6.672c0-0.408,0.076-0.686,0.228-0.834
		c0.152-0.147,0.44-0.222,0.864-0.222h4.728c0.184,0,0.322,0.006,0.414,0.018c0.092,0.013,0.198,0.051,0.318,0.114
		c0.216,0.112,0.324,0.424,0.324,0.937c0,0.56-0.148,0.888-0.444,0.983c-0.136,0.048-0.344,0.072-0.624,0.072h-3.684v1.212h2.376
		c0.184,0,0.322,0.006,0.414,0.018c0.092,0.013,0.198,0.051,0.318,0.114c0.216,0.112,0.324,0.424,0.324,0.937
		c0,0.56-0.152,0.888-0.456,0.983c-0.136,0.048-0.344,0.072-0.624,0.072h-2.352V204.537z"/>
	<path class="st2" d="M223.419,198.232c0.076-0.141,0.19-0.234,0.342-0.282s0.342-0.072,0.57-0.072c0.228,0,0.412,0.021,0.552,0.061
		s0.244,0.088,0.312,0.144s0.118,0.141,0.15,0.252c0.048,0.128,0.072,0.332,0.072,0.612v6.66c0,0.191-0.006,0.332-0.018,0.42
		c-0.012,0.088-0.05,0.191-0.114,0.312c-0.112,0.216-0.424,0.324-0.936,0.324c-0.312,0-0.528-0.024-0.648-0.072
		c-0.12-0.048-0.22-0.124-0.3-0.228c-1.8-2.4-2.984-3.968-3.552-4.704v3.948c0,0.191-0.006,0.332-0.018,0.42
		c-0.012,0.088-0.05,0.191-0.114,0.312c-0.112,0.216-0.424,0.324-0.936,0.324c-0.496,0-0.8-0.108-0.912-0.324
		c-0.064-0.12-0.102-0.228-0.114-0.324c-0.012-0.096-0.018-0.235-0.018-0.42v-6.695c0-0.305,0.038-0.526,0.114-0.666
		c0.076-0.141,0.19-0.234,0.342-0.282s0.348-0.072,0.588-0.072c0.24,0,0.43,0.022,0.57,0.066c0.14,0.044,0.238,0.094,0.294,0.149
		c0.032,0.024,0.124,0.129,0.276,0.312c1.688,2.296,2.816,3.812,3.384,4.548v-4.056
		C223.305,198.593,223.343,198.371,223.419,198.232z"/>
</g>
<g>
	<path class="st2" d="M118.73,204.568h3.696c0.184,0,0.322,0.006,0.414,0.018c0.092,0.013,0.198,0.051,0.318,0.114
		c0.216,0.112,0.324,0.424,0.324,0.937c0,0.56-0.148,0.888-0.444,0.983c-0.136,0.048-0.344,0.072-0.624,0.072h-4.752
		c-0.56,0-0.888-0.152-0.984-0.456c-0.048-0.128-0.072-0.332-0.072-0.612v-6.672c0-0.408,0.076-0.686,0.228-0.834
		c0.152-0.147,0.44-0.222,0.864-0.222h4.728c0.184,0,0.322,0.006,0.414,0.018c0.092,0.013,0.198,0.051,0.318,0.114
		c0.216,0.112,0.324,0.424,0.324,0.937c0,0.56-0.148,0.888-0.444,0.983c-0.136,0.048-0.344,0.072-0.624,0.072h-3.684v1.212h2.376
		c0.184,0,0.322,0.006,0.414,0.018c0.092,0.013,0.198,0.051,0.318,0.114c0.216,0.112,0.324,0.424,0.324,0.937
		c0,0.56-0.152,0.888-0.456,0.983c-0.136,0.048-0.344,0.072-0.624,0.072h-2.352V204.568z"/>
	<path class="st2" d="M127.586,204.915h3.264c0.264,0,0.456,0.03,0.576,0.091c0.12,0.06,0.2,0.153,0.24,0.281s0.06,0.299,0.06,0.511
		s-0.02,0.382-0.06,0.51s-0.108,0.216-0.204,0.264c-0.152,0.08-0.36,0.12-0.624,0.12h-4.32c-0.56,0-0.888-0.152-0.984-0.456
		c-0.048-0.128-0.072-0.332-0.072-0.612v-6.672c0-0.184,0.006-0.321,0.018-0.414c0.012-0.092,0.05-0.197,0.114-0.317
		c0.112-0.217,0.424-0.324,0.936-0.324c0.56,0,0.892,0.148,0.996,0.444c0.04,0.136,0.06,0.344,0.06,0.624V204.915z"/>
	<path class="st2" d="M135.829,204.568h3.696c0.184,0,0.322,0.006,0.414,0.018c0.092,0.013,0.198,0.051,0.318,0.114
		c0.216,0.112,0.324,0.424,0.324,0.937c0,0.56-0.148,0.888-0.444,0.983c-0.136,0.048-0.344,0.072-0.624,0.072h-4.752
		c-0.56,0-0.888-0.152-0.984-0.456c-0.048-0.128-0.072-0.332-0.072-0.612v-6.672c0-0.408,0.076-0.686,0.228-0.834
		c0.152-0.147,0.44-0.222,0.864-0.222h4.728c0.184,0,0.322,0.006,0.414,0.018c0.092,0.013,0.198,0.051,0.318,0.114
		c0.216,0.112,0.324,0.424,0.324,0.937c0,0.56-0.148,0.888-0.444,0.983c-0.136,0.048-0.344,0.072-0.624,0.072h-3.684v1.212h2.376
		c0.184,0,0.322,0.006,0.414,0.018c0.092,0.013,0.198,0.051,0.318,0.114c0.216,0.112,0.324,0.424,0.324,0.937
		c0,0.56-0.152,0.888-0.456,0.983c-0.136,0.048-0.344,0.072-0.624,0.072h-2.352V204.568z"/>
	<path class="st2" d="M150.589,198.028c0.472,0.232,0.708,0.488,0.708,0.768c0,0.129-0.06,0.32-0.18,0.576l-3.312,6.721
		c-0.088,0.176-0.222,0.317-0.402,0.426c-0.18,0.107-0.366,0.162-0.558,0.162h-0.12c-0.2,0-0.39-0.055-0.57-0.162
		c-0.18-0.108-0.314-0.25-0.402-0.426l-3.312-6.721c-0.12-0.256-0.18-0.447-0.18-0.576c0-0.279,0.236-0.535,0.708-0.768
		c0.264-0.136,0.466-0.204,0.606-0.204c0.14,0,0.246,0.017,0.318,0.048c0.072,0.032,0.14,0.089,0.204,0.168
		c0.072,0.097,0.138,0.202,0.198,0.318s0.214,0.448,0.462,0.996s0.514,1.13,0.798,1.746c0.284,0.616,0.552,1.198,0.804,1.746
		s0.394,0.854,0.426,0.918l2.4-5.256c0.064-0.152,0.12-0.272,0.168-0.36c0.144-0.216,0.32-0.324,0.528-0.324
		S150.325,197.892,150.589,198.028z"/>
	<path class="st2" d="M155.281,204.568h3.696c0.184,0,0.322,0.006,0.414,0.018c0.092,0.013,0.198,0.051,0.318,0.114
		c0.216,0.112,0.324,0.424,0.324,0.937c0,0.56-0.148,0.888-0.444,0.983c-0.136,0.048-0.344,0.072-0.624,0.072h-4.752
		c-0.56,0-0.888-0.152-0.984-0.456c-0.048-0.128-0.072-0.332-0.072-0.612v-6.672c0-0.408,0.076-0.686,0.228-0.834
		c0.152-0.147,0.44-0.222,0.864-0.222h4.728c0.184,0,0.322,0.006,0.414,0.018c0.092,0.013,0.198,0.051,0.318,0.114
		c0.216,0.112,0.324,0.424,0.324,0.937c0,0.56-0.148,0.888-0.444,0.983c-0.136,0.048-0.344,0.072-0.624,0.072h-3.684v1.212h2.376
		c0.184,0,0.322,0.006,0.414,0.018c0.092,0.013,0.198,0.051,0.318,0.114c0.216,0.112,0.324,0.424,0.324,0.937
		c0,0.56-0.152,0.888-0.456,0.983c-0.136,0.048-0.344,0.072-0.624,0.072h-2.352V204.568z"/>
	<path class="st2" d="M167.695,198.262c0.076-0.141,0.19-0.234,0.342-0.282s0.342-0.072,0.57-0.072c0.228,0,0.412,0.021,0.552,0.061
		s0.244,0.088,0.312,0.144s0.118,0.141,0.15,0.252c0.048,0.128,0.072,0.332,0.072,0.612v6.66c0,0.191-0.006,0.332-0.018,0.42
		c-0.012,0.088-0.05,0.191-0.114,0.312c-0.112,0.216-0.424,0.324-0.936,0.324c-0.312,0-0.528-0.024-0.648-0.072
		c-0.12-0.048-0.22-0.124-0.3-0.228c-1.8-2.4-2.984-3.968-3.552-4.704v3.948c0,0.191-0.006,0.332-0.018,0.42
		c-0.012,0.088-0.05,0.191-0.114,0.312c-0.112,0.216-0.424,0.324-0.936,0.324c-0.496,0-0.8-0.108-0.912-0.324
		c-0.064-0.12-0.102-0.228-0.114-0.324c-0.012-0.096-0.018-0.235-0.018-0.42v-6.695c0-0.305,0.038-0.526,0.114-0.666
		c0.076-0.141,0.19-0.234,0.342-0.282s0.348-0.072,0.588-0.072c0.24,0,0.43,0.022,0.57,0.066c0.14,0.044,0.238,0.094,0.294,0.149
		c0.032,0.024,0.124,0.129,0.276,0.312c1.688,2.296,2.816,3.812,3.384,4.548v-4.056
		C167.581,198.623,167.619,198.402,167.695,198.262z"/>
</g>
<g>
	<path class="st2" d="M164.878,220.996c1.184,0,2.212,0.429,3.084,1.284c0.872,0.856,1.308,1.918,1.308,3.187
		c0,1.268-0.416,2.348-1.248,3.239c-0.832,0.893-1.856,1.338-3.072,1.338c-1.216,0-2.25-0.439-3.102-1.319s-1.278-1.928-1.278-3.145
		c0-0.664,0.12-1.285,0.36-1.865c0.24-0.58,0.56-1.066,0.96-1.458c0.4-0.393,0.86-0.7,1.38-0.925
		C163.79,221.108,164.326,220.996,164.878,220.996z M162.694,225.52c0,0.712,0.23,1.29,0.69,1.733
		c0.46,0.444,0.974,0.666,1.542,0.666c0.568,0,1.08-0.216,1.536-0.647s0.684-1.012,0.684-1.74c0-0.728-0.23-1.312-0.69-1.752
		c-0.46-0.439-0.974-0.66-1.542-0.66c-0.568,0-1.08,0.223-1.536,0.666C162.922,224.23,162.694,224.808,162.694,225.52z"/>
	<path class="st2" d="M173.11,221.356c0.136,0.136,0.204,0.368,0.204,0.696v0.191c0,0.2-0.008,0.349-0.024,0.444
		c-0.056,0.704-0.264,1.308-0.624,1.812s-0.816,0.757-1.368,0.757c-0.056,0-0.106-0.042-0.15-0.126s-0.066-0.194-0.066-0.33
		c0-0.137,0.018-0.242,0.054-0.318c0.036-0.076,0.076-0.12,0.12-0.132s0.078-0.021,0.102-0.024s0.068-0.023,0.132-0.06
		c0.064-0.036,0.12-0.086,0.168-0.15c0.128-0.168,0.2-0.428,0.216-0.78c-0.272-0.039-0.474-0.127-0.606-0.264
		c-0.132-0.136-0.198-0.424-0.198-0.864c0-0.319,0.04-0.558,0.12-0.714c0.08-0.155,0.202-0.26,0.366-0.312
		c0.164-0.052,0.418-0.078,0.762-0.078C172.662,221.104,172.925,221.188,173.11,221.356z"/>
	<path class="st2" d="M180.79,227.596l0.216-0.156c0.272-0.16,0.464-0.24,0.576-0.24c0.248,0,0.516,0.225,0.804,0.672
		c0.176,0.28,0.264,0.504,0.264,0.672s-0.054,0.309-0.162,0.421c-0.108,0.111-0.234,0.212-0.378,0.3s-0.282,0.172-0.414,0.252
		c-0.132,0.08-0.402,0.184-0.81,0.312c-0.408,0.128-0.802,0.192-1.182,0.192c-0.38,0-0.764-0.05-1.152-0.15
		c-0.388-0.1-0.788-0.268-1.2-0.504c-0.412-0.235-0.782-0.523-1.11-0.864c-0.328-0.34-0.598-0.775-0.81-1.308
		c-0.212-0.532-0.318-1.11-0.318-1.734s0.104-1.189,0.312-1.697s0.474-0.929,0.798-1.261c0.324-0.331,0.694-0.609,1.11-0.834
		c0.784-0.432,1.572-0.647,2.364-0.647c0.376,0,0.758,0.058,1.146,0.174c0.388,0.116,0.682,0.234,0.882,0.354l0.288,0.168
		c0.144,0.088,0.256,0.16,0.336,0.216c0.208,0.168,0.312,0.357,0.312,0.569c0,0.213-0.084,0.435-0.252,0.666
		c-0.312,0.433-0.592,0.648-0.84,0.648c-0.144,0-0.348-0.088-0.612-0.264c-0.336-0.272-0.784-0.408-1.344-0.408
		c-0.52,0-1.032,0.18-1.536,0.54c-0.24,0.176-0.44,0.424-0.6,0.744c-0.16,0.319-0.24,0.682-0.24,1.086
		c0,0.403,0.08,0.766,0.24,1.086c0.16,0.32,0.364,0.572,0.612,0.756c0.488,0.353,0.996,0.528,1.524,0.528
		c0.248,0,0.482-0.032,0.702-0.097C180.536,227.724,180.694,227.66,180.79,227.596z"/>
	<path class="st2" d="M186.765,228.124h3.264c0.264,0,0.456,0.03,0.576,0.091c0.12,0.06,0.2,0.153,0.24,0.281s0.06,0.299,0.06,0.511
		s-0.02,0.382-0.06,0.51s-0.108,0.216-0.204,0.264c-0.152,0.08-0.36,0.12-0.624,0.12h-4.32c-0.56,0-0.888-0.152-0.984-0.456
		c-0.048-0.128-0.072-0.332-0.072-0.612v-6.672c0-0.184,0.006-0.321,0.018-0.414c0.012-0.092,0.05-0.197,0.114-0.317
		c0.112-0.217,0.424-0.324,0.936-0.324c0.56,0,0.892,0.148,0.996,0.444c0.04,0.136,0.06,0.344,0.06,0.624V228.124z"/>
	<path class="st2" d="M197.013,220.996c1.184,0,2.212,0.429,3.084,1.284c0.872,0.856,1.308,1.918,1.308,3.187
		c0,1.268-0.416,2.348-1.248,3.239c-0.832,0.893-1.856,1.338-3.072,1.338c-1.216,0-2.25-0.439-3.102-1.319s-1.278-1.928-1.278-3.145
		c0-0.664,0.12-1.285,0.36-1.865c0.24-0.58,0.56-1.066,0.96-1.458c0.4-0.393,0.86-0.7,1.38-0.925
		C195.925,221.108,196.462,220.996,197.013,220.996z M194.829,225.52c0,0.712,0.23,1.29,0.69,1.733
		c0.46,0.444,0.974,0.666,1.542,0.666c0.568,0,1.08-0.216,1.536-0.647s0.684-1.012,0.684-1.74c0-0.728-0.23-1.312-0.69-1.752
		c-0.46-0.439-0.974-0.66-1.542-0.66c-0.568,0-1.08,0.223-1.536,0.666C195.057,224.23,194.829,224.808,194.829,225.52z"/>
	<path class="st2" d="M208.882,227.596l0.216-0.156c0.272-0.16,0.464-0.24,0.576-0.24c0.248,0,0.516,0.225,0.804,0.672
		c0.176,0.28,0.264,0.504,0.264,0.672s-0.054,0.309-0.162,0.421c-0.108,0.111-0.234,0.212-0.378,0.3s-0.282,0.172-0.414,0.252
		c-0.132,0.08-0.402,0.184-0.81,0.312c-0.408,0.128-0.802,0.192-1.182,0.192c-0.38,0-0.764-0.05-1.152-0.15
		c-0.388-0.1-0.788-0.268-1.2-0.504c-0.412-0.235-0.782-0.523-1.11-0.864c-0.328-0.34-0.598-0.775-0.81-1.308
		c-0.212-0.532-0.318-1.11-0.318-1.734s0.104-1.189,0.312-1.697s0.474-0.929,0.798-1.261c0.324-0.331,0.694-0.609,1.11-0.834
		c0.784-0.432,1.572-0.647,2.364-0.647c0.376,0,0.758,0.058,1.146,0.174c0.388,0.116,0.682,0.234,0.882,0.354l0.288,0.168
		c0.144,0.088,0.256,0.16,0.336,0.216c0.208,0.168,0.312,0.357,0.312,0.569c0,0.213-0.084,0.435-0.252,0.666
		c-0.312,0.433-0.592,0.648-0.84,0.648c-0.144,0-0.348-0.088-0.612-0.264c-0.336-0.272-0.784-0.408-1.344-0.408
		c-0.52,0-1.032,0.18-1.536,0.54c-0.24,0.176-0.44,0.424-0.6,0.744c-0.16,0.319-0.24,0.682-0.24,1.086
		c0,0.403,0.08,0.766,0.24,1.086c0.16,0.32,0.364,0.572,0.612,0.756c0.488,0.353,0.996,0.528,1.524,0.528
		c0.248,0,0.482-0.032,0.702-0.097C208.628,227.724,208.785,227.66,208.882,227.596z"/>
	<path class="st2" d="M216.501,225.484c1.224,1.176,2.092,2.061,2.604,2.652c0.264,0.296,0.396,0.546,0.396,0.75
		s-0.16,0.443-0.48,0.72c-0.32,0.276-0.582,0.414-0.786,0.414s-0.45-0.168-0.738-0.504l-2.64-3.013v2.341
		c0,0.191-0.006,0.332-0.018,0.42c-0.012,0.088-0.05,0.191-0.114,0.312c-0.112,0.216-0.424,0.324-0.936,0.324
		c-0.56,0-0.888-0.152-0.984-0.456c-0.048-0.128-0.072-0.332-0.072-0.612v-6.672c0-0.184,0.006-0.321,0.018-0.414
		c0.012-0.092,0.05-0.197,0.114-0.317c0.112-0.217,0.424-0.324,0.936-0.324c0.56,0,0.892,0.148,0.996,0.444
		c0.04,0.136,0.06,0.344,0.06,0.624v2.292c1.088-1.225,1.968-2.229,2.64-3.013c0.28-0.328,0.524-0.492,0.732-0.492
		s0.472,0.139,0.792,0.414c0.32,0.276,0.48,0.517,0.48,0.721s-0.12,0.445-0.36,0.726c-0.464,0.536-1.184,1.272-2.16,2.208
		L216.501,225.484z"/>
</g>
<g>
	<path class="st2" d="M71.187,221.128h6.672c0.256,0,0.444,0.029,0.564,0.09c0.12,0.06,0.2,0.154,0.24,0.282
		c0.04,0.128,0.06,0.296,0.06,0.504s-0.02,0.374-0.06,0.498c-0.041,0.124-0.108,0.21-0.204,0.258
		c-0.144,0.072-0.348,0.107-0.612,0.107h-2.292v6.036c0,0.185-0.006,0.32-0.018,0.408c-0.012,0.088-0.048,0.19-0.108,0.306
		c-0.06,0.116-0.166,0.198-0.318,0.246s-0.352,0.072-0.6,0.072s-0.446-0.024-0.594-0.072c-0.148-0.048-0.252-0.13-0.312-0.246
		c-0.06-0.115-0.096-0.22-0.108-0.312c-0.012-0.092-0.018-0.23-0.018-0.414v-6.024h-2.304c-0.256,0-0.444-0.029-0.564-0.09
		c-0.12-0.06-0.2-0.153-0.24-0.282c-0.041-0.128-0.06-0.296-0.06-0.504s0.02-0.374,0.06-0.498c0.04-0.124,0.108-0.21,0.204-0.258
		C70.719,221.163,70.923,221.128,71.187,221.128z"/>
	<path class="st2" d="M91.106,221.188c0.536,0.192,0.804,0.448,0.804,0.768c0,0.104-0.048,0.301-0.144,0.589l-2.304,6.659
		c-0.016,0.057-0.044,0.125-0.084,0.204c-0.04,0.08-0.146,0.187-0.318,0.318c-0.172,0.132-0.376,0.198-0.612,0.198
		c-0.236,0-0.44-0.066-0.612-0.198s-0.286-0.262-0.342-0.39l-1.404-4.141c-0.888,2.624-1.34,3.96-1.356,4.008
		c-0.016,0.049-0.052,0.116-0.108,0.204c-0.056,0.089-0.12,0.168-0.192,0.24c-0.184,0.185-0.404,0.276-0.66,0.276
		s-0.466-0.061-0.63-0.181c-0.164-0.119-0.274-0.239-0.33-0.359l-0.084-0.181l-2.316-6.659c-0.088-0.265-0.132-0.46-0.132-0.589
		c0-0.319,0.268-0.571,0.804-0.756c0.232-0.079,0.442-0.12,0.63-0.12s0.332,0.064,0.432,0.192s0.19,0.324,0.27,0.588l1.32,4.008
		l1.308-3.947c0.112-0.336,0.316-0.568,0.612-0.696c0.128-0.056,0.294-0.084,0.498-0.084c0.204,0,0.394,0.065,0.57,0.198
		c0.176,0.132,0.288,0.262,0.336,0.39l1.38,4.164l1.32-4.032c0.064-0.184,0.116-0.319,0.156-0.408
		c0.04-0.088,0.114-0.174,0.222-0.258s0.242-0.126,0.402-0.126S90.891,221.108,91.106,221.188z"/>
	<path class="st2" d="M95.895,227.812h3.696c0.184,0,0.322,0.006,0.414,0.018c0.092,0.013,0.198,0.051,0.318,0.114
		c0.216,0.112,0.324,0.424,0.324,0.937c0,0.56-0.148,0.888-0.444,0.983c-0.136,0.048-0.344,0.072-0.624,0.072h-4.752
		c-0.56,0-0.888-0.152-0.984-0.456c-0.048-0.128-0.072-0.332-0.072-0.612v-6.672c0-0.408,0.076-0.686,0.228-0.834
		c0.152-0.147,0.44-0.222,0.864-0.222h4.728c0.184,0,0.322,0.006,0.414,0.018c0.092,0.013,0.198,0.051,0.318,0.114
		c0.216,0.112,0.324,0.424,0.324,0.937c0,0.56-0.148,0.888-0.444,0.983c-0.136,0.048-0.344,0.072-0.624,0.072h-3.684v1.212h2.376
		c0.184,0,0.322,0.006,0.414,0.018c0.092,0.013,0.198,0.051,0.318,0.114c0.216,0.112,0.324,0.424,0.324,0.937
		c0,0.56-0.152,0.888-0.456,0.983c-0.136,0.048-0.344,0.072-0.624,0.072h-2.352V227.812z"/>
	<path class="st2" d="M104.75,228.159h3.264c0.264,0,0.456,0.03,0.576,0.091c0.12,0.06,0.2,0.153,0.24,0.281s0.06,0.299,0.06,0.511
		s-0.02,0.382-0.06,0.51s-0.108,0.216-0.204,0.264c-0.152,0.08-0.36,0.12-0.624,0.12h-4.32c-0.56,0-0.888-0.152-0.984-0.456
		c-0.048-0.128-0.072-0.332-0.072-0.612v-6.672c0-0.184,0.006-0.321,0.018-0.414c0.012-0.092,0.05-0.197,0.114-0.317
		c0.112-0.217,0.424-0.324,0.936-0.324c0.56,0,0.892,0.148,0.996,0.444c0.04,0.136,0.06,0.344,0.06,0.624V228.159z"/>
	<path class="st2" d="M118.898,221.272c0.472,0.232,0.708,0.488,0.708,0.768c0,0.129-0.06,0.32-0.18,0.576l-3.312,6.721
		c-0.088,0.176-0.222,0.317-0.402,0.426c-0.18,0.107-0.366,0.162-0.558,0.162h-0.12c-0.2,0-0.39-0.055-0.57-0.162
		c-0.18-0.108-0.314-0.25-0.402-0.426l-3.312-6.721c-0.12-0.256-0.18-0.447-0.18-0.576c0-0.279,0.236-0.535,0.708-0.768
		c0.264-0.136,0.466-0.204,0.606-0.204c0.14,0,0.246,0.017,0.318,0.048c0.072,0.032,0.14,0.089,0.204,0.168
		c0.072,0.097,0.138,0.202,0.198,0.318s0.214,0.448,0.462,0.996s0.514,1.13,0.798,1.746c0.284,0.616,0.552,1.198,0.804,1.746
		s0.394,0.854,0.426,0.918l2.4-5.256c0.064-0.152,0.12-0.272,0.168-0.36c0.144-0.216,0.32-0.324,0.528-0.324
		S118.634,221.136,118.898,221.272z"/>
	<path class="st2" d="M123.59,227.812h3.696c0.184,0,0.322,0.006,0.414,0.018c0.092,0.013,0.198,0.051,0.318,0.114
		c0.216,0.112,0.324,0.424,0.324,0.937c0,0.56-0.148,0.888-0.444,0.983c-0.136,0.048-0.344,0.072-0.624,0.072h-4.752
		c-0.56,0-0.888-0.152-0.984-0.456c-0.048-0.128-0.072-0.332-0.072-0.612v-6.672c0-0.408,0.076-0.686,0.228-0.834
		c0.152-0.147,0.44-0.222,0.864-0.222h4.728c0.184,0,0.322,0.006,0.414,0.018c0.092,0.013,0.198,0.051,0.318,0.114
		c0.216,0.112,0.324,0.424,0.324,0.937c0,0.56-0.148,0.888-0.444,0.983c-0.136,0.048-0.344,0.072-0.624,0.072h-3.684v1.212h2.376
		c0.184,0,0.322,0.006,0.414,0.018c0.092,0.013,0.198,0.051,0.318,0.114c0.216,0.112,0.324,0.424,0.324,0.937
		c0,0.56-0.152,0.888-0.456,0.983c-0.136,0.048-0.344,0.072-0.624,0.072h-2.352V227.812z"/>
</g>
<g>
	<path d="M131.993,13.583c-0.875-0.408-1.248-1.08-1.248-1.751c0-1.235,1.043-2.075,2.423-2.075c1.511,0,2.279,0.936,2.279,1.919
		c0,0.66-0.336,1.379-1.295,1.823v0.036c0.972,0.384,1.571,1.08,1.571,2.015c0,1.367-1.164,2.267-2.651,2.267
		c-1.631,0-2.614-0.959-2.614-2.099c0-0.983,0.587-1.691,1.547-2.099L131.993,13.583z M134.656,15.657
		c0-0.936-0.66-1.403-1.715-1.703c-0.911,0.264-1.403,0.875-1.403,1.619c-0.036,0.78,0.564,1.475,1.56,1.475
		C134.044,17.048,134.656,16.461,134.656,15.657z M131.753,11.759c-0.012,0.78,0.587,1.199,1.487,1.439
		c0.672-0.228,1.188-0.708,1.188-1.416c0-0.624-0.372-1.271-1.319-1.271C132.233,10.512,131.753,11.088,131.753,11.759z"/>
	<path d="M141.903,13.702c0,2.651-0.996,4.114-2.71,4.114c-1.523,0-2.567-1.427-2.591-4.006c0-2.626,1.14-4.054,2.723-4.054
		C140.955,9.756,141.903,11.22,141.903,13.702z M137.669,13.822c0,2.027,0.624,3.178,1.583,3.178c1.067,0,1.583-1.259,1.583-3.25
		c0-1.919-0.48-3.178-1.583-3.178C138.341,10.572,137.669,11.699,137.669,13.822z"/>
	<path d="M143.201,13.45c0-0.611-0.024-1.091-0.048-1.571h0.923l0.048,0.947h0.036c0.324-0.552,0.864-1.067,1.835-1.067
		c0.779,0,1.379,0.48,1.631,1.164h0.023c0.181-0.336,0.42-0.576,0.66-0.756c0.348-0.264,0.72-0.408,1.271-0.408
		c0.779,0,1.919,0.504,1.919,2.519v3.406h-1.032V14.41c0-1.127-0.419-1.787-1.259-1.787c-0.611,0-1.067,0.443-1.26,0.947
		c-0.048,0.156-0.084,0.336-0.084,0.528v3.586h-1.031v-3.478c0-0.923-0.407-1.583-1.211-1.583c-0.648,0-1.14,0.527-1.308,1.055
		c-0.06,0.144-0.084,0.336-0.084,0.516v3.49h-1.031V13.45z"/>
	<path d="M153.21,13.45c0-0.611-0.024-1.091-0.049-1.571h0.924l0.048,0.947h0.036c0.324-0.552,0.863-1.067,1.835-1.067
		c0.779,0,1.379,0.48,1.631,1.164h0.024c0.18-0.336,0.42-0.576,0.659-0.756c0.348-0.264,0.72-0.408,1.271-0.408
		c0.779,0,1.919,0.504,1.919,2.519v3.406h-1.031V14.41c0-1.127-0.42-1.787-1.26-1.787c-0.611,0-1.067,0.443-1.259,0.947
		c-0.048,0.156-0.084,0.336-0.084,0.528v3.586h-1.031v-3.478c0-0.923-0.408-1.583-1.212-1.583c-0.647,0-1.139,0.527-1.307,1.055
		c-0.061,0.144-0.084,0.336-0.084,0.516v3.49h-1.031V13.45z"/>
</g>
<line class="st3" x1="31.102" y1="20.469" x2="31.102" y2="9.225"/>
<line class="st3" x1="257.874" y1="20.469" x2="257.874" y2="9.225"/>
<line class="st3" x1="257.874" y1="14.847" x2="165.853" y2="14.847"/>
<line class="st3" x1="123.888" y1="14.847" x2="31.102" y2="14.847"/>
</svg>
