<svg enable-background="new 0 0 288 288" height="288" viewBox="0 0 288 288" width="288" xmlns="http://www.w3.org/2000/svg"><path d="m55.888 99.803h41.1v19h-41.1z" fill="none" stroke="#e82429" stroke-miterlimit="10"/><path d="m101.188 142.003h18.5v-19h-18.5-4.2-41.1v19h41.1z" fill="none" stroke="#e82429" stroke-miterlimit="10"/><path d="m123.888 146.303h41.1v19h-41.1z" fill="none" stroke="#e82429" stroke-miterlimit="10"/><path d="m55.888 192.803h41.1v19h-41.1z" fill="none" stroke="#e82429" stroke-miterlimit="10"/><path d="m123.888 169.503h41.1v19h-41.1z" fill="none" stroke="#e82429" stroke-miterlimit="10"/><path d="m169.288 118.803h18.4v-19h-41.1-4.3-41.1v19h18.5 4.2 41.1z" fill="none" stroke="#e82429" stroke-miterlimit="10"/><path d="m74.388 146.303h-18.5v19h63.8v-19h-41.1z" fill="none" stroke="#e82429" stroke-miterlimit="10"/><path d="m123.888 123.003h41.1v19h-41.1z" fill="none" stroke="#e82429" stroke-miterlimit="10"/><path d="m101.188 95.603h41.1v-19h-41.1-4.2-41.1v19h41.1z" fill="none" stroke="#e82429" stroke-miterlimit="10"/><path d="m96.988 216.003h-41.1v19h86.4v-19h-41.1z" fill="none" stroke="#e82429" stroke-miterlimit="10"/><path d="m55.888 53.303h41.1v19h-41.1z" fill="none" stroke="#e82429" stroke-miterlimit="10"/><path d="m187.688 76.603h-41.1v19h41.1 4.2 41.1v-19h-41.1z" fill="none" stroke="#e82429" stroke-miterlimit="10"/><path d="m191.988 192.803h41.1v19h-41.1z" fill="none" stroke="#e82429" stroke-miterlimit="10"/><path d="m146.588 72.303h41.1v-19h-86.5v19h41.1z" fill="none" stroke="#e82429" stroke-miterlimit="10"/><path d="m191.888 99.803h41.1v19h-41.1z" fill="none" stroke="#e82429" stroke-miterlimit="10"/><path d="m191.888 53.303h41.1v19h-41.1z" fill="none" stroke="#e82429" stroke-miterlimit="10"/><path d="m187.688 123.003h-18.4v19h63.7v-19h-41.1z" fill="none" stroke="#e82429" stroke-miterlimit="10"/><path d="m146.588 216.003h86.5v19h-86.5z" fill="none" stroke="#e82429" stroke-miterlimit="10"/><path d="m119.688 188.503v-19h-63.8v19h41.1 4.3z" fill="none" stroke="#e82429" stroke-miterlimit="10"/><path d="m169.288 146.303h63.8v19h-63.8z" fill="none" stroke="#e82429" stroke-miterlimit="10"/><path d="m119.588 192.803h-18.4v19h86.4v-19h-63.7z" fill="none" stroke="#e82429" stroke-miterlimit="10"/><path d="m169.288 169.503h63.8v19h-63.8z" fill="none" stroke="#e82429" stroke-miterlimit="10"/><path d="m31.102 30.767h226.772v226.772h-226.772z" fill="none" stroke="#e82429" stroke-miterlimit="10" stroke-width=".9999"/><g fill="#231f20"><path d="m62.154 59.463c0-.184.006-.321.018-.414.012-.092.05-.197.114-.317.112-.217.424-.324.936-.324.56 0 .892.148.996.444.04.136.06.344.06.624v6.672c0 .191-.006.332-.018.42s-.05.191-.114.312c-.112.216-.424.324-.936.324-.56 0-.888-.152-.984-.456-.048-.128-.072-.332-.072-.612z"/><path d="m67.014 58.395h6.672c.256 0 .444.029.564.09.12.06.2.154.24.282s.06.296.06.504-.02.374-.06.498c-.041.124-.108.21-.204.258-.144.072-.348.107-.612.107h-2.292v6.036c0 .185-.006.32-.018.408s-.048.19-.108.306-.166.198-.318.246-.352.072-.6.072-.446-.024-.594-.072-.252-.13-.312-.246c-.06-.115-.096-.22-.108-.312s-.018-.23-.018-.414v-6.024h-2.304c-.256 0-.444-.029-.564-.09-.12-.06-.2-.153-.24-.282-.041-.128-.06-.296-.06-.504s.02-.374.06-.498.108-.21.204-.258c.144-.071.348-.107.612-.107z"/><path d="m80.646 59.463c0-.184.006-.321.018-.414.012-.092.05-.197.114-.317.112-.217.424-.324.936-.324.56 0 .892.148.996.444.04.136.06.344.06.624v6.672c0 .191-.006.332-.018.42s-.05.191-.114.312c-.112.216-.424.324-.936.324-.56 0-.888-.152-.984-.456-.048-.128-.072-.332-.072-.612z"/><path d="m85.061 65.967c-.208-.256-.312-.485-.312-.689s.172-.475.516-.811c.2-.191.412-.288.636-.288s.536.2.936.601c.112.136.271.266.48.39.208.124.4.187.576.187.744 0 1.116-.305 1.116-.912 0-.185-.102-.338-.306-.462s-.458-.214-.762-.271c-.304-.056-.632-.146-.984-.27s-.68-.271-.984-.438-.558-.434-.762-.798-.306-.802-.306-1.313c0-.704.262-1.318.786-1.843.524-.523 1.238-.786 2.142-.786.48 0 .918.062 1.314.187.396.124.67.25.822.378l.3.228c.248.232.372.429.372.589s-.096.38-.288.659c-.272.4-.552.601-.84.601-.168 0-.376-.08-.624-.24-.024-.016-.07-.056-.138-.12-.068-.063-.13-.115-.186-.156-.168-.104-.382-.155-.642-.155s-.476.062-.648.186-.258.296-.258.517c0 .22.102.397.306.533.204.137.458.229.762.276.304.048.636.122.996.222.36.101.692.223.996.366.304.145.558.395.762.75.204.356.306.794.306 1.314s-.104.978-.312 1.374-.48.701-.816.918c-.648.424-1.34.636-2.076.636-.376 0-.732-.046-1.068-.138-.336-.093-.608-.206-.816-.343-.424-.256-.72-.504-.888-.743z"/><path d="m132.579 58.659c.064-.12.172-.204.324-.252.152-.049.344-.072.576-.072s.416.02.552.06.24.089.312.145.128.136.168.24c.04.136.06.344.06.624v6.659c0 .185-.006.322-.018.414-.012.093-.05.198-.114.318-.112.216-.424.324-.936.324-.56 0-.888-.148-.984-.444-.048-.136-.072-.344-.072-.624v-2.436h-3.18v2.447c0 .185-.006.322-.018.414-.012.093-.05.198-.114.318-.112.216-.424.324-.936.324-.56 0-.888-.148-.984-.444-.048-.136-.072-.344-.072-.624v-6.66c0-.184.006-.321.018-.414.012-.092.05-.197.114-.317.112-.217.424-.324.936-.324.56 0 .892.148.996.444.04.136.06.344.06.624v2.447h3.18v-2.46c0-.184.006-.321.018-.414.012-.091.05-.197.114-.317z"/><path d="m141.807 58.959 3.24 6.696c.136.271.204.476.204.611 0 .288-.232.548-.696.78-.272.136-.486.204-.642.204s-.284-.036-.384-.108c-.1-.071-.172-.147-.216-.228s-.106-.2-.186-.36l-.624-1.296h-3.324l-.624 1.296c-.08.16-.142.276-.186.349-.044.071-.116.146-.216.222s-.228.114-.384.114-.37-.068-.642-.204c-.464-.225-.696-.48-.696-.769 0-.136.068-.34.204-.611l3.24-6.708c.088-.185.222-.332.402-.444s.37-.168.57-.168c.432 0 .751.208.96.624zm-.972 2.88-.792 1.644h1.596z"/><path d="m149.235 65.354h3.264c.264 0 .456.03.576.091.12.06.2.153.24.281s.06.299.06.511-.02.382-.06.51-.108.216-.204.264c-.152.08-.36.12-.624.12h-4.32c-.56 0-.888-.152-.984-.456-.048-.128-.072-.332-.072-.612v-6.672c0-.184.006-.321.018-.414.012-.092.05-.197.114-.317.112-.217.424-.324.936-.324.56 0 .892.148.996.444.04.136.06.344.06.624z"/><path d="m161.175 58.335c.184 0 .322.006.414.018.092.013.196.051.312.114.116.064.198.172.246.324s.072.355.072.612c0 .256-.024.46-.072.611-.048.152-.132.258-.252.318s-.226.096-.318.107c-.092.013-.234.019-.426.019h-3.672v1.212h2.364c.192 0 .334.006.426.018.092.013.198.051.318.114.208.12.312.437.312.948 0 .56-.152.892-.456.996-.128.04-.332.06-.612.06h-2.352v2.269c0 .191-.006.332-.018.42s-.05.191-.114.312c-.112.216-.424.324-.936.324-.56 0-.888-.152-.984-.456-.048-.128-.072-.332-.072-.612v-6.672c0-.408.076-.686.228-.834.152-.147.44-.222.864-.222z"/><path d="m200.185 58.389h6.672c.256 0 .444.029.564.09.12.06.2.154.24.282s.06.296.06.504-.02.374-.06.498c-.041.124-.108.21-.204.258-.144.072-.348.107-.612.107h-2.292v6.036c0 .185-.006.32-.018.408s-.048.19-.108.306-.166.198-.318.246-.352.072-.6.072-.446-.024-.594-.072-.252-.13-.312-.246c-.06-.115-.096-.22-.108-.312s-.018-.23-.018-.414v-6.024h-2.304c-.256 0-.444-.029-.564-.09-.12-.06-.2-.153-.24-.282-.041-.128-.06-.296-.06-.504s.02-.374.06-.498.108-.21.204-.258c.143-.072.348-.107.612-.107z"/><path d="m211.704 65.073h3.696c.184 0 .322.006.414.018.092.013.198.051.318.114.216.112.324.424.324.937 0 .56-.148.888-.444.983-.136.048-.344.072-.624.072h-4.752c-.56 0-.888-.152-.984-.456-.048-.128-.072-.332-.072-.612v-6.672c0-.408.076-.686.228-.834.152-.147.44-.222.864-.222h4.728c.184 0 .322.006.414.018.092.013.198.051.318.114.216.112.324.424.324.937 0 .56-.148.888-.444.983-.136.048-.344.072-.624.072h-3.684v1.212h2.376c.184 0 .322.006.414.018.092.013.198.051.318.114.216.112.324.424.324.937 0 .56-.152.888-.456.983-.136.048-.344.072-.624.072h-2.352z"/><path d="m224.118 58.767c.076-.141.19-.234.342-.282s.342-.072.57-.072.412.021.552.061.244.088.312.144.118.141.15.252c.048.128.072.332.072.612v6.66c0 .191-.006.332-.018.42s-.05.191-.114.312c-.112.216-.424.324-.936.324-.312 0-.528-.024-.648-.072s-.22-.124-.3-.228c-1.8-2.4-2.984-3.968-3.552-4.704v3.948c0 .191-.006.332-.018.42s-.05.191-.114.312c-.112.216-.424.324-.936.324-.496 0-.8-.108-.912-.324-.064-.12-.102-.228-.114-.324s-.018-.235-.018-.42v-6.695c0-.305.038-.526.114-.666.076-.141.19-.234.342-.282s.348-.072.588-.072.43.022.57.066.238.094.294.149c.032.024.124.129.276.312 1.688 2.296 2.816 3.812 3.384 4.548v-4.056c0-.306.038-.527.114-.667z"/><path d="m75.291 88.03c.368.248.632.428.792.54.288.216.432.422.432.617 0 .196-.12.471-.36.822-.24.353-.484.528-.732.528-.152 0-.384-.108-.696-.324-.041-.023-.152-.1-.336-.228s-.328-.225-.432-.288c-.744.576-1.58.863-2.508.863-1.24 0-2.286-.439-3.138-1.319s-1.278-1.928-1.278-3.145c0-.664.12-1.285.36-1.865s.56-1.066.96-1.458c.4-.393.86-.7 1.38-.925.52-.224 1.056-.336 1.608-.336 1.184 0 2.212.429 3.084 1.284.872.856 1.308 1.94 1.308 3.252 0 .665-.148 1.325-.444 1.982zm-6.132-1.992c0 .712.23 1.29.69 1.733.46.444.974.666 1.542.666s1.08-.216 1.536-.647.684-1.012.684-1.74-.23-1.312-.69-1.752c-.46-.439-.974-.66-1.542-.66s-1.08.223-1.536.666-.684 1.022-.684 1.734z"/><path d="m83.643 81.946c.08-.128.196-.217.348-.265s.342-.071.57-.071.41.02.546.06.24.088.312.145c.072.056.124.14.156.252.048.136.072.344.072.624v3.624c0 1.056-.328 2.016-.984 2.88-.32.407-.732.737-1.236.989s-1.062.378-1.674.378-1.168-.128-1.668-.384-.906-.592-1.218-1.008c-.648-.848-.972-1.808-.972-2.88v-3.612c0-.191.006-.334.018-.426s.05-.198.114-.318c.064-.119.172-.204.324-.252s.356-.071.612-.071.46.023.612.071.256.133.312.252c.096.185.144.437.144.757v3.6c0 .488.12.952.36 1.392.12.225.3.404.54.54.24.137.524.204.852.204.583 0 1.02-.216 1.308-.647.288-.433.432-.933.432-1.5v-3.672c-.001-.315.04-.534.12-.662z"/><path d="m92.283 82.246 3.24 6.696c.136.271.204.476.204.611 0 .288-.232.548-.696.78-.272.136-.486.204-.642.204s-.284-.036-.384-.108c-.1-.071-.172-.147-.216-.228s-.106-.2-.186-.36l-.624-1.296h-3.324l-.624 1.296c-.08.16-.142.276-.186.349-.044.071-.116.146-.216.222s-.228.114-.384.114-.37-.068-.642-.204c-.464-.225-.696-.48-.696-.769 0-.136.068-.34.204-.611l3.24-6.708c.088-.185.222-.332.402-.444s.37-.168.57-.168c.432-.001.752.207.96.624zm-.972 2.879-.792 1.644h1.596z"/><path d="m104.319 88.929c.12.288.18.496.18.624 0 .305-.248.561-.744.769-.256.111-.462.168-.618.168s-.284-.038-.384-.114-.174-.154-.222-.234c-.08-.151-.392-.876-.936-2.172l-.372.024h-1.512v1.355c0 .185-.006.322-.018.414-.012.093-.05.198-.114.318-.112.216-.424.324-.936.324-.56 0-.888-.148-.984-.444-.048-.136-.072-.344-.072-.624v-6.66c0-.184.006-.321.018-.414.012-.092.05-.197.114-.317.112-.217.424-.324.936-.324h2.592c.704 0 1.388.256 2.052.768.32.248.584.584.792 1.009.208.424.312.896.312 1.416 0 .903-.3 1.647-.9 2.231.176.423.448 1.051.816 1.883zm-4.608-3.059h1.536c.232 0 .464-.088.696-.264.232-.177.348-.44.348-.792 0-.353-.116-.618-.348-.799-.232-.18-.472-.27-.72-.27h-1.512z"/><path d="m106.455 81.61h6.672c.256 0 .444.029.564.09.12.06.2.154.24.282s.06.296.06.504-.02.374-.06.498c-.041.124-.108.21-.204.258-.144.072-.348.107-.612.107h-2.292v6.036c0 .185-.006.32-.018.408s-.048.19-.108.306-.166.198-.318.246-.352.072-.6.072-.446-.024-.594-.072-.252-.13-.312-.246c-.06-.115-.096-.22-.108-.312s-.018-.23-.018-.414v-6.024h-2.304c-.256 0-.444-.029-.564-.09-.12-.06-.2-.153-.24-.282-.041-.128-.06-.296-.06-.504s.02-.374.06-.498.108-.21.204-.258c.144-.072.348-.107.612-.107z"/><path d="m117.975 88.293h3.696c.184 0 .322.006.414.018.092.013.198.051.318.114.216.112.324.424.324.937 0 .56-.148.888-.444.983-.136.048-.344.072-.624.072h-4.752c-.56 0-.888-.152-.984-.456-.048-.128-.072-.332-.072-.612v-6.672c0-.408.076-.686.228-.834.152-.147.44-.222.864-.222h4.728c.184 0 .322.006.414.018.092.013.198.051.318.114.216.112.324.424.324.937 0 .56-.148.888-.444.983-.136.048-.344.072-.624.072h-3.684v1.212h2.376c.184 0 .322.006.414.018.092.013.198.051.318.114.216.112.324.424.324.937 0 .56-.152.888-.456.983-.136.048-.344.072-.624.072h-2.352z"/><path d="m131.438 88.929c.12.288.18.496.18.624 0 .305-.248.561-.744.769-.256.111-.462.168-.618.168s-.284-.038-.384-.114-.174-.154-.222-.234c-.08-.151-.392-.876-.936-2.172l-.372.024h-1.512v1.355c0 .185-.006.322-.018.414-.012.093-.05.198-.114.318-.112.216-.424.324-.936.324-.56 0-.888-.148-.984-.444-.048-.136-.072-.344-.072-.624v-6.66c0-.184.006-.321.018-.414.012-.092.05-.197.114-.317.112-.217.424-.324.936-.324h2.592c.704 0 1.388.256 2.052.768.32.248.584.584.792 1.009.208.424.312.896.312 1.416 0 .903-.3 1.647-.9 2.231.176.423.448 1.051.816 1.883zm-4.607-3.059h1.536c.232 0 .464-.088.696-.264.232-.177.348-.44.348-.792 0-.353-.116-.618-.348-.799-.232-.18-.472-.27-.72-.27h-1.512z"/><path d="m161.062 81.681h6.672c.256 0 .444.029.564.09.12.06.2.154.24.282s.06.296.06.504-.02.374-.06.498c-.041.124-.108.21-.204.258-.144.072-.348.107-.612.107h-2.292v6.036c0 .185-.006.32-.018.408s-.048.19-.108.306-.166.198-.318.246-.352.072-.6.072-.446-.024-.594-.072-.252-.13-.312-.246c-.06-.115-.096-.22-.108-.312s-.018-.23-.018-.414v-6.024h-2.304c-.256 0-.444-.029-.564-.09-.12-.06-.2-.153-.24-.282-.041-.128-.06-.296-.06-.504s.02-.374.06-.498.108-.21.204-.258c.144-.072.348-.107.612-.107z"/><path d="m180.981 81.741c.536.192.804.448.804.768 0 .104-.048.301-.144.589l-2.304 6.659c-.016.057-.044.125-.084.204-.04.08-.146.187-.318.318-.172.132-.376.198-.612.198s-.44-.066-.612-.198-.286-.262-.342-.39l-1.404-4.141c-.888 2.624-1.34 3.96-1.356 4.008-.016.049-.052.116-.108.204-.056.089-.12.168-.192.24-.184.185-.404.276-.66.276s-.466-.061-.63-.181c-.164-.119-.274-.239-.33-.359l-.084-.181-2.316-6.659c-.088-.265-.132-.46-.132-.589 0-.319.268-.571.804-.756.232-.079.442-.12.63-.12s.332.064.432.192.19.324.27.588l1.32 4.008 1.308-3.947c.112-.336.316-.568.612-.696.128-.056.294-.084.498-.084s.394.065.57.198c.176.132.288.262.336.39l1.38 4.164 1.32-4.032c.064-.184.116-.319.156-.408.04-.088.114-.174.222-.258s.242-.126.402-.126.349.041.564.121z"/><path d="m185.769 88.365h3.696c.184 0 .322.006.414.018.092.013.198.051.318.114.216.112.324.424.324.937 0 .56-.148.888-.444.983-.136.048-.344.072-.624.072h-4.752c-.56 0-.888-.152-.984-.456-.048-.128-.072-.332-.072-.612v-6.672c0-.408.076-.686.228-.834.152-.147.44-.222.864-.222h4.728c.184 0 .322.006.414.018.092.013.198.051.318.114.216.112.324.424.324.937 0 .56-.148.888-.444.983-.136.048-.344.072-.624.072h-3.684v1.212h2.376c.184 0 .322.006.414.018.092.013.198.051.318.114.216.112.324.424.324.937 0 .56-.152.888-.456.983-.136.048-.344.072-.624.072h-2.352z"/><path d="m198.184 82.059c.076-.141.19-.234.342-.282s.342-.072.57-.072.412.021.552.061.244.088.312.144.118.141.15.252c.048.128.072.332.072.612v6.66c0 .191-.006.332-.018.42s-.05.191-.114.312c-.112.216-.424.324-.936.324-.312 0-.528-.024-.648-.072s-.22-.124-.3-.228c-1.8-2.4-2.984-3.968-3.552-4.704v3.948c0 .191-.006.332-.018.42s-.05.191-.114.312c-.112.216-.424.324-.936.324-.496 0-.8-.108-.912-.324-.064-.12-.102-.228-.114-.324s-.018-.235-.018-.42v-6.695c0-.305.038-.526.114-.666.076-.141.19-.234.342-.282s.348-.072.588-.072.43.022.57.066.238.094.294.149c.032.024.124.129.276.312 1.688 2.296 2.816 3.812 3.384 4.548v-4.056c-.001-.306.037-.527.114-.667z"/><path d="m202.917 81.681h6.672c.256 0 .444.029.564.09.12.06.2.154.24.282s.06.296.06.504-.02.374-.06.498c-.041.124-.108.21-.204.258-.144.072-.348.107-.612.107h-2.292v6.036c0 .185-.006.32-.018.408s-.048.19-.108.306-.166.198-.318.246-.352.072-.6.072-.446-.024-.594-.072-.252-.13-.312-.246c-.06-.115-.096-.22-.108-.312s-.018-.23-.018-.414v-6.024h-2.304c-.256 0-.444-.029-.564-.09-.12-.06-.2-.153-.24-.282-.041-.128-.06-.296-.06-.504s.02-.374.06-.498.108-.21.204-.258c.144-.072.348-.107.612-.107z"/><path d="m219.297 81.861c.392.272.588.536.588.792 0 .152-.092.364-.276.636l-2.592 3.876v2.292c0 .185-.006.322-.018.414s-.05.198-.114.318-.172.204-.324.252-.356.072-.612.072-.46-.024-.612-.072-.26-.134-.324-.258-.102-.232-.114-.324-.018-.234-.018-.426v-2.269l-2.592-3.876c-.184-.271-.276-.483-.276-.636 0-.256.176-.502.528-.738.352-.235.604-.354.756-.354s.272.032.36.096c.136.088.28.252.432.492l1.86 2.976 1.86-2.976c.152-.24.284-.398.396-.475.112-.075.242-.113.39-.113.148.001.382.101.702.301z"/><path d="m123.67 105.22c.064.12.102.228.114.324s.018.235.018.42v6.66c0 .552-.152.876-.456.972-.152.048-.344.072-.576.072s-.417-.021-.552-.061c-.136-.04-.24-.088-.312-.144s-.128-.136-.168-.24c-.04-.136-.06-.344-.06-.624v-4.02c-.2.248-.492.642-.876 1.182s-.628.878-.732 1.014c-.104.137-.176.23-.216.282-.041.052-.138.124-.294.216-.156.093-.324.139-.504.139s-.344-.042-.492-.126-.254-.166-.318-.246l-.096-.133c-.16-.199-.476-.625-.948-1.277s-.728-1.002-.768-1.05v4.044c0 .184-.006.322-.018.414s-.05.193-.114.306c-.12.216-.432.324-.936.324-.488 0-.792-.108-.912-.324-.064-.112-.102-.216-.114-.312s-.018-.239-.018-.432v-6.66c0-.184.006-.321.018-.414.012-.092.05-.197.114-.317.12-.208.432-.312.936-.312.216 0 .402.026.558.078s.258.106.306.162l.072.072 2.724 3.575c1.36-1.8 2.268-2.987 2.724-3.563.136-.216.458-.324.966-.324.507-.002.817.107.93.323z"/><path d="m125.962 105.939c0-.184.006-.321.018-.414.012-.092.05-.197.114-.317.112-.217.424-.324.936-.324.56 0 .892.148.996.444.04.136.06.344.06.624v6.672c0 .191-.006.332-.018.42s-.05.191-.114.312c-.112.216-.424.324-.936.324-.56 0-.888-.152-.984-.456-.048-.128-.072-.332-.072-.612z"/><path d="m135.927 105.25c.076-.141.19-.234.342-.282s.342-.072.57-.072.412.021.552.061.244.088.312.144.118.141.15.252c.048.128.072.332.072.612v6.66c0 .191-.006.332-.018.42s-.05.191-.114.312c-.112.216-.424.324-.936.324-.312 0-.528-.024-.648-.072s-.22-.124-.3-.228c-1.8-2.4-2.984-3.968-3.552-4.704v3.948c0 .191-.006.332-.018.42s-.05.191-.114.312c-.112.216-.424.324-.936.324-.496 0-.8-.108-.912-.324-.064-.12-.102-.228-.114-.324s-.018-.235-.018-.42v-6.695c0-.305.038-.526.114-.666.076-.141.19-.234.342-.282s.348-.072.588-.072.43.022.57.066.238.094.294.149c.032.024.124.129.276.312 1.688 2.296 2.816 3.812 3.384 4.548v-4.056c0-.306.038-.527.114-.667z"/><path d="m145.833 105.208c.08-.128.196-.217.348-.265s.342-.071.57-.071.41.02.546.06.24.088.312.145c.072.056.124.14.156.252.048.136.072.344.072.624v3.624c0 1.056-.328 2.016-.984 2.88-.32.407-.732.737-1.236.989s-1.062.378-1.674.378-1.168-.128-1.668-.384-.906-.592-1.218-1.008c-.648-.848-.972-1.808-.972-2.88v-3.612c0-.191.006-.334.018-.426s.05-.198.114-.318c.064-.119.172-.204.324-.252s.356-.071.612-.071.46.023.612.071.256.133.312.252c.096.185.144.437.144.757v3.6c0 .488.12.952.36 1.392.12.225.3.404.54.54.24.137.524.204.852.204.583 0 1.02-.216 1.308-.647.288-.433.432-.933.432-1.5v-3.672c0-.314.04-.534.12-.662z"/><path d="m150.573 104.872h6.672c.256 0 .444.029.564.09.12.06.2.154.24.282s.06.296.06.504-.02.374-.06.498c-.041.124-.108.21-.204.258-.144.072-.348.107-.612.107h-2.292v6.036c0 .185-.006.32-.018.408s-.048.19-.108.306-.166.198-.318.246-.352.072-.6.072-.446-.024-.594-.072-.252-.13-.312-.246c-.06-.115-.096-.22-.108-.312s-.018-.23-.018-.414v-6.024h-2.304c-.256 0-.444-.029-.564-.09-.12-.06-.2-.153-.24-.282-.041-.128-.06-.296-.06-.504s.02-.374.06-.498.108-.21.204-.258c.144-.072.348-.107.612-.107z"/><path d="m162.093 111.556h3.696c.184 0 .322.006.414.018.092.013.198.051.318.114.216.112.324.424.324.937 0 .56-.148.888-.444.983-.136.048-.344.072-.624.072h-4.752c-.56 0-.888-.152-.984-.456-.048-.128-.072-.332-.072-.612v-6.672c0-.408.076-.686.228-.834.152-.147.44-.222.864-.222h4.728c.184 0 .322.006.414.018.092.013.198.051.318.114.216.112.324.424.324.937 0 .56-.148.888-.444.983-.136.048-.344.072-.624.072h-3.684v1.212h2.376c.184 0 .322.006.414.018.092.013.198.051.318.114.216.112.324.424.324.937 0 .56-.152.888-.456.983-.136.048-.344.072-.624.072h-2.352z"/><path d="m168.957 112.443c-.208-.256-.312-.485-.312-.689s.172-.475.516-.811c.2-.191.412-.288.636-.288s.536.2.936.601c.112.136.271.266.48.39.208.124.4.187.576.187.744 0 1.116-.305 1.116-.912 0-.185-.102-.338-.306-.462s-.458-.214-.762-.271c-.304-.056-.632-.146-.984-.27s-.68-.271-.984-.438-.558-.434-.762-.798-.306-.802-.306-1.313c0-.704.262-1.318.786-1.843.524-.523 1.238-.786 2.142-.786.48 0 .918.062 1.314.187.396.124.67.25.822.378l.3.228c.248.232.372.429.372.589s-.096.38-.288.659c-.272.4-.552.601-.84.601-.168 0-.376-.08-.624-.24-.024-.016-.07-.056-.138-.12-.068-.063-.13-.115-.186-.156-.168-.104-.382-.155-.642-.155s-.476.062-.648.186-.258.296-.258.517c0 .22.102.397.306.533.204.137.458.229.762.276.304.048.636.122.996.222.36.101.692.223.996.366.304.145.558.395.762.75.204.356.306.794.306 1.314s-.104.978-.312 1.374-.48.701-.816.918c-.648.424-1.34.636-2.076.636-.376 0-.732-.046-1.068-.138-.336-.093-.608-.206-.816-.343-.424-.256-.72-.504-.888-.743z"/><path d="m204.553 104.854h6.672c.256 0 .444.029.564.09.12.06.2.154.24.282s.06.296.06.504-.02.374-.06.498c-.041.124-.108.21-.204.258-.144.072-.348.107-.612.107h-2.292v6.036c0 .185-.006.32-.018.408s-.048.19-.108.306-.166.198-.318.246-.352.072-.6.072-.446-.024-.594-.072-.252-.13-.312-.246c-.06-.115-.096-.22-.108-.312s-.018-.23-.018-.414v-6.024h-2.304c-.256 0-.444-.029-.564-.09-.12-.06-.2-.153-.24-.282-.041-.128-.06-.296-.06-.504s.02-.374.06-.498.108-.21.204-.258c.143-.072.347-.107.612-.107z"/><path d="m217.356 104.757c1.184 0 2.212.429 3.084 1.284.872.856 1.308 1.918 1.308 3.187 0 1.268-.416 2.348-1.248 3.239-.832.893-1.856 1.338-3.072 1.338s-2.25-.439-3.102-1.319-1.278-1.928-1.278-3.145c0-.664.12-1.285.36-1.865s.56-1.066.96-1.458c.4-.393.86-.7 1.38-.925.52-.224 1.057-.336 1.608-.336zm-2.184 4.525c0 .712.23 1.29.69 1.733.46.444.974.666 1.542.666s1.08-.216 1.536-.647.684-1.012.684-1.74-.23-1.312-.69-1.752c-.46-.439-.974-.66-1.542-.66s-1.08.223-1.536.666c-.456.444-.684 1.022-.684 1.734z"/><path d="m67.17 104.919c.184 0 .322.006.414.018.092.013.196.051.312.114.116.064.198.172.246.324s.072.355.072.612c0 .256-.024.46-.072.611-.048.152-.132.258-.252.318s-.226.096-.318.107c-.092.013-.234.019-.426.019h-3.672v1.212h2.364c.192 0 .334.006.426.018.092.013.198.051.318.114.208.12.312.437.312.948 0 .56-.152.892-.456.996-.128.04-.332.06-.612.06h-2.352v2.269c0 .191-.006.332-.018.42s-.05.191-.114.312c-.112.216-.424.324-.936.324-.56 0-.888-.152-.984-.456-.048-.128-.072-.332-.072-.612v-6.672c0-.408.076-.686.228-.834.152-.147.44-.222.864-.222z"/><path d="m70.193 105.975c0-.184.006-.321.018-.414.012-.092.05-.197.114-.317.112-.217.424-.324.936-.324.56 0 .892.148.996.444.04.136.06.344.06.624v6.672c0 .191-.006.332-.018.42s-.05.191-.114.312c-.112.216-.424.324-.936.324-.56 0-.888-.152-.984-.456-.048-.128-.072-.332-.072-.612z"/><path d="m82.505 105.051c.472.232.708.488.708.768 0 .129-.06.32-.18.576l-3.312 6.721c-.088.176-.222.317-.402.426-.18.107-.366.162-.558.162h-.12c-.2 0-.39-.055-.57-.162-.18-.108-.314-.25-.402-.426l-3.312-6.721c-.12-.256-.18-.447-.18-.576 0-.279.236-.535.708-.768.264-.136.466-.204.606-.204s.246.017.318.048c.072.032.14.089.204.168.072.097.138.202.198.318s.214.448.462.996.514 1.13.798 1.746.552 1.198.804 1.746.394.854.426.918l2.4-5.256c.064-.152.12-.272.168-.36.144-.216.32-.324.528-.324s.445.068.708.204z"/><path d="m87.197 111.591h3.696c.184 0 .322.006.414.018.092.013.198.051.318.114.216.112.324.424.324.937 0 .56-.148.888-.444.983-.136.048-.344.072-.624.072h-4.752c-.56 0-.888-.152-.984-.456-.048-.128-.072-.332-.072-.612v-6.672c0-.408.076-.686.228-.834.152-.147.44-.222.864-.222h4.728c.184 0 .322.006.414.018.092.013.198.051.318.114.216.112.324.424.324.937 0 .56-.148.888-.444.983-.136.048-.344.072-.624.072h-3.684v1.212h2.376c.184 0 .322.006.414.018.092.013.198.051.318.114.216.112.324.424.324.937 0 .56-.152.888-.456.983-.136.048-.344.072-.624.072h-2.352z"/><path d="m77.722 129.916c.208.424.312.896.312 1.416s-.104.989-.312 1.409-.476.755-.804 1.002c-.664.513-1.352.769-2.064.769h-1.5v1.355c0 .185-.006.322-.018.414-.012.093-.05.198-.114.318-.112.216-.424.324-.936.324-.56 0-.888-.148-.984-.444-.048-.136-.072-.344-.072-.624v-6.66c0-.184.006-.321.018-.414.012-.092.05-.197.114-.317.112-.217.424-.324.936-.324h2.568c.704 0 1.388.256 2.052.768.328.247.596.583.804 1.008zm-2.147 2.208c.232-.177.348-.44.348-.792 0-.353-.116-.618-.348-.799-.232-.18-.472-.27-.72-.27h-1.5v2.124h1.512c.239.001.475-.087.708-.263z"/><path d="m84.095 128.763 3.24 6.696c.136.271.204.476.204.611 0 .288-.232.548-.696.78-.272.136-.486.204-.642.204s-.284-.036-.384-.108c-.1-.071-.172-.147-.216-.228s-.106-.2-.186-.36l-.624-1.296h-3.324l-.624 1.296c-.08.16-.142.276-.186.349-.044.071-.116.146-.216.222s-.228.114-.384.114-.37-.068-.642-.204c-.464-.225-.696-.48-.696-.769 0-.136.068-.34.204-.611l3.24-6.708c.088-.185.222-.332.402-.444s.37-.168.57-.168c.431 0 .751.208.96.624zm-.973 2.88-.792 1.644h1.596z"/><path d="m89.17 135.699c-.208-.256-.312-.485-.312-.689s.172-.475.516-.811c.2-.191.412-.288.636-.288s.536.2.936.601c.112.136.271.266.48.39.208.124.4.187.576.187.744 0 1.116-.305 1.116-.912 0-.185-.102-.338-.306-.462s-.458-.214-.762-.271c-.304-.056-.632-.146-.984-.27s-.68-.271-.984-.438-.558-.434-.762-.798-.306-.802-.306-1.313c0-.704.262-1.318.786-1.843.524-.523 1.238-.786 2.142-.786.48 0 .918.063 1.314.187s.67.25.822.378l.3.228c.248.232.372.429.372.589s-.096.38-.288.659c-.272.4-.552.601-.84.601-.168 0-.376-.08-.624-.24-.024-.016-.07-.056-.138-.12-.068-.063-.13-.115-.186-.156-.168-.104-.382-.155-.642-.155s-.476.062-.648.186-.258.296-.258.517c0 .22.102.397.306.533.204.137.458.229.762.276.304.048.636.122.996.222.36.101.692.223.996.366.304.145.558.395.762.75.204.356.306.794.306 1.314s-.104.978-.312 1.374-.48.701-.816.918c-.648.424-1.34.636-2.076.636-.376 0-.732-.046-1.068-.138-.336-.093-.608-.206-.816-.343-.424-.256-.72-.504-.888-.743z"/><path d="m97.21 128.128h6.672c.256 0 .444.029.564.09.12.06.2.154.24.282s.06.296.06.504-.02.374-.06.498c-.041.124-.108.21-.204.258-.144.072-.348.107-.612.107h-2.292v6.036c0 .185-.006.32-.018.408s-.048.19-.108.306-.166.198-.318.246-.352.072-.6.072-.446-.024-.594-.072-.252-.13-.312-.246c-.06-.115-.096-.22-.108-.312s-.018-.23-.018-.414v-6.024h-2.304c-.256 0-.444-.029-.564-.09-.12-.06-.2-.153-.24-.282-.041-.128-.06-.296-.06-.504s.02-.374.06-.498.108-.21.204-.258c.144-.072.348-.107.612-.107z"/><path d="m135.291 128.001c1.184 0 2.212.429 3.084 1.284.872.856 1.308 1.918 1.308 3.187 0 1.268-.416 2.348-1.248 3.239-.832.893-1.856 1.338-3.072 1.338s-2.25-.439-3.102-1.319-1.278-1.928-1.278-3.145c0-.664.12-1.285.36-1.865s.56-1.066.96-1.458c.4-.393.86-.7 1.38-.925.52-.223 1.056-.336 1.608-.336zm-2.184 4.525c0 .712.23 1.29.69 1.733.46.444.974.666 1.542.666s1.08-.216 1.536-.647.684-1.012.684-1.74-.23-1.312-.69-1.752c-.46-.439-.974-.66-1.542-.66s-1.08.223-1.536.666c-.456.444-.684 1.022-.684 1.734z"/><path d="m147.345 128.476c.076-.141.19-.234.342-.282s.342-.072.57-.072.412.021.552.061.244.088.312.144.118.141.15.252c.048.128.072.332.072.612v6.66c0 .191-.006.332-.018.42s-.05.191-.114.312c-.112.216-.424.324-.936.324-.312 0-.528-.024-.648-.072s-.22-.124-.3-.228c-1.8-2.4-2.984-3.968-3.552-4.704v3.948c0 .191-.006.332-.018.42s-.05.191-.114.312c-.112.216-.424.324-.936.324-.496 0-.8-.108-.912-.324-.064-.12-.102-.228-.114-.324s-.018-.235-.018-.42v-6.695c0-.305.038-.526.114-.666.076-.141.19-.234.342-.282s.348-.072.588-.072.43.022.57.066.238.094.294.149c.032.024.124.129.276.312 1.688 2.296 2.816 3.812 3.384 4.548v-4.056c0-.306.038-.527.114-.667z"/><path d="m153.627 134.782h3.696c.184 0 .322.006.414.018.092.013.198.051.318.114.216.112.324.424.324.937 0 .56-.148.888-.444.983-.136.048-.344.072-.624.072h-4.752c-.56 0-.888-.152-.984-.456-.048-.128-.072-.332-.072-.612v-6.672c0-.408.076-.686.228-.834.152-.147.44-.222.864-.222h4.728c.184 0 .322.006.414.018.092.013.198.051.318.114.216.112.324.424.324.937 0 .56-.148.888-.444.983-.136.048-.344.072-.624.072h-3.684v1.212h2.376c.184 0 .322.006.414.018.092.013.198.051.318.114.216.112.324.424.324.937 0 .56-.152.888-.456.983-.136.048-.344.072-.624.072h-2.352z"/><path d="m180.068 128.085h6.672c.256 0 .444.029.564.09.12.06.2.154.24.282s.06.296.06.504-.02.374-.06.498c-.041.124-.108.21-.204.258-.144.072-.348.107-.612.107h-2.292v6.036c0 .185-.006.32-.018.408s-.048.19-.108.306-.166.198-.318.246-.352.072-.6.072-.446-.024-.594-.072-.252-.13-.312-.246c-.06-.115-.096-.22-.108-.312s-.018-.23-.018-.414v-6.024h-2.304c-.256 0-.444-.029-.564-.09-.12-.06-.2-.153-.24-.282-.041-.128-.06-.296-.06-.504s.02-.374.06-.498.108-.21.204-.258c.144-.072.348-.107.612-.107z"/><path d="m194.9 128.421c.064-.12.172-.204.324-.252.152-.049.344-.072.576-.072s.416.02.552.06.24.089.312.145.128.136.168.24c.04.136.06.344.06.624v6.659c0 .185-.006.322-.018.414-.012.093-.05.198-.114.318-.112.216-.424.324-.936.324-.56 0-.888-.148-.984-.444-.048-.136-.072-.344-.072-.624v-2.436h-3.18v2.447c0 .185-.006.322-.018.414-.012.093-.05.198-.114.318-.112.216-.424.324-.936.324-.56 0-.888-.148-.984-.444-.048-.136-.072-.344-.072-.624v-6.66c0-.184.006-.321.018-.414.012-.092.05-.197.114-.317.112-.217.424-.324.936-.324.56 0 .892.148.996.444.04.136.06.344.06.624v2.447h3.18v-2.46c0-.184.006-.321.018-.414.012-.091.05-.197.114-.317z"/><path d="m205.784 135.405c.12.288.18.496.18.624 0 .305-.248.561-.744.769-.256.111-.462.168-.618.168s-.284-.038-.384-.114-.174-.154-.222-.234c-.08-.151-.392-.876-.936-2.172l-.372.024h-1.512v1.355c0 .185-.006.322-.018.414-.012.093-.05.198-.114.318-.112.216-.424.324-.936.324-.56 0-.888-.148-.984-.444-.048-.136-.072-.344-.072-.624v-6.66c0-.184.006-.321.018-.414.012-.092.05-.197.114-.317.112-.217.424-.324.936-.324h2.592c.704 0 1.388.256 2.052.768.32.248.584.584.792 1.009.208.424.312.896.312 1.416 0 .903-.3 1.647-.9 2.231.175.423.447 1.051.816 1.883zm-4.608-3.06h1.536c.232 0 .464-.088.696-.264.232-.177.348-.44.348-.792 0-.353-.116-.618-.348-.799-.232-.18-.472-.27-.72-.27h-1.512z"/><path d="m209.948 134.769h3.696c.184 0 .322.006.414.018.092.013.198.051.318.114.216.112.324.424.324.937 0 .56-.148.888-.444.983-.136.048-.344.072-.624.072h-4.752c-.56 0-.888-.152-.984-.456-.048-.128-.072-.332-.072-.612v-6.672c0-.408.076-.686.228-.834.152-.147.44-.222.864-.222h4.728c.184 0 .322.006.414.018.092.013.198.051.318.114.216.112.324.424.324.937 0 .56-.148.888-.444.983-.136.048-.344.072-.624.072h-3.684v1.212h2.376c.184 0 .322.006.414.018.092.013.198.051.318.114.216.112.324.424.324.937 0 .56-.152.888-.456.983-.136.048-.344.072-.624.072h-2.352z"/><path d="m218.804 134.769h3.696c.184 0 .322.006.414.018.092.013.198.051.318.114.216.112.324.424.324.937 0 .56-.148.888-.444.983-.136.048-.344.072-.624.072h-4.752c-.56 0-.888-.152-.984-.456-.048-.128-.072-.332-.072-.612v-6.672c0-.408.076-.686.228-.834.152-.147.44-.222.864-.222h4.728c.184 0 .322.006.414.018.092.013.198.051.318.114.216.112.324.424.324.937 0 .56-.148.888-.444.983-.136.048-.344.072-.624.072h-3.684v1.212h2.376c.184 0 .322.006.414.018.092.013.198.051.318.114.216.112.324.424.324.937 0 .56-.152.888-.456.983-.136.048-.344.072-.624.072h-2.352z"/><path d="m129.137 151.342h6.672c.256 0 .444.029.564.09.12.06.2.154.24.282s.06.296.06.504-.02.374-.06.498c-.041.124-.108.21-.204.258-.144.072-.348.107-.612.107h-2.292v6.036c0 .185-.006.32-.018.408s-.048.19-.108.306-.166.198-.318.246-.352.072-.6.072-.446-.024-.594-.072-.252-.13-.312-.246c-.06-.115-.096-.22-.108-.312s-.018-.23-.018-.414v-6.024h-2.304c-.256 0-.444-.029-.564-.09-.12-.06-.2-.153-.24-.282-.041-.128-.06-.296-.06-.504s.02-.374.06-.498.108-.21.204-.258c.144-.072.348-.107.612-.107z"/><path d="m149.056 151.402c.536.192.804.448.804.768 0 .104-.048.301-.144.589l-2.304 6.659c-.016.057-.044.125-.084.204-.04.08-.146.187-.318.318-.172.132-.376.198-.612.198s-.44-.066-.612-.198-.286-.262-.342-.39l-1.404-4.141c-.888 2.624-1.34 3.96-1.356 4.008-.016.049-.052.116-.108.204-.056.089-.12.168-.192.24-.184.185-.404.276-.66.276s-.466-.061-.63-.181c-.164-.119-.274-.239-.33-.359l-.084-.181-2.316-6.659c-.088-.265-.132-.46-.132-.589 0-.319.268-.571.804-.756.232-.079.442-.12.63-.12s.332.064.432.192.19.324.27.588l1.32 4.008 1.308-3.947c.112-.336.316-.568.612-.696.128-.056.294-.084.498-.084s.394.065.57.198c.176.132.288.262.336.39l1.38 4.164 1.32-4.032c.064-.184.116-.319.156-.408.04-.088.114-.174.222-.258s.242-.126.402-.126.349.041.564.121z"/><path d="m155.848 151.245c1.184 0 2.212.429 3.084 1.284.872.856 1.308 1.918 1.308 3.187 0 1.268-.416 2.348-1.248 3.239-.832.893-1.856 1.338-3.072 1.338s-2.25-.439-3.102-1.319-1.278-1.928-1.278-3.145c0-.664.12-1.285.36-1.865s.56-1.066.96-1.458c.4-.393.86-.7 1.38-.925.521-.223 1.057-.336 1.608-.336zm-2.184 4.525c0 .712.23 1.29.69 1.733.46.444.974.666 1.542.666s1.08-.216 1.536-.647.684-1.012.684-1.74-.23-1.312-.69-1.752c-.46-.439-.974-.66-1.542-.66s-1.08.223-1.536.666c-.456.444-.684 1.022-.684 1.734z"/><path d="m73.833 151.354c.184 0 .322.006.414.018.092.013.196.051.312.114.116.064.198.172.246.324s.072.355.072.612c0 .256-.024.46-.072.611-.048.152-.132.258-.252.318s-.226.096-.318.107c-.092.013-.234.019-.426.019h-3.672v1.212h2.363c.192 0 .334.006.426.018.092.013.198.051.318.114.208.12.312.437.312.948 0 .56-.152.892-.456.996-.128.04-.332.06-.612.06h-2.352v2.269c0 .191-.006.332-.018.42s-.05.191-.114.312c-.112.216-.424.324-.936.324-.56 0-.888-.152-.984-.456-.048-.128-.072-.332-.072-.612v-6.672c0-.408.076-.686.228-.834.152-.147.44-.222.864-.222z"/><path d="m80.984 151.245c1.184 0 2.212.429 3.084 1.284.872.856 1.308 1.918 1.308 3.187 0 1.268-.416 2.348-1.248 3.239-.832.893-1.856 1.338-3.072 1.338s-2.25-.439-3.102-1.319-1.278-1.928-1.278-3.145c0-.664.12-1.285.36-1.865s.56-1.066.96-1.458c.4-.393.86-.7 1.38-.925.52-.223 1.057-.336 1.608-.336zm-2.184 4.525c0 .712.23 1.29.69 1.733.46.444.974.666 1.542.666s1.08-.216 1.536-.647.684-1.012.684-1.74-.23-1.312-.69-1.752c-.46-.439-.974-.66-1.542-.66s-1.08.223-1.536.666c-.456.444-.684 1.022-.684 1.734z"/><path d="m93.104 151.678c.08-.128.196-.217.348-.265s.342-.071.57-.071.41.02.546.06.24.088.312.145c.072.056.124.14.156.252.048.136.072.344.072.624v3.624c0 1.056-.328 2.016-.984 2.88-.32.407-.732.737-1.236.989s-1.062.378-1.674.378-1.168-.128-1.668-.384-.906-.592-1.218-1.008c-.648-.848-.972-1.808-.972-2.88v-3.612c0-.191.006-.334.018-.426s.05-.198.114-.318c.064-.119.172-.204.324-.252s.356-.071.612-.071.46.023.612.071.256.133.312.252c.096.185.144.437.144.757v3.6c0 .488.12.952.36 1.392.12.225.3.404.54.54.24.137.524.204.852.204.583 0 1.02-.216 1.308-.647.288-.433.432-.933.432-1.5v-3.672c0-.314.04-.534.12-.662z"/><path d="m104 158.661c.12.288.18.496.18.624 0 .305-.248.561-.744.769-.256.111-.462.168-.618.168s-.284-.038-.384-.114-.174-.154-.222-.234c-.08-.151-.392-.876-.936-2.172l-.372.024h-1.512v1.355c0 .185-.006.322-.018.414-.012.093-.05.198-.114.318-.112.216-.424.324-.936.324-.56 0-.888-.148-.984-.444-.048-.136-.072-.344-.072-.624v-6.66c0-.184.006-.321.018-.414.012-.092.05-.197.114-.317.112-.217.424-.324.936-.324h2.592c.704 0 1.388.256 2.052.768.32.248.584.584.792 1.009.208.424.312.896.312 1.416 0 .903-.3 1.647-.9 2.231.176.423.448 1.051.816 1.883zm-4.607-3.059h1.536c.232 0 .464-.088.696-.264.232-.177.348-.44.348-.792 0-.353-.116-.618-.348-.799-.232-.18-.472-.27-.72-.27h-1.512z"/><path d="m191.894 151.407c.184 0 .322.006.414.018.092.013.196.051.312.114.116.064.198.172.246.324s.072.355.072.612c0 .256-.024.46-.072.611-.048.152-.132.258-.252.318s-.226.096-.318.107c-.092.013-.234.019-.426.019h-3.672v1.212h2.364c.192 0 .334.006.426.018.092.013.198.051.318.114.208.12.312.437.312.948 0 .56-.152.892-.456.996-.128.04-.332.06-.612.06h-2.352v2.269c0 .191-.006.332-.018.42s-.05.191-.114.312c-.112.216-.424.324-.936.324-.56 0-.888-.152-.984-.456-.048-.128-.072-.332-.072-.612v-6.672c0-.408.076-.686.228-.834.152-.147.44-.222.864-.222z"/><path d="m194.918 152.463c0-.184.006-.321.018-.414.012-.092.05-.197.114-.317.112-.217.424-.324.936-.324.56 0 .892.148.996.444.04.136.06.344.06.624v6.672c0 .191-.006.332-.018.42s-.05.191-.114.312c-.112.216-.424.324-.936.324-.56 0-.888-.152-.984-.456-.048-.128-.072-.332-.072-.612z"/><path d="m207.23 151.539c.472.232.708.488.708.768 0 .129-.06.32-.18.576l-3.312 6.721c-.088.176-.222.317-.402.426-.18.107-.366.162-.558.162h-.12c-.2 0-.39-.055-.57-.162-.18-.108-.314-.25-.402-.426l-3.312-6.721c-.12-.256-.18-.447-.18-.576 0-.279.236-.535.708-.768.264-.136.466-.204.606-.204s.246.017.318.048c.072.032.14.089.204.168.072.097.138.202.198.318s.214.448.462.996.514 1.13.798 1.746.552 1.198.804 1.746.394.854.426.918l2.4-5.256c.064-.152.12-.272.168-.36.144-.216.32-.324.528-.324s.444.069.708.204z"/><path d="m211.922 158.079h3.696c.184 0 .322.006.414.018.092.013.198.051.318.114.216.112.324.424.324.937 0 .56-.148.888-.444.983-.136.048-.344.072-.624.072h-4.752c-.56 0-.888-.152-.984-.456-.048-.128-.072-.332-.072-.612v-6.672c0-.408.076-.686.228-.834.152-.147.44-.222.864-.222h4.728c.184 0 .322.006.414.018.092.013.198.051.318.114.216.112.324.424.324.937 0 .56-.148.888-.444.983-.136.048-.344.072-.624.072h-3.684v1.212h2.376c.184 0 .322.006.414.018.092.013.198.051.318.114.216.112.324.424.324.937 0 .56-.152.888-.456.983-.136.048-.344.072-.624.072h-2.352z"/><path d="m134.827 182.229c-.208-.256-.312-.485-.312-.689s.172-.475.516-.811c.2-.191.412-.288.636-.288s.536.2.936.601c.112.136.271.266.48.39.208.124.4.187.576.187.744 0 1.116-.305 1.116-.912 0-.185-.102-.338-.306-.462s-.458-.214-.762-.271c-.304-.056-.632-.146-.984-.27s-.68-.271-.984-.438-.558-.434-.762-.798-.306-.802-.306-1.313c0-.704.262-1.318.786-1.843.524-.523 1.238-.786 2.142-.786.48 0 .918.062 1.314.187.396.124.67.25.822.378l.3.228c.248.232.372.429.372.589s-.096.38-.288.659c-.272.4-.552.601-.84.601-.168 0-.376-.08-.624-.24-.024-.016-.07-.056-.138-.12-.068-.063-.13-.115-.186-.156-.168-.104-.382-.155-.642-.155s-.476.062-.648.186-.258.296-.258.517c0 .22.102.397.306.533.204.137.458.229.762.276.304.048.636.122.996.222.36.101.692.223.996.366.304.145.558.395.762.75.204.356.306.794.306 1.314s-.104.978-.312 1.374-.48.701-.816.918c-.648.424-1.34.636-2.076.636-.376 0-.732-.046-1.068-.138-.336-.093-.608-.206-.816-.343-.424-.256-.72-.504-.888-.743z"/><path d="m142.891 175.725c0-.184.006-.321.018-.414.012-.092.05-.197.114-.317.112-.217.424-.324.936-.324.56 0 .892.148.996.444.04.136.06.344.06.624v6.672c0 .191-.006.332-.018.42s-.05.191-.114.312c-.112.216-.424.324-.936.324-.56 0-.888-.152-.984-.456-.048-.128-.072-.332-.072-.612z"/><path d="m152.587 179.013 2.412 2.652c.271.304.408.56.408.768s-.154.452-.462.732-.568.42-.78.42-.458-.16-.738-.48l-2.28-2.615-2.28 2.615c-.288.32-.534.48-.738.48s-.464-.142-.78-.426-.474-.526-.474-.727c0-.199.14-.456.42-.768l2.412-2.652-2.412-2.651c-.28-.296-.42-.549-.42-.757s.156-.453.468-.737.574-.427.786-.427.458.16.738.48l2.28 2.616 2.28-2.616c.288-.32.534-.48.738-.48s.462.141.774.421c.312.279.468.527.468.743 0 .217-.136.469-.408.757z"/><path d="m65.227 182.187c-.208-.256-.312-.485-.312-.689s.172-.475.516-.811c.2-.191.412-.288.636-.288s.536.2.936.601c.112.136.271.266.48.39.208.124.4.187.576.187.744 0 1.116-.305 1.116-.912 0-.185-.102-.338-.306-.462s-.458-.214-.762-.271c-.304-.056-.632-.146-.984-.27s-.68-.271-.984-.438-.558-.434-.762-.798-.306-.802-.306-1.313c0-.704.262-1.318.786-1.843.524-.523 1.238-.786 2.142-.786.48 0 .918.062 1.314.187.396.124.67.25.822.378l.3.228c.248.232.372.429.372.589s-.096.38-.288.659c-.272.4-.552.601-.84.601-.168 0-.376-.08-.624-.24-.024-.016-.07-.056-.138-.12-.068-.063-.13-.115-.186-.156-.168-.104-.382-.155-.642-.155s-.476.062-.648.186-.258.296-.258.517c0 .22.102.397.306.533.204.137.458.229.762.276.304.048.636.122.996.222.36.101.692.223.996.366.304.145.558.395.762.75.204.356.306.794.306 1.314s-.104.978-.312 1.374-.48.701-.816.918c-.648.424-1.34.636-2.076.636-.376 0-.732-.046-1.068-.138-.336-.093-.608-.206-.816-.343-.424-.256-.72-.504-.888-.743z"/><path d="m75.415 181.3h3.696c.184 0 .322.006.414.018.092.013.198.051.318.114.216.112.324.424.324.937 0 .56-.148.888-.444.983-.136.048-.344.072-.624.072h-4.752c-.56 0-.888-.152-.984-.456-.048-.128-.072-.332-.072-.612v-6.672c0-.408.076-.686.228-.834.152-.147.44-.222.864-.222h4.728c.184 0 .322.006.414.018.092.013.198.051.318.114.216.112.324.424.324.937 0 .56-.148.888-.444.983-.136.048-.344.072-.624.072h-3.684v1.212h2.376c.184 0 .322.006.414.018.092.013.198.051.318.114.216.112.324.424.324.937 0 .56-.152.888-.456.983-.136.048-.344.072-.624.072h-2.352z"/><path d="m90.175 174.759c.472.232.708.488.708.768 0 .129-.06.32-.18.576l-3.312 6.721c-.088.176-.222.317-.402.426-.18.107-.366.162-.558.162h-.12c-.2 0-.39-.055-.57-.162-.18-.108-.314-.25-.402-.426l-3.312-6.721c-.12-.256-.18-.447-.18-.576 0-.279.236-.535.708-.768.264-.136.466-.204.606-.204s.246.017.318.048c.072.032.14.089.204.168.072.097.138.202.198.318s.214.448.462.996.514 1.13.798 1.746.552 1.198.804 1.746.394.854.426.918l2.4-5.256c.064-.152.12-.272.168-.36.144-.216.32-.324.528-.324s.444.069.708.204z"/><path d="m94.866 181.3h3.696c.184 0 .322.006.414.018.092.013.198.051.318.114.216.112.324.424.324.937 0 .56-.148.888-.444.983-.136.048-.344.072-.624.072h-4.752c-.56 0-.888-.152-.984-.456-.048-.128-.072-.332-.072-.612v-6.672c0-.408.076-.686.228-.834.152-.147.44-.222.864-.222h4.728c.184 0 .322.006.414.018.092.013.198.051.318.114.216.112.324.424.324.937 0 .56-.148.888-.444.983-.136.048-.344.072-.624.072h-3.684v1.212h2.376c.184 0 .322.006.414.018.092.013.198.051.318.114.216.112.324.424.324.937 0 .56-.152.888-.456.983-.136.048-.344.072-.624.072h-2.352z"/><path d="m107.281 174.994c.076-.141.19-.234.342-.282s.342-.072.57-.072.412.021.552.061.244.088.312.144.118.141.15.252c.048.128.072.332.072.612v6.66c0 .191-.006.332-.018.42s-.05.191-.114.312c-.112.216-.424.324-.936.324-.312 0-.528-.024-.648-.072s-.22-.124-.3-.228c-1.8-2.4-2.984-3.968-3.552-4.704v3.948c0 .191-.006.332-.018.42s-.05.191-.114.312c-.112.216-.424.324-.936.324-.496 0-.8-.108-.912-.324-.064-.12-.102-.228-.114-.324s-.018-.235-.018-.42v-6.695c0-.305.038-.526.114-.666.076-.141.19-.234.342-.282s.348-.072.588-.072.43.022.57.066.238.094.294.149c.032.024.124.129.276.312 1.688 2.296 2.816 3.812 3.384 4.548v-4.056c-.001-.306.037-.527.114-.667z"/><path d="m183.194 181.305h3.696c.184 0 .322.006.414.018.092.013.198.051.318.114.216.112.324.424.324.937 0 .56-.148.888-.444.983-.136.048-.344.072-.624.072h-4.752c-.56 0-.888-.152-.984-.456-.048-.128-.072-.332-.072-.612v-6.672c0-.408.076-.686.228-.834.152-.147.44-.222.864-.222h4.728c.184 0 .322.006.414.018.092.013.198.051.318.114.216.112.324.424.324.937 0 .56-.148.888-.444.983-.136.048-.344.072-.624.072h-3.684v1.212h2.376c.184 0 .322.006.414.018.092.013.198.051.318.114.216.112.324.424.324.937 0 .56-.152.888-.456.983-.136.048-.344.072-.624.072h-2.352z"/><path d="m189.926 175.689c0-.184.006-.321.018-.414.012-.092.05-.197.114-.317.112-.217.424-.324.936-.324.56 0 .892.148.996.444.04.136.06.344.06.624v6.672c0 .191-.006.332-.018.42s-.05.191-.114.312c-.112.216-.424.324-.936.324-.56 0-.888-.152-.984-.456-.048-.128-.072-.332-.072-.612z"/><path d="m198.794 178.126h2.112c.432.016.696.128.792.336.08.151.12.376.12.672v2.64c0 .257-.112.5-.336.732-.672.696-1.68 1.044-3.024 1.044-1.192 0-2.228-.45-3.108-1.351-.88-.899-1.32-1.985-1.32-3.258 0-1.271.448-2.334 1.344-3.186.896-.853 1.952-1.278 3.168-1.278.944 0 1.836.312 2.676.937.216.16.324.338.324.533 0 .196-.092.423-.276.679-.312.424-.596.636-.852.636-.152 0-.396-.11-.732-.33s-.736-.33-1.2-.33c-.608 0-1.148.214-1.62.643-.472.428-.708.987-.708 1.68s.24 1.28.72 1.764 1.024.727 1.632.727c.44 0 .836-.072 1.188-.217v-1.308h-.948c-.248 0-.424-.032-.528-.096s-.172-.158-.204-.282-.048-.292-.048-.504.018-.382.054-.51.102-.217.198-.265c.144-.072.336-.108.576-.108z"/><path d="m209.414 174.958c.064-.12.172-.204.324-.252.152-.049.344-.072.576-.072s.416.02.552.06.24.089.312.145.128.136.168.24c.04.136.06.344.06.624v6.659c0 .185-.006.322-.018.414-.012.093-.05.198-.114.318-.112.216-.424.324-.936.324-.56 0-.888-.148-.984-.444-.048-.136-.072-.344-.072-.624v-2.436h-3.18v2.447c0 .185-.006.322-.018.414-.012.093-.05.198-.114.318-.112.216-.424.324-.936.324-.56 0-.888-.148-.984-.444-.048-.136-.072-.344-.072-.624v-6.66c0-.184.006-.321.018-.414.012-.092.05-.197.114-.317.112-.217.424-.324.936-.324.56 0 .892.148.996.444.04.136.06.344.06.624v2.447h3.18v-2.46c0-.184.006-.321.018-.414.012-.092.05-.197.114-.317z"/><path d="m214.142 174.622h6.672c.256 0 .444.029.564.09.12.06.2.154.24.282s.06.296.06.504-.02.374-.06.498c-.041.124-.108.21-.204.258-.144.072-.348.107-.612.107h-2.292v6.036c0 .185-.006.32-.018.408s-.048.19-.108.306-.166.198-.318.246-.352.072-.6.072-.446-.024-.594-.072-.252-.13-.312-.246c-.06-.115-.096-.22-.108-.312s-.018-.23-.018-.414v-6.024h-2.304c-.256 0-.444-.029-.564-.09-.12-.06-.2-.153-.24-.282-.041-.128-.06-.296-.06-.504s.02-.374.06-.498.108-.21.204-.258c.144-.072.348-.107.612-.107z"/><path d="m66.912 198.226c.076-.141.19-.234.342-.282s.342-.072.57-.072.412.021.552.061.244.088.312.144.118.141.15.252c.048.128.072.332.072.612v6.66c0 .191-.006.332-.018.42s-.05.191-.114.312c-.112.216-.424.324-.936.324-.312 0-.528-.024-.648-.072s-.22-.124-.3-.228c-1.8-2.4-2.984-3.968-3.552-4.704v3.948c0 .191-.006.332-.018.42s-.05.191-.114.312c-.112.216-.424.324-.936.324-.496 0-.8-.108-.912-.324-.064-.12-.102-.228-.114-.324s-.018-.235-.018-.42v-6.695c0-.305.038-.526.114-.666.076-.141.19-.234.342-.282s.348-.072.588-.072.43.022.57.066.238.094.294.149c.032.024.124.129.276.312 1.688 2.296 2.816 3.812 3.384 4.548v-4.056c0-.306.038-.528.114-.667z"/><path d="m71.07 198.915c0-.184.006-.321.018-.414.012-.092.05-.197.114-.317.112-.217.424-.324.936-.324.56 0 .892.148.996.444.04.136.06.344.06.624v6.672c0 .191-.006.332-.018.42s-.05.191-.114.312c-.112.216-.424.324-.936.324-.56 0-.888-.152-.984-.456-.048-.128-.072-.332-.072-.612z"/><path d="m81.035 198.226c.076-.141.19-.234.342-.282s.342-.072.57-.072.412.021.552.061.244.088.312.144.118.141.15.252c.048.128.072.332.072.612v6.66c0 .191-.006.332-.018.42s-.05.191-.114.312c-.112.216-.424.324-.936.324-.312 0-.528-.024-.648-.072s-.22-.124-.3-.228c-1.8-2.4-2.984-3.968-3.552-4.704v3.948c0 .191-.006.332-.018.42s-.05.191-.114.312c-.112.216-.424.324-.936.324-.496 0-.8-.108-.912-.324-.064-.12-.102-.228-.114-.324s-.018-.235-.018-.42v-6.695c0-.305.038-.526.114-.666.076-.141.19-.234.342-.282s.348-.072.588-.072.43.022.57.066.238.094.294.149c.032.024.124.129.276.312 1.688 2.296 2.816 3.812 3.384 4.548v-4.056c0-.306.038-.528.114-.667z"/><path d="m87.317 204.531h3.696c.184 0 .322.006.414.018.092.013.198.051.318.114.216.112.324.424.324.937 0 .56-.148.888-.444.983-.136.048-.344.072-.624.072h-4.752c-.56 0-.888-.152-.984-.456-.048-.128-.072-.332-.072-.612v-6.672c0-.408.076-.686.228-.834.152-.147.44-.222.864-.222h4.728c.184 0 .322.006.414.018.092.013.198.051.318.114.216.112.324.424.324.937 0 .56-.148.888-.444.983-.136.048-.344.072-.624.072h-3.684v1.212h2.376c.184 0 .322.006.414.018.092.013.198.051.318.114.216.112.324.424.324.937 0 .56-.152.888-.456.983-.136.048-.344.072-.624.072h-2.352z"/><path d="m199.485 197.854h6.672c.256 0 .444.029.564.09.12.06.2.154.24.282s.06.296.06.504-.02.374-.06.498c-.041.124-.108.21-.204.258-.144.072-.348.107-.612.107h-2.292v6.036c0 .185-.006.32-.018.408s-.048.19-.108.306-.166.198-.318.246-.352.072-.6.072-.446-.024-.594-.072-.252-.13-.312-.246c-.06-.115-.096-.22-.108-.312s-.018-.23-.018-.414v-6.024h-2.304c-.256 0-.444-.029-.564-.09-.12-.06-.2-.153-.24-.282-.041-.128-.06-.296-.06-.504s.02-.374.06-.498.108-.21.204-.258c.144-.072.348-.107.612-.107z"/><path d="m211.005 204.537h3.696c.184 0 .322.006.414.018.092.013.198.051.318.114.216.112.324.424.324.937 0 .56-.148.888-.444.983-.136.048-.344.072-.624.072h-4.752c-.56 0-.888-.152-.984-.456-.048-.128-.072-.332-.072-.612v-6.672c0-.408.076-.686.228-.834.152-.147.44-.222.864-.222h4.728c.184 0 .322.006.414.018.092.013.198.051.318.114.216.112.324.424.324.937 0 .56-.148.888-.444.983-.136.048-.344.072-.624.072h-3.684v1.212h2.376c.184 0 .322.006.414.018.092.013.198.051.318.114.216.112.324.424.324.937 0 .56-.152.888-.456.983-.136.048-.344.072-.624.072h-2.352z"/><path d="m223.419 198.232c.076-.141.19-.234.342-.282s.342-.072.57-.072.412.021.552.061.244.088.312.144.118.141.15.252c.048.128.072.332.072.612v6.66c0 .191-.006.332-.018.42s-.05.191-.114.312c-.112.216-.424.324-.936.324-.312 0-.528-.024-.648-.072s-.22-.124-.3-.228c-1.8-2.4-2.984-3.968-3.552-4.704v3.948c0 .191-.006.332-.018.42s-.05.191-.114.312c-.112.216-.424.324-.936.324-.496 0-.8-.108-.912-.324-.064-.12-.102-.228-.114-.324s-.018-.235-.018-.42v-6.695c0-.305.038-.526.114-.666.076-.141.19-.234.342-.282s.348-.072.588-.072.43.022.57.066.238.094.294.149c.032.024.124.129.276.312 1.688 2.296 2.816 3.812 3.384 4.548v-4.056c0-.306.038-.528.114-.667z"/><path d="m118.73 204.568h3.696c.184 0 .322.006.414.018.092.013.198.051.318.114.216.112.324.424.324.937 0 .56-.148.888-.444.983-.136.048-.344.072-.624.072h-4.752c-.56 0-.888-.152-.984-.456-.048-.128-.072-.332-.072-.612v-6.672c0-.408.076-.686.228-.834.152-.147.44-.222.864-.222h4.728c.184 0 .322.006.414.018.092.013.198.051.318.114.216.112.324.424.324.937 0 .56-.148.888-.444.983-.136.048-.344.072-.624.072h-3.684v1.212h2.376c.184 0 .322.006.414.018.092.013.198.051.318.114.216.112.324.424.324.937 0 .56-.152.888-.456.983-.136.048-.344.072-.624.072h-2.352z"/><path d="m127.586 204.915h3.264c.264 0 .456.03.576.091.12.06.2.153.24.281s.06.299.06.511-.02.382-.06.51-.108.216-.204.264c-.152.08-.36.12-.624.12h-4.32c-.56 0-.888-.152-.984-.456-.048-.128-.072-.332-.072-.612v-6.672c0-.184.006-.321.018-.414.012-.092.05-.197.114-.317.112-.217.424-.324.936-.324.56 0 .892.148.996.444.04.136.06.344.06.624z"/><path d="m135.829 204.568h3.696c.184 0 .322.006.414.018.092.013.198.051.318.114.216.112.324.424.324.937 0 .56-.148.888-.444.983-.136.048-.344.072-.624.072h-4.752c-.56 0-.888-.152-.984-.456-.048-.128-.072-.332-.072-.612v-6.672c0-.408.076-.686.228-.834.152-.147.44-.222.864-.222h4.728c.184 0 .322.006.414.018.092.013.198.051.318.114.216.112.324.424.324.937 0 .56-.148.888-.444.983-.136.048-.344.072-.624.072h-3.684v1.212h2.376c.184 0 .322.006.414.018.092.013.198.051.318.114.216.112.324.424.324.937 0 .56-.152.888-.456.983-.136.048-.344.072-.624.072h-2.352z"/><path d="m150.589 198.028c.472.232.708.488.708.768 0 .129-.06.32-.18.576l-3.312 6.721c-.088.176-.222.317-.402.426-.18.107-.366.162-.558.162h-.12c-.2 0-.39-.055-.57-.162-.18-.108-.314-.25-.402-.426l-3.312-6.721c-.12-.256-.18-.447-.18-.576 0-.279.236-.535.708-.768.264-.136.466-.204.606-.204s.246.017.318.048c.072.032.14.089.204.168.072.097.138.202.198.318s.214.448.462.996.514 1.13.798 1.746.552 1.198.804 1.746.394.854.426.918l2.4-5.256c.064-.152.12-.272.168-.36.144-.216.32-.324.528-.324s.444.068.708.204z"/><path d="m155.281 204.568h3.696c.184 0 .322.006.414.018.092.013.198.051.318.114.216.112.324.424.324.937 0 .56-.148.888-.444.983-.136.048-.344.072-.624.072h-4.752c-.56 0-.888-.152-.984-.456-.048-.128-.072-.332-.072-.612v-6.672c0-.408.076-.686.228-.834.152-.147.44-.222.864-.222h4.728c.184 0 .322.006.414.018.092.013.198.051.318.114.216.112.324.424.324.937 0 .56-.148.888-.444.983-.136.048-.344.072-.624.072h-3.684v1.212h2.376c.184 0 .322.006.414.018.092.013.198.051.318.114.216.112.324.424.324.937 0 .56-.152.888-.456.983-.136.048-.344.072-.624.072h-2.352z"/><path d="m167.695 198.262c.076-.141.19-.234.342-.282s.342-.072.57-.072.412.021.552.061.244.088.312.144.118.141.15.252c.048.128.072.332.072.612v6.66c0 .191-.006.332-.018.42s-.05.191-.114.312c-.112.216-.424.324-.936.324-.312 0-.528-.024-.648-.072s-.22-.124-.3-.228c-1.8-2.4-2.984-3.968-3.552-4.704v3.948c0 .191-.006.332-.018.42s-.05.191-.114.312c-.112.216-.424.324-.936.324-.496 0-.8-.108-.912-.324-.064-.12-.102-.228-.114-.324s-.018-.235-.018-.42v-6.695c0-.305.038-.526.114-.666.076-.141.19-.234.342-.282s.348-.072.588-.072.43.022.57.066.238.094.294.149c.032.024.124.129.276.312 1.688 2.296 2.816 3.812 3.384 4.548v-4.056c0-.306.038-.527.114-.667z"/><path d="m164.878 220.996c1.184 0 2.212.429 3.084 1.284.872.856 1.308 1.918 1.308 3.187 0 1.268-.416 2.348-1.248 3.239-.832.893-1.856 1.338-3.072 1.338s-2.25-.439-3.102-1.319-1.278-1.928-1.278-3.145c0-.664.12-1.285.36-1.865s.56-1.066.96-1.458c.4-.393.86-.7 1.38-.925.52-.224 1.056-.336 1.608-.336zm-2.184 4.524c0 .712.23 1.29.69 1.733.46.444.974.666 1.542.666s1.08-.216 1.536-.647.684-1.012.684-1.74-.23-1.312-.69-1.752c-.46-.439-.974-.66-1.542-.66s-1.08.223-1.536.666c-.456.444-.684 1.022-.684 1.734z"/><path d="m173.11 221.356c.136.136.204.368.204.696v.191c0 .2-.008.349-.024.444-.056.704-.264 1.308-.624 1.812s-.816.757-1.368.757c-.056 0-.106-.042-.15-.126s-.066-.194-.066-.33c0-.137.018-.242.054-.318s.076-.12.12-.132.078-.021.102-.024.068-.023.132-.06c.064-.036.12-.086.168-.15.128-.168.2-.428.216-.78-.272-.039-.474-.127-.606-.264-.132-.136-.198-.424-.198-.864 0-.319.04-.558.12-.714.08-.155.202-.26.366-.312s.418-.078.762-.078.607.084.792.252z"/><path d="m180.79 227.596.216-.156c.272-.16.464-.24.576-.24.248 0 .516.225.804.672.176.28.264.504.264.672s-.054.309-.162.421c-.108.111-.234.212-.378.3s-.282.172-.414.252-.402.184-.81.312-.802.192-1.182.192-.764-.05-1.152-.15-.788-.268-1.2-.504c-.412-.235-.782-.523-1.11-.864-.328-.34-.598-.775-.81-1.308-.212-.532-.318-1.11-.318-1.734s.104-1.189.312-1.697.474-.929.798-1.261c.324-.331.694-.609 1.11-.834.784-.432 1.572-.647 2.364-.647.376 0 .758.058 1.146.174s.682.234.882.354l.288.168c.144.088.256.16.336.216.208.168.312.357.312.569 0 .213-.084.435-.252.666-.312.433-.592.648-.84.648-.144 0-.348-.088-.612-.264-.336-.272-.784-.408-1.344-.408-.52 0-1.032.18-1.536.54-.24.176-.44.424-.6.744-.16.319-.24.682-.24 1.086 0 .403.08.766.24 1.086s.364.572.612.756c.488.353.996.528 1.524.528.248 0 .482-.032.702-.097.22-.064.378-.128.474-.192z"/><path d="m186.765 228.124h3.264c.264 0 .456.03.576.091.12.06.2.153.24.281s.06.299.06.511-.02.382-.06.51-.108.216-.204.264c-.152.08-.36.12-.624.12h-4.32c-.56 0-.888-.152-.984-.456-.048-.128-.072-.332-.072-.612v-6.672c0-.184.006-.321.018-.414.012-.092.05-.197.114-.317.112-.217.424-.324.936-.324.56 0 .892.148.996.444.04.136.06.344.06.624z"/><path d="m197.013 220.996c1.184 0 2.212.429 3.084 1.284.872.856 1.308 1.918 1.308 3.187 0 1.268-.416 2.348-1.248 3.239-.832.893-1.856 1.338-3.072 1.338s-2.25-.439-3.102-1.319-1.278-1.928-1.278-3.145c0-.664.12-1.285.36-1.865s.56-1.066.96-1.458c.4-.393.86-.7 1.38-.925.52-.224 1.057-.336 1.608-.336zm-2.184 4.524c0 .712.23 1.29.69 1.733.46.444.974.666 1.542.666s1.08-.216 1.536-.647.684-1.012.684-1.74-.23-1.312-.69-1.752c-.46-.439-.974-.66-1.542-.66s-1.08.223-1.536.666c-.456.444-.684 1.022-.684 1.734z"/><path d="m208.882 227.596.216-.156c.272-.16.464-.24.576-.24.248 0 .516.225.804.672.176.28.264.504.264.672s-.054.309-.162.421c-.108.111-.234.212-.378.3s-.282.172-.414.252-.402.184-.81.312-.802.192-1.182.192-.764-.05-1.152-.15-.788-.268-1.2-.504c-.412-.235-.782-.523-1.11-.864-.328-.34-.598-.775-.81-1.308-.212-.532-.318-1.11-.318-1.734s.104-1.189.312-1.697.474-.929.798-1.261c.324-.331.694-.609 1.11-.834.784-.432 1.572-.647 2.364-.647.376 0 .758.058 1.146.174s.682.234.882.354l.288.168c.144.088.256.16.336.216.208.168.312.357.312.569 0 .213-.084.435-.252.666-.312.433-.592.648-.84.648-.144 0-.348-.088-.612-.264-.336-.272-.784-.408-1.344-.408-.52 0-1.032.18-1.536.54-.24.176-.44.424-.6.744-.16.319-.24.682-.24 1.086 0 .403.08.766.24 1.086s.364.572.612.756c.488.353.996.528 1.524.528.248 0 .482-.032.702-.097.22-.064.377-.128.474-.192z"/><path d="m216.501 225.484c1.224 1.176 2.092 2.061 2.604 2.652.264.296.396.546.396.75s-.16.443-.48.72c-.32.276-.582.414-.786.414s-.45-.168-.738-.504l-2.64-3.013v2.341c0 .191-.006.332-.018.42s-.05.191-.114.312c-.112.216-.424.324-.936.324-.56 0-.888-.152-.984-.456-.048-.128-.072-.332-.072-.612v-6.672c0-.184.006-.321.018-.414.012-.092.05-.197.114-.317.112-.217.424-.324.936-.324.56 0 .892.148.996.444.04.136.06.344.06.624v2.292c1.088-1.225 1.968-2.229 2.64-3.013.28-.328.524-.492.732-.492s.472.139.792.414c.32.276.48.517.48.721s-.12.445-.36.726c-.464.536-1.184 1.272-2.16 2.208z"/><path d="m71.187 221.128h6.672c.256 0 .444.029.564.09.12.06.2.154.24.282s.06.296.06.504-.02.374-.06.498c-.041.124-.108.21-.204.258-.144.072-.348.107-.612.107h-2.292v6.036c0 .185-.006.32-.018.408s-.048.19-.108.306-.166.198-.318.246-.352.072-.6.072-.446-.024-.594-.072-.252-.13-.312-.246c-.06-.115-.096-.22-.108-.312s-.018-.23-.018-.414v-6.024h-2.304c-.256 0-.444-.029-.564-.09-.12-.06-.2-.153-.24-.282-.041-.128-.06-.296-.06-.504s.02-.374.06-.498.108-.21.204-.258c.144-.072.348-.107.612-.107z"/><path d="m91.106 221.188c.536.192.804.448.804.768 0 .104-.048.301-.144.589l-2.304 6.659c-.016.057-.044.125-.084.204-.04.08-.146.187-.318.318-.172.132-.376.198-.612.198s-.44-.066-.612-.198-.286-.262-.342-.39l-1.404-4.141c-.888 2.624-1.34 3.96-1.356 4.008-.016.049-.052.116-.108.204-.056.089-.12.168-.192.24-.184.185-.404.276-.66.276s-.466-.061-.63-.181c-.164-.119-.274-.239-.33-.359l-.084-.181-2.316-6.659c-.088-.265-.132-.46-.132-.589 0-.319.268-.571.804-.756.232-.079.442-.12.63-.12s.332.064.432.192.19.324.27.588l1.32 4.008 1.308-3.947c.112-.336.316-.568.612-.696.128-.056.294-.084.498-.084s.394.065.57.198c.176.132.288.262.336.39l1.38 4.164 1.32-4.032c.064-.184.116-.319.156-.408.04-.088.114-.174.222-.258s.242-.126.402-.126.349.041.564.121z"/><path d="m95.895 227.812h3.696c.184 0 .322.006.414.018.092.013.198.051.318.114.216.112.324.424.324.937 0 .56-.148.888-.444.983-.136.048-.344.072-.624.072h-4.752c-.56 0-.888-.152-.984-.456-.048-.128-.072-.332-.072-.612v-6.672c0-.408.076-.686.228-.834.152-.147.44-.222.864-.222h4.728c.184 0 .322.006.414.018.092.013.198.051.318.114.216.112.324.424.324.937 0 .56-.148.888-.444.983-.136.048-.344.072-.624.072h-3.684v1.212h2.376c.184 0 .322.006.414.018.092.013.198.051.318.114.216.112.324.424.324.937 0 .56-.152.888-.456.983-.136.048-.344.072-.624.072h-2.352z"/><path d="m104.75 228.159h3.264c.264 0 .456.03.576.091.12.06.2.153.24.281s.06.299.06.511-.02.382-.06.51-.108.216-.204.264c-.152.08-.36.12-.624.12h-4.32c-.56 0-.888-.152-.984-.456-.048-.128-.072-.332-.072-.612v-6.672c0-.184.006-.321.018-.414.012-.092.05-.197.114-.317.112-.217.424-.324.936-.324.56 0 .892.148.996.444.04.136.06.344.06.624z"/><path d="m118.898 221.272c.472.232.708.488.708.768 0 .129-.06.32-.18.576l-3.312 6.721c-.088.176-.222.317-.402.426-.18.107-.366.162-.558.162h-.12c-.2 0-.39-.055-.57-.162-.18-.108-.314-.25-.402-.426l-3.312-6.721c-.12-.256-.18-.447-.18-.576 0-.279.236-.535.708-.768.264-.136.466-.204.606-.204s.246.017.318.048c.072.032.14.089.204.168.072.097.138.202.198.318s.214.448.462.996.514 1.13.798 1.746.552 1.198.804 1.746.394.854.426.918l2.4-5.256c.064-.152.12-.272.168-.36.144-.216.32-.324.528-.324s.444.068.708.204z"/><path d="m123.59 227.812h3.696c.184 0 .322.006.414.018.092.013.198.051.318.114.216.112.324.424.324.937 0 .56-.148.888-.444.983-.136.048-.344.072-.624.072h-4.752c-.56 0-.888-.152-.984-.456-.048-.128-.072-.332-.072-.612v-6.672c0-.408.076-.686.228-.834.152-.147.44-.222.864-.222h4.728c.184 0 .322.006.414.018.092.013.198.051.318.114.216.112.324.424.324.937 0 .56-.148.888-.444.983-.136.048-.344.072-.624.072h-3.684v1.212h2.376c.184 0 .322.006.414.018.092.013.198.051.318.114.216.112.324.424.324.937 0 .56-.152.888-.456.983-.136.048-.344.072-.624.072h-2.352z"/></g><path d="m131.993 13.583c-.875-.408-1.248-1.08-1.248-1.751 0-1.235 1.043-2.075 2.423-2.075 1.511 0 2.279.936 2.279 1.919 0 .66-.336 1.379-1.295 1.823v.036c.972.384 1.571 1.08 1.571 2.015 0 1.367-1.164 2.267-2.651 2.267-1.631 0-2.614-.959-2.614-2.099 0-.983.587-1.691 1.547-2.099zm2.663 2.074c0-.936-.66-1.403-1.715-1.703-.911.264-1.403.875-1.403 1.619-.036.78.564 1.475 1.56 1.475.946 0 1.558-.587 1.558-1.391zm-2.903-3.898c-.012.78.587 1.199 1.487 1.439.672-.228 1.188-.708 1.188-1.416 0-.624-.372-1.271-1.319-1.271-.876.001-1.356.577-1.356 1.248z"/><path d="m141.903 13.702c0 2.651-.996 4.114-2.71 4.114-1.523 0-2.567-1.427-2.591-4.006 0-2.626 1.14-4.054 2.723-4.054 1.63 0 2.578 1.464 2.578 3.946zm-4.234.12c0 2.027.624 3.178 1.583 3.178 1.067 0 1.583-1.259 1.583-3.25 0-1.919-.48-3.178-1.583-3.178-.911 0-1.583 1.127-1.583 3.25z"/><path d="m143.201 13.45c0-.611-.024-1.091-.048-1.571h.923l.048.947h.036c.324-.552.864-1.067 1.835-1.067.779 0 1.379.48 1.631 1.164h.023c.181-.336.42-.576.66-.756.348-.264.72-.408 1.271-.408.779 0 1.919.504 1.919 2.519v3.406h-1.032v-3.274c0-1.127-.419-1.787-1.259-1.787-.611 0-1.067.443-1.26.947-.048.156-.084.336-.084.528v3.586h-1.031v-3.478c0-.923-.407-1.583-1.211-1.583-.648 0-1.14.527-1.308 1.055-.06.144-.084.336-.084.516v3.49h-1.031v-4.234z"/><path d="m153.21 13.45c0-.611-.024-1.091-.049-1.571h.924l.048.947h.036c.324-.552.863-1.067 1.835-1.067.779 0 1.379.48 1.631 1.164h.024c.18-.336.42-.576.659-.756.348-.264.72-.408 1.271-.408.779 0 1.919.504 1.919 2.519v3.406h-1.031v-3.274c0-1.127-.42-1.787-1.26-1.787-.611 0-1.067.443-1.259.947-.048.156-.084.336-.084.528v3.586h-1.031v-3.478c0-.923-.408-1.583-1.212-1.583-.647 0-1.139.527-1.307 1.055-.061.144-.084.336-.084.516v3.49h-1.031v-4.234z"/><path d="m31.102 20.469v-11.244" fill="none" stroke="#231f20" stroke-miterlimit="10"/><path d="m257.874 20.469v-11.244" fill="none" stroke="#231f20" stroke-miterlimit="10"/><path d="m257.874 14.847h-92.021" fill="none" stroke="#231f20" stroke-miterlimit="10"/><path d="m123.888 14.847h-92.786" fill="none" stroke="#231f20" stroke-miterlimit="10"/></svg>